<?xml version="1.0" encoding="UTF-8" standalone="no"?>
<svg
   version="1.0"
   width="43.000000pt"
   height="369.000000pt"
   viewBox="0 0 43.000000 369.000000"
   preserveAspectRatio="xMidYMid meet"
   id="svg20"
   sodipodi:docname="frame-center.svg"
   inkscape:version="1.1.2 (0a00cf5339, 2022-02-04)"
   xmlns:inkscape="http://www.inkscape.org/namespaces/inkscape"
   xmlns:sodipodi="http://sodipodi.sourceforge.net/DTD/sodipodi-0.dtd"
   xmlns="http://www.w3.org/2000/svg"
   xmlns:svg="http://www.w3.org/2000/svg">
  <defs
     id="defs24" />
  <sodipodi:namedview
     id="namedview22"
     pagecolor="#ffffff"
     bordercolor="#666666"
     borderopacity="1.0"
     inkscape:pageshadow="2"
     inkscape:pageopacity="0.0"
     inkscape:pagecheckerboard="0"
     inkscape:document-units="pt"
     showgrid="false"
     inkscape:zoom="1.449187"
     inkscape:cx="28.636746"
     inkscape:cy="245.65498"
     inkscape:window-width="1920"
     inkscape:window-height="1009"
     inkscape:window-x="0"
     inkscape:window-y="27"
     inkscape:window-maximized="1"
     inkscape:current-layer="svg20" />
  <g
     transform="translate(0.000000,369.000000) scale(0.100000,-0.100000)"
     fill="#000000"
     stroke="none"
     id="g18"
     style="fill:#ff3d7d;fill-opacity:1">
    <path
       d="M168 3665 c-9 -21 -6 -43 20 -128 36 -118 49 -197 32 -197 -6 0 -15 11 -20 24 -12 34 -22 37 -48 16 -25 -20 -30 -50 -8 -50 8 0 16 -6 19 -12 3 -10 9 -10 26 0 29 17 41 8 41 -31 0 -37 -11 -81 -64 -252 -46 -148 -50 -229 -16 -300 13 -26 26 -43 31 -38 5 5 0 26 -11 48 -23 45 -26 126 -8 204 12 52 30 63 36 23 3 -18 9 -22 33 -20 28 2 30 5 27 37 -3 29 -7 34 -32 37 -15 2 -31 5 -34 8 -3 3 5 35 16 71 53 161 51 269 -10 443 -23 68 -27 91 -19 109 13 27 26 29 40 6 6 -10 11 -13 11 -7 0 14 -21 34 -37 34 -7 0 -19 -11 -25 -25z"
       id="path2"
       style="fill:#ff3d7d;fill-opacity:1" />
    <path
       d="M267 2885 c5 -55 2 -66 -35 -135 -22 -41 -56 -106 -76 -144 -29 -54 -36 -80 -36 -123 0 -55 24 -117 54 -142 24 -20 21 4 -5 40 -34 48 -39 148 -6 121 6 -5 25 -12 40 -14 36 -7 45 12 20 47 -14 20 -24 24 -46 20 l-29 -5 38 68 c86 153 94 172 93 231 0 31 -4 65 -9 76 -5 12 -6 -4 -3 -40z"
       id="path4"
       style="fill:#ff3d7d;fill-opacity:1" />
    <path
       d="M220 2645 c0 -3 9 -23 20 -45 24 -47 27 -132 5 -182 -8 -19 -37 -73 -65 -119 -66 -108 -82 -161 -86 -288 -3 -102 -2 -105 27 -147 35 -51 50 -61 104 -65 30 -3 40 0 40 11 0 11 -11 15 -38 16 -46 1 -91 40 -108 92 -16 48 -6 185 17 243 27 66 126 229 136 223 4 -3 5 -16 2 -30 -4 -13 -2 -24 4 -24 6 0 8 -9 5 -20 -4 -15 0 -20 16 -20 11 0 21 5 21 11 0 7 8 17 17 24 26 19 3 64 -38 72 -28 5 -30 8 -22 32 15 49 9 134 -13 175 -18 35 -44 59 -44 41z"
       id="path6"
       style="fill:#ff3d7d;fill-opacity:1" />
    <path
       d="M228 2300 c-3 -8 8 -31 23 -50 47 -58 57 -102 51 -227 -4 -97 -2 -114 13 -129 16 -16 17 -9 13 132 -4 161 -10 187 -67 254 -20 25 -29 30 -33 20z"
       id="path8"
       style="fill:#ff3d7d;fill-opacity:1" />
    <path
       d="M180 1876 c0 -10 11 -14 35 -13 23 1 42 -6 59 -22 22 -21 24 -31 28 -154 5 -147 -3 -188 -52 -248 -18 -23 -25 -40 -20 -49 11 -18 76 73 89 127 6 23 11 102 11 175 0 142 -6 161 -57 187 -32 16 -93 14 -93 -3z"
       id="path10"
       style="fill:#ff3d7d;fill-opacity:1" />
    <path
       d="M103 1801 c-16 -26 -9 -214 11 -277 8 -27 38 -88 66 -133 28 -46 57 -100 65 -119 22 -51 19 -135 -6 -183 -24 -47 -17 -66 11 -29 38 51 48 129 25 206 -6 18 -1 22 24 27 41 8 64 53 38 72 -9 7 -17 17 -17 24 0 6 -10 11 -21 11 -16 0 -20 -5 -16 -20 3 -11 1 -20 -5 -20 -6 0 -8 -11 -4 -24 3 -14 2 -27 -2 -30 -10 -6 -109 157 -136 223 -23 57 -33 197 -17 242 13 37 2 58 -16 30z"
       id="path12"
       style="fill:#ff3d7d;fill-opacity:1" />
    <path
       d="M168 1343 c-60 -69 -65 -159 -12 -259 20 -38 54 -103 76 -144 37 -69 40 -80 35 -135 -3 -36 -2 -52 3 -40 5 11 9 45 9 76 1 59 -7 78 -93 231 l-38 68 29 -5 c22 -4 32 0 46 20 25 35 16 54 -20 47 -15 -2 -34 -9 -40 -14 -34 -27 -28 73 7 122 24 34 23 61 -2 33z"
       id="path14"
       style="fill:#ff3d7d;fill-opacity:1" />
    <path
       d="M150 955 c-34 -71 -30 -152 16 -300 53 -171 64 -215 64 -252 0 -39 -12 -48 -41 -31 -17 10 -23 10 -26 1 -3 -7 -11 -13 -19 -13 -22 0 -17 -30 8 -50 26 -21 36 -18 48 16 5 13 14 24 20 24 16 0 2 -92 -32 -199 -30 -95 -31 -137 -3 -148 17 -6 45 13 45 31 0 6 -5 3 -11 -6 -14 -24 -27 -22 -40 5 -8 18 -4 41 19 109 61 174 63 282 10 443 -11 36 -19 68 -16 71 3 3 19 6 34 8 25 3 29 8 32 37 3 32 1 35 -27 37 -24 2 -30 -2 -33 -20 -6 -40 -24 -29 -36 23 -18 78 -15 159 8 204 11 22 16 43 11 48 -5 5 -18 -12 -31 -38z"
       id="path16"
       style="fill:#ff3d7d;fill-opacity:1" />
  </g>
</svg>
