<?xml version="1.0" encoding="UTF-8" standalone="no"?>
<svg
   version="1.0"
   width="980.000000pt"
   height="980.000000pt"
   viewBox="0 0 980.000000 980.000000"
   preserveAspectRatio="xMidYMid meet"
   id="svg14"
   sodipodi:docname="phone.svg"
   inkscape:version="1.1.2 (0a00cf5339, 2022-02-04)"
   xmlns:inkscape="http://www.inkscape.org/namespaces/inkscape"
   xmlns:sodipodi="http://sodipodi.sourceforge.net/DTD/sodipodi-0.dtd"
   xmlns="http://www.w3.org/2000/svg"
   xmlns:svg="http://www.w3.org/2000/svg">
  <defs
     id="defs18" />
  <sodipodi:namedview
     id="namedview16"
     pagecolor="#ffffff"
     bordercolor="#666666"
     borderopacity="1.0"
     inkscape:pageshadow="2"
     inkscape:pageopacity="0.0"
     inkscape:pagecheckerboard="0"
     inkscape:document-units="pt"
     showgrid="false"
     inkscape:zoom="0.54566327"
     inkscape:cx="653.33333"
     inkscape:cy="652.41702"
     inkscape:window-width="1920"
     inkscape:window-height="1009"
     inkscape:window-x="0"
     inkscape:window-y="27"
     inkscape:window-maximized="1"
     inkscape:current-layer="svg14" />
  <g
     transform="translate(0.000000,980.000000) scale(0.100000,-0.100000)"
     fill="#000000"
     stroke="none"
     id="g12"
     style="fill:#ff417f;fill-opacity:1">
    <path
       d="M4560 9789 c-1035 -75 -1992 -461 -2800 -1127 -148 -122 -500 -474 -622 -622 -534 -647 -880 -1372 -1042 -2180 -259 -1291 18 -2648 761 -3727 277 -403 628 -778 1018 -1087 930 -737 2150 -1115 3337 -1036 1418 95 2699 777 3569 1900 526 679 870 1511 978 2365 122 968 -36 1920 -464 2790 -236 479 -512 868 -895 1259 -813 831 -1835 1325 -3000 1451 -174 19 -664 27 -840 14z m635 -489 c720 -53 1375 -259 1980 -625 1109 -670 1864 -1783 2074 -3058 46 -275 56 -405 56 -717 0 -312 -10 -442 -56 -717 -286 -1735 -1583 -3141 -3289 -3562 -794 -197 -1626 -169 -2405 80 -866 277 -1649 838 -2197 1575 -994 1339 -1146 3131 -391 4618 484 952 1315 1710 2308 2104 608 242 1285 348 1920 302z"
       id="path2"
       style="fill:#ff417f;fill-opacity:1" />
    <path
       d="M2593 7278 c-406 -405 -466 -470 -493 -525 -43 -88 -53 -168 -40 -331 29 -361 145 -736 360 -1160 197 -390 440 -746 790 -1158 172 -204 678 -710 884 -884 698 -594 1366 -963 1996 -1104 173 -38 350 -59 470 -54 96 4 112 7 180 41 71 34 99 60 532 494 502 503 497 496 442 551 -16 15 -92 61 -169 102 -77 40 -372 197 -655 348 -549 292 -563 299 -646 272 -29 -10 -87 -60 -224 -194 -102 -100 -201 -192 -220 -203 -58 -35 -146 -56 -203 -49 -142 19 -372 122 -582 260 -252 166 -454 334 -731 611 -365 364 -595 664 -745 970 -86 177 -122 295 -116 385 7 111 33 149 272 390 173 175 215 222 224 255 15 57 13 94 -8 140 -28 61 -736 1256 -759 1282 -15 16 -32 23 -58 23 -37 0 -53 -15 -501 -462z"
       id="path4"
       style="fill:#ff417f;fill-opacity:1" />
    <path
       d="M4730 7457 l0 -204 118 -12 c1074 -113 1992 -837 2347 -1853 73 -208 144 -547 145 -688 0 -25 4 -51 8 -58 7 -9 54 -12 203 -10 l194 3 -3 95 c-13 372 -143 832 -339 1200 -167 314 -357 564 -629 831 -425 415 -933 700 -1477 828 -155 36 -410 71 -523 71 l-44 0 0 -203z"
       id="path6"
       style="fill:#ff417f;fill-opacity:1" />
    <path
       d="M4730 6509 l0 -206 68 -7 c380 -39 805 -253 1087 -547 198 -207 343 -448 429 -715 34 -108 76 -308 76 -366 l0 -28 211 0 211 0 -6 28 c-3 15 -8 56 -11 92 -11 106 -54 297 -96 425 -48 143 -164 385 -246 510 -368 561 -990 946 -1640 1013 l-83 8 0 -207z"
       id="path8"
       style="fill:#ff417f;fill-opacity:1" />
    <path
       d="M4732 5593 l3 -175 70 -22 c263 -84 490 -277 619 -526 24 -47 54 -118 67 -157 l23 -73 172 0 172 0 -15 78 c-94 519 -516 941 -1036 1036 l-77 14 2 -175z"
       id="path10"
       style="fill:#ff417f;fill-opacity:1" />
  </g>
</svg>
