<?xml version="1.0" encoding="UTF-8" standalone="no"?>
<svg
   version="1.0"
   width="50.000000pt"
   height="50.000000pt"
   viewBox="0 0 50.000000 50.000000"
   preserveAspectRatio="xMidYMid meet"
   id="svg6"
   sodipodi:docname="header-logo.svg"
   inkscape:version="1.1.2 (0a00cf5339, 2022-02-04)"
   xmlns:inkscape="http://www.inkscape.org/namespaces/inkscape"
   xmlns:sodipodi="http://sodipodi.sourceforge.net/DTD/sodipodi-0.dtd"
   xmlns="http://www.w3.org/2000/svg"
   xmlns:svg="http://www.w3.org/2000/svg">
  <defs
     id="defs10" />
  <sodipodi:namedview
     id="namedview8"
     pagecolor="#ffffff"
     bordercolor="#666666"
     borderopacity="1.0"
     inkscape:pageshadow="2"
     inkscape:pageopacity="0.0"
     inkscape:pagecheckerboard="0"
     inkscape:document-units="pt"
     showgrid="false"
     inkscape:zoom="1.8906268"
     inkscape:cx="79.074307"
     inkscape:cy="58.181764"
     inkscape:window-width="1920"
     inkscape:window-height="1009"
     inkscape:window-x="0"
     inkscape:window-y="27"
     inkscape:window-maximized="1"
     inkscape:current-layer="svg6" />
  <g
     transform="translate(0.000000,50.000000) scale(0.100000,-0.100000)"
     fill="#000000"
     stroke="none"
     id="g4"
     style="fill:#f84e8f;fill-opacity:1">
    <path
       d="M275 490 c-11 -4 -32 -5 -48 -3 -31 6 -114 -32 -122 -57 -3 -8 -25 -24 -48 -35 -44 -21 -46 -28 -31 -87 4 -19 1 -32 -10 -43 -9 -9 -16 -29 -16 -44 0 -53 96 -171 139 -171 10 0 30 -9 45 -21 31 -25 89 -34 143 -24 27 5 52 21 89 60 28 29 56 54 63 56 16 6 22 163 8 204 -14 41 -82 140 -109 159 -24 17 -70 20 -103 6z m117 -33 c18 -18 48 -62 66 -98 28 -56 31 -68 22 -98 -5 -19 -7 -53 -4 -75 5 -40 5 -40 -16 14 -12 30 -24 73 -27 95 -6 50 -17 62 -39 44 -15 -12 -16 -11 -10 18 6 26 3 35 -20 57 -16 14 -25 28 -21 32 3 4 2 15 -4 25 -17 32 16 23 53 -14z m-64 -1 c6 -29 -13 -41 -39 -22 -37 25 -112 -4 -130 -51 -5 -13 -15 -23 -23 -23 -16 0 -29 41 -20 64 8 20 69 40 100 32 16 -4 30 -1 41 9 21 21 67 16 71 -9z m-28 -46 c0 -15 -5 -12 -26 11 -19 22 -19 22 4 10 12 -6 22 -16 22 -21z m-56 1 c3 -5 -3 -11 -15 -14 -16 -4 -18 -3 -8 9 13 16 16 17 23 5z m124 -14 c6 -7 7 -18 3 -25 -5 -9 -11 -5 -19 13 -12 26 -2 34 16 12z m-264 -14 c4 -11 1 -22 -8 -29 -9 -6 -16 -18 -16 -26 0 -26 31 -78 56 -95 18 -11 22 -19 14 -28 -8 -9 -7 -14 2 -18 9 -3 7 -9 -7 -21 -30 -23 -60 -20 -73 9 -18 39 -15 45 17 34 18 -7 36 -7 46 -2 13 8 9 13 -24 27 -31 15 -45 30 -64 70 -26 54 -23 70 18 86 29 12 32 12 39 -7z m201 -21 c-15 -16 -16 -15 -4 12 7 15 15 23 17 16 3 -7 -3 -19 -13 -28z m45 -6 c0 -22 -62 -63 -105 -70 -25 -3 -51 0 -70 8 l-30 14 26 1 c44 2 125 30 144 51 18 20 35 18 35 -4z m-170 -6 c0 -5 -2 -10 -4 -10 -3 0 -8 5 -11 10 -3 6 -1 10 4 10 6 0 11 -4 11 -10z m65 0 c3 -6 -6 -15 -20 -20 -41 -16 -52 -11 -26 10 26 22 37 25 46 10z m-125 -27 c0 -25 -1 -26 -16 -11 -9 9 -13 21 -10 27 13 20 26 11 26 -16z m255 -4 c14 -22 -7 -55 -55 -87 -40 -28 -54 -32 -75 -25 -14 4 -26 11 -28 15 -2 7 132 106 145 107 4 1 10 -4 13 -10z m45 -6 c0 -9 -7 -25 -17 -35 -14 -16 -14 -18 -1 -18 22 0 51 -77 44 -115 -3 -17 -19 -47 -36 -66 -55 -67 -135 -87 -198 -49 -34 21 -72 74 -72 100 1 22 52 78 58 62 7 -21 48 -13 118 22 55 29 68 40 70 62 2 15 5 33 8 40 8 20 26 17 26 -3z m-198 -43 c37 0 28 -15 -18 -30 -30 -10 -38 -9 -55 6 -28 25 -24 37 12 30 17 -3 45 -6 61 -6z m-147 -26 c27 -24 28 -26 7 -21 -14 3 -25 0 -28 -7 -9 -22 15 -66 40 -76 21 -8 56 -55 56 -75 0 -17 -33 0 -63 35 -55 60 -81 117 -68 146 13 30 19 30 56 -2z"
       id="path2"
       style="fill:#f84e8f;fill-opacity:1" />
  </g>
</svg>
