<?xml version="1.0" encoding="UTF-8" standalone="no"?>
<svg
   version="1.0"
   width="505.000000pt"
   height="235.000000pt"
   viewBox="0 0 505.000000 235.000000"
   preserveAspectRatio="xMidYMid meet"
   id="svg22"
   sodipodi:docname="logo.svg"
   inkscape:version="1.1.2 (0a00cf5339, 2022-02-04)"
   xmlns:inkscape="http://www.inkscape.org/namespaces/inkscape"
   xmlns:sodipodi="http://sodipodi.sourceforge.net/DTD/sodipodi-0.dtd"
   xmlns="http://www.w3.org/2000/svg"
   xmlns:svg="http://www.w3.org/2000/svg">
  <defs
     id="defs26" />
  <sodipodi:namedview
     id="namedview24"
     pagecolor="#ffffff"
     bordercolor="#666666"
     borderopacity="1.0"
     inkscape:pageshadow="2"
     inkscape:pageopacity="0.0"
     inkscape:pagecheckerboard="0"
     inkscape:document-units="pt"
     showgrid="false"
     inkscape:zoom="1.3147985"
     inkscape:cx="284.83451"
     inkscape:cy="158.19914"
     inkscape:window-width="1920"
     inkscape:window-height="1009"
     inkscape:window-x="0"
     inkscape:window-y="27"
     inkscape:window-maximized="1"
     inkscape:current-layer="svg22" />
  <g
     transform="matrix(0.1,0,0,-0.1,1.6956215,234.19147)"
     fill="#000000"
     stroke="none"
     id="g20"
     style="fill:#ff3c7b;fill-opacity:1">
    <path
       d="m 2412,1955 c -27,-20 -95,-119 -109,-160 -14,-41 -8,-198 8,-204 7,-2 35,-27 63,-56 55,-57 94,-72 164,-62 37,4 116,50 106,60 -11,11 28,68 52,77 25,10 49,54 40,76 -3,7 -14,10 -28,7 -21,-5 -20,-3 7,21 37,32 43,32 56,2 10,-20 7,-33 -17,-76 -15,-28 -43,-65 -61,-81 -39,-34 -29,-40 12,-7 38,30 85,106 85,139 0,15 -7,35 -16,44 -11,11 -14,24 -10,43 15,59 13,66 -31,87 -23,11 -45,27 -48,35 -8,23 -86,60 -125,59 -19,0 -55,2 -80,6 -34,5 -51,2 -68,-10 z m 39,-14 c -6,-10 -7,-21 -4,-25 4,-4 -5,-18 -21,-32 -23,-22 -26,-31 -20,-57 6,-29 5,-30 -10,-18 -22,18 -33,6 -39,-44 -3,-22 -15,-65 -27,-95 -21,-54 -21,-54 -16,-14 3,22 1,56 -4,75 -9,30 -6,42 22,98 35,69 89,131 114,131 11,0 12,-4 5,-19 z m 83,-6 c 10,-10 24,-13 40,-9 31,8 92,-12 100,-32 9,-23 -4,-64 -20,-64 -8,0 -18,10 -23,23 -18,47 -93,76 -129,51 -12,-8 -27,-12 -32,-9 -11,7 -13,38 -3,48 12,12 51,7 67,-8 z m -19,-45 c -10,-11 -21,-17 -24,-14 -3,3 3,12 13,20 28,20 32,17 11,-6 z m 54,-14 c 10,-12 8,-13 -8,-9 -12,3 -18,9 -15,14 7,12 10,11 23,-5 z m -131,-21 c -8,-18 -14,-22 -19,-13 -4,7 -3,18 3,25 18,22 28,14 16,-12 z m 52,-15 c 12,-23 12,-24 -3,-11 -10,7 -17,20 -17,29 0,18 3,16 20,-18 z m 262,1 c 15,-15 14,-20 -8,-67 -20,-40 -34,-55 -65,-70 -33,-14 -37,-19 -24,-27 10,-5 28,-5 46,2 32,11 35,5 17,-34 -13,-29 -43,-32 -73,-9 -14,12 -16,18 -7,21 9,4 10,9 2,18 -8,9 -4,17 14,28 25,17 56,69 56,95 0,8 -7,20 -16,26 -9,7 -12,18 -8,29 7,20 39,15 66,-12 z m -207,-47 c 27,-8 60,-14 74,-15 25,-1 25,-1 -7,-15 -43,-19 -99,-9 -141,25 -25,21 -32,33 -27,46 6,17 8,16 30,-4 13,-12 45,-29 71,-37 z m 46,16 c 26,-21 15,-26 -26,-10 -14,5 -23,14 -20,20 9,15 20,12 46,-10 z m 39,16 c 0,-3 -4,-8 -10,-11 -5,-3 -10,-1 -10,4 0,6 5,11 10,11 6,0 10,-2 10,-4 z m 66,-17 c 3,-6 -1,-18 -10,-27 -15,-15 -16,-14 -16,11 0,27 13,36 26,16 z m -303,-16 c 2,-5 7,-21 11,-38 7,-29 7,-29 -13,-11 -21,19 -29,56 -12,56 6,0 12,-3 14,-7 z m 112,-45 c 41,-28 72,-55 70,-59 -3,-4 -17,-10 -31,-13 -51,-13 -152,76 -129,113 9,16 8,16 90,-41 z m 155,-5 c 0,-10 -32,-43 -42,-43 -5,0 -25,8 -46,17 l -37,17 45,6 c 67,10 80,11 80,3 z m -196,-53 c 78,-41 121,-50 128,-28 6,16 57,-40 58,-62 0,-26 -38,-79 -72,-100 -63,-38 -143,-18 -198,49 -39,46 -46,86 -25,139 10,23 21,42 25,42 4,0 42,-18 84,-40 z"
       id="path2"
       style="fill:#ff3c7b;fill-opacity:1" />
    <path
       d="M 730,1130 V 530 h 1800 1800 v 600 600 h -664 -664 l -4,-25 -5,-25 h 643 644 V 1130 580 H 2530 780 v 550 550 l 643,2 642,3 3,23 3,22 H 1401 730 Z"
       id="path4"
       style="fill:#ff3c7b;fill-opacity:1" />
    <path
       d="m 1497,1263 c -4,-3 -7,-71 -7,-150 V 970 h 25 c 24,0 25,3 25,54 v 53 l 50,5 c 56,6 85,26 93,66 15,78 -29,122 -124,122 -31,0 -59,-3 -62,-7 z m 117,-43 c 21,-8 26,-16 26,-43 0,-43 -15,-57 -62,-57 h -38 v 55 c 0,52 2,55 24,55 14,0 36,-4 50,-10 z"
       id="path6"
       style="fill:#ff3c7b;fill-opacity:1" />
    <path
       d="m 1841,1254 c -30,-21 -60,-89 -61,-134 0,-56 38,-122 84,-144 36,-17 43,-18 80,-5 58,20 86,66 86,141 0,105 -43,158 -127,158 -21,0 -49,-7 -62,-16 z m 100,-34 c 25,-14 49,-62 49,-97 0,-15 -9,-47 -20,-70 -18,-40 -22,-43 -59,-43 -54,0 -76,32 -76,111 0,47 4,62 24,83 26,28 50,32 82,16 z"
       id="path8"
       style="fill:#ff3c7b;fill-opacity:1" />
    <path
       d="m 2150,1250 c -19,-14 -22,-22 -13,-30 8,-9 20,-9 47,1 42,15 86,0 86,-30 0,-25 -18,-39 -60,-43 -41,-4 -49,-31 -10,-36 50,-6 80,-24 80,-47 0,-13 -7,-31 -16,-39 -20,-21 -82,-21 -105,0 -19,17 -39,12 -39,-10 0,-54 139,-66 184,-17 24,26 25,85 2,110 -14,15 -15,24 -7,40 32,59 -9,121 -81,121 -27,0 -52,-8 -68,-20 z"
       id="path10"
       style="fill:#ff3c7b;fill-opacity:1" />
    <path
       d="m 2496,1258 c -9,-28 -89,-264 -93,-275 -3,-8 4,-13 20,-13 21,0 26,7 36,45 l 11,45 h 49 48 l 13,-45 c 11,-38 17,-45 37,-45 19,0 23,4 19,18 -70,218 -94,277 -114,280 -12,2 -24,-3 -26,-10 z m 45,-108 c 8,-28 13,-52 11,-55 -3,-3 -21,-5 -39,-5 -24,0 -33,4 -29,13 2,6 10,31 17,55 6,23 14,42 18,42 3,0 13,-23 22,-50 z"
       id="path12"
       style="fill:#ff3c7b;fill-opacity:1" />
    <path
       d="m 2791,1248 c -4,-13 -14,-61 -20,-107 -14,-97 -26,-127 -52,-134 -22,-6 -25,-35 -5,-43 19,-7 53,11 66,36 8,14 50,205 50,226 0,2 16,4 35,4 h 35 v -130 c 0,-123 1,-130 20,-130 19,0 20,7 20,150 v 150 h -70 c -64,0 -71,-2 -79,-22 z"
       id="path14"
       style="fill:#ff3c7b;fill-opacity:1" />
    <path
       d="m 3080,1120 c 0,-151 0,-151 22,-148 17,2 38,31 85,113 l 63,110 v -112 c 0,-107 1,-113 20,-113 20,0 20,5 18,148 -3,139 -4,147 -23,150 -20,3 -50,-43 -121,-181 l -19,-38 -5,108 c -4,92 -8,108 -22,111 -17,3 -18,-9 -18,-148 z"
       id="path16"
       style="fill:#ff3c7b;fill-opacity:1" />
    <path
       d="m 3453,1260 c -49,-20 -59,-104 -17,-147 l 25,-25 -30,-50 c -37,-59 -38,-70 -9,-66 14,2 33,22 55,61 27,45 39,57 58,57 24,0 25,-3 25,-60 0,-53 2,-60 20,-60 19,0 20,7 20,150 v 150 l -62,-1 c -35,0 -73,-4 -85,-9 z m 107,-80 v -50 h -39 c -42,0 -71,20 -71,48 0,35 23,50 78,51 32,1 32,1 32,-49 z"
       id="path18"
       style="fill:#ff3c7b;fill-opacity:1" />
  </g>
  <path
     style="fill:none;stroke:#ff3c7b;stroke-width:0.935923px;stroke-linecap:butt;stroke-linejoin:miter;stroke-opacity:1"
     d="m 265.61797,80.881741 c 0,0 3.58746,0.01718 3.88999,-0.4555"
     id="path1530" />
</svg>
