<?xml version="1.0" standalone="no"?>
<!DOCTYPE svg PUBLIC "-//W3C//DTD SVG 1.1//EN" "http://www.w3.org/Graphics/SVG/1.1/DTD/svg11.dtd" >
<svg xmlns="http://www.w3.org/2000/svg" xmlns:xlink="http://www.w3.org/1999/xlink" version="1.1">
<metadata>
Created by FontForge 20170731 at Tue May 31 19:32:13 2016
 By Aleksey,,,
(URW)++,Copyright 2014 by (URW)++ Design &#38; Development
</metadata>
<defs>
<font id="Z003-MediumItalic" horiz-adv-x="2048" >
  <font-face 
    font-family="Z003"
    font-weight="400"
    font-style="italic"
    font-stretch="normal"
    units-per-em="2048"
    panose-1="0 0 0 0 0 0 0 0 0 0"
    ascent="1538"
    descent="-510"
    x-height="841"
    cap-height="1324"
    bbox="-297 -615 2352 1940"
    underline-thickness="102"
    underline-position="-399"
    slope="-14"
    unicode-range="U+0020-FB04"
  />
<missing-glyph horiz-adv-x="451" 
d="M45 0v1173h361v-1173h-361zM361 45v1083h-271v-1083h271z" />
    <glyph glyph-name=".notdef" horiz-adv-x="451" 
d="M45 0v1173h361v-1173h-361zM361 45v1083h-271v-1083h271z" />
    <glyph glyph-name="glyph1" horiz-adv-x="0" 
 />
    <glyph glyph-name="glyph2" horiz-adv-x="451" 
 />
    <glyph glyph-name="space" unicode=" " horiz-adv-x="451" 
 />
    <glyph glyph-name="exclam" unicode="!" horiz-adv-x="573" 
d="M223 140l151 121q38 -63 97 -151q-66 -66 -151 -128q-63 76 -97 158zM330 318l35 145q114 468 164 653l54 26q83 39 127 60q-46 -142 -169 -516q-65 -201 -99 -299q-70 -45 -112 -69z" />
    <glyph glyph-name="quotedbl" unicode="&#x22;" horiz-adv-x="451" 
d="M348 831l99 379h83l-123 -356zM500 831l98 379h84l-123 -356z" />
    <glyph glyph-name="numbersign" unicode="#" horiz-adv-x="901" 
d="M268 -2q73 199 130 374l-269 -23q54 82 96 138h215q12 36 38 113q28 81 41 123l-270 -20q94 123 98 129l209 3q17 48 44 132q9 31 51 156l139 53q-29 -81 -59 -176q-28 -86 -54 -161l218 5q11 32 16 48q35 99 76 231l141 53l-24 -72l-34 -98l-35 -107l-19 -55h205
l-53 -68l-181 -14q-20 -71 -43 -143q-25 -75 -41 -132h215l-53 -66l-187 -14q-52 -156 -97 -326l-174 -83q49 143 65 191q44 130 73 209l-212 -17q-16 -48 -48 -149q-29 -93 -45 -151zM565 487h210l43 129q6 19 46 136l-220 -18q-15 -43 -43 -129q-26 -80 -36 -118z" />
    <glyph glyph-name="dollar" unicode="$" horiz-adv-x="901" 
d="M123 11l96 126q93 -46 200 -53l17 70l39 163q40 160 55 222q-73 59 -103 88q-67 68 -67 153q0 120 91 230.5t227 156.5l11 58q17 91 24 130l86 28q-35 -134 -50 -200q31 3 51 3q84 0 144 -74l-85 -106q-60 82 -132 90q-57 -244 -103 -414q110 -71 151.5 -125.5
t41.5 -126.5q0 -124 -99 -247t-254 -192q-13 -56 -38 -176l-17 -79l-85 -31q20 74 53 209l15 61q-45 -4 -68 -4q-90 0 -201 40zM486 87q86 24 135 70q79 76 79 175q0 50 -22 82.5t-94 87.5q-15 -63 -48 -199q-19 -78 -50 -216zM573 713l91 384q-78 -23 -114 -56
q-73 -67 -73 -158q0 -97 96 -170z" />
    <glyph glyph-name="percent" unicode="%" horiz-adv-x="1393" 
d="M850 1051q1 -9 1 -29q0 -115 -23.5 -208.5t-75.5 -184.5q-54 -93 -136 -134q-62 -30 -124 -30q-160 0 -160 223q0 96 30.5 194t83.5 171q47 64 121 103.5t148 39.5q88 0 123 -82q50 -4 84 -4q139 0 207 22q40 13 82 64q46 -10 87 -14q-145 -217 -368.5 -580.5
t-364.5 -610.5q-36 6 -92 9q216 333 424 673l240 393q-100 -20 -213 -20q-38 0 -74 5zM645 1130q-97 0 -152 -164q-44 -133 -44 -266q0 -79 27 -128q28 -52 76 -52q70 0 120 120q66 161 66 338q0 72 -24.5 112t-68.5 40zM1293 715q143 0 143 -180q0 -92 -29 -200.5
t-74 -184.5q-54 -93 -137 -134q-61 -30 -124 -30q-161 0 -161 223q0 96 31 194t84 170q46 63 120 102.5t147 39.5zM1225 649q-98 0 -152 -163q-45 -133 -45 -265q0 -79 28 -129q28 -51 76 -51q70 0 120 120q67 159 67 332q0 156 -94 156z" />
    <glyph glyph-name="ampersand" unicode="&#x26;" horiz-adv-x="1597" 
d="M1713 1022l38 -45q-57 -234 -124 -297q-19 -19 -55.5 -24.5t-154.5 -8.5q-46 -166 -86 -243.5t-124 -165.5q-262 -273 -594 -273q-181 0 -280 79q-85 69 -85 196q0 166 100 351q30 56 73 100t119 96q109 75 183 75q96 0 131 -110q73 42 107 73q61 56 61 133q0 38 -24 97
l145 85q37 -47 37 -94q0 -118 -157 -240q-74 -59 -352 -229q-161 -102 -191 -125q-74 -57 -74 -138q0 -51 26 -101.5t67 -80.5q85 -61 227 -61q151 0 282 74q104 60 165.5 175t103.5 327q-35 2 -61 2q-142 0 -218 -123q-41 -66 -84 -198l-48 13q73 244 129 338
q33 55 76.5 76t122.5 21l98 -1q7 0 32 1q66 38 131 69l-17 -69q130 6 157 13.5t47 41.5q36 59 71 191zM410 488l304 176q-21 102 -90 102q-77 0 -149 -111q-32 -50 -65 -167z" />
    <glyph glyph-name="quotesingle" unicode="'" horiz-adv-x="328" 
d="M348 831l99 379h83l-123 -356z" />
    <glyph glyph-name="parenleft" unicode="(" horiz-adv-x="532" 
d="M313 -339q-42 95 -59 170.5t-17 172.5q0 277 88 578q142 486 463 785l20 1q12 -6 35 -20q-119 -113 -189 -218q-148 -226 -223 -524q-59 -237 -59 -472q0 -128 15 -222.5t55 -215.5q-44 -17 -129 -35z" />
    <glyph glyph-name="parenright" unicode=")" horiz-adv-x="451" 
d="M567 1367q74 -178 74 -344q0 -223 -58.5 -465t-161.5 -447q-73 -147 -148 -249t-183 -201h-20q-3 1 -35 19q118 111 188 218q149 228 223 523q60 239 60 477q0 126 -15 219t-54 215q46 17 130 35z" />
    <glyph glyph-name="asterisk" unicode="*" horiz-adv-x="860" 
d="M451 964l214 100l16 43l-143 127l66 62l124 -139l18 7l52 222h88l-72 -221l14 -14l193 102l28 -68l-210 -96l-8 -25l152 -138l-68 -60l-125 143l-22 -8l-55 -229h-90l79 231l-10 14l-202 -114z" />
    <glyph glyph-name="plus" unicode="+" horiz-adv-x="1065" 
d="M687 393v-364h-111v364h-365v110h365v365h111v-365h364v-110h-364z" />
    <glyph glyph-name="comma" unicode="," horiz-adv-x="451" 
d="M62 -178q78 72 115 121t63 113q41 100 54 252q71 23 147 46q-33 -212 -87.5 -305t-237.5 -250z" />
    <glyph glyph-name="hyphen" unicode="-" horiz-adv-x="573" 
d="M235 355q49 77 98 129q65 2 95 2l186 -2q-50 -60 -92 -129q-65 4 -88 4z" />
    <glyph glyph-name="period" unicode="." horiz-adv-x="451" 
d="M219 140l151 121q37 -61 97 -151q-64 -63 -151 -128q-63 77 -97 158z" />
    <glyph glyph-name="slash" unicode="/" horiz-adv-x="696" 
d="M-12 -342q118 183 475 790q423 719 544 942l89 -8q-84 -128 -122.5 -192.5t-338.5 -577.5l-237 -410l-234 -404l-84 -147q-25 3 -92 7z" />
    <glyph glyph-name="zero" unicode="0" horiz-adv-x="901" 
d="M779 1179q223 0 223 -327q0 -131 -39.5 -293t-100.5 -280q-82 -157 -213 -232q-107 -61 -219 -61q-237 0 -237 335q0 164 62 362q87 275 253 395q139 101 271 101zM679 1093q-144 0 -228 -275q-32 -101 -56 -246t-24 -231q0 -122 44 -200.5t113 -78.5q108 0 188 194
q49 119 78.5 264.5t29.5 268.5q0 147 -37.5 225.5t-107.5 78.5z" />
    <glyph glyph-name="one" unicode="1" horiz-adv-x="901" 
d="M168 0l58 56q35 5 109 13q99 12 113 22.5t31 83.5l194 837q-44 -16 -118 -46q-52 -21 -111 -41l-61 31q207 92 235.5 106t246.5 129q-87 -319 -169 -704q-48 -223 -59 -262q-13 -51 -13 -85q0 -50 53 -62q81 -17 212 -22l-49 -56h-84l-236 2l-222 -1z" />
    <glyph glyph-name="two" unicode="2" horiz-adv-x="901" 
d="M96 25q78 98 128 149t267 256q119 112 169.5 166t82.5 106q53 84 53 187q0 87 -46.5 143.5t-119.5 56.5q-77 0 -123.5 -50.5t-46.5 -134.5q0 -49 26 -122l-147 17q-6 28 -6 49q0 126 112 215q135 108 297 108q97 0 154.5 -58.5t57.5 -156.5q0 -126 -85 -249
q-60 -59 -147 -139q-158 -145 -387 -362q194 -23 365 -59q29 -6 43 -6q39 0 66.5 23t105.5 120l29 37l16 -46q-23 -38 -90 -136q-62 -94 -91 -135q-26 -10 -46 -10q-32 0 -232 40q-129 27 -153 33q-50 11 -80 11q-38 0 -67.5 -20.5t-96.5 -92.5z" />
    <glyph glyph-name="three" unicode="3" horiz-adv-x="901" 
d="M74 53l94 105q113 -51 161 -65.5t105 -14.5q139 0 226 102q92 108 92 243q0 91 -49 144q-47 51 -123 51q-32 0 -58.5 -8t-152.5 -55l6 53q177 68 268 131q135 94 135 201q0 52 -32.5 86t-81.5 34q-76 0 -209 -85l2 51q40 27 59 41q85 59 144 92q67 18 105 18
q76 0 123.5 -41t47.5 -107q0 -87 -76 -181l-47 -35q-74 -55 -112 -84q91 -15 133 -43q76 -52 76 -154q0 -198 -191 -372q-188 -172 -403 -172q-124 0 -242 65z" />
    <glyph glyph-name="four" unicode="4" horiz-adv-x="901" 
d="M498 -29l86 340q-52 -1 -73 -1l-149 3q-156 2 -221 5q32 71 48 94t152 192l447 524q24 13 78 39q40 21 66 30q-31 -108 -151 -652l-29 -128q62 -2 93 -2q23 0 76 2l-76 -107h-31h-51h-37q-34 -155 -34 -210q0 -37 22 -75l-3 -15q-78 -23 -170 -62q-24 6 -43 23zM610 417
q43 188 103 438l19 78l15 65q-377 -453 -462 -572z" />
    <glyph glyph-name="five" unicode="5" horiz-adv-x="901" 
d="M137 20l100 120q105 -50 195 -50q137 0 221 86q43 44 68.5 110t25.5 132q0 92 -62 153q-60 60 -150 60q-74 0 -168 -52l-19 20q161 405 212 565q143 -17 247 -17q108 0 176 31.5t174 131.5l-19 -75q-62 -72 -142 -154q-48 -49 -99 -65.5t-152 -16.5q-66 0 -147 8
q-15 -36 -53 -127q-15 -37 -63 -139q74 17 127 17q137 0 214 -69q82 -74 82 -196q0 -182 -197 -348q-190 -161 -370 -161q-101 0 -201 36z" />
    <glyph glyph-name="six" unicode="6" horiz-adv-x="901" 
d="M1090 1169l-89 -115q-77 58 -155 58q-95 0 -197 -74q-203 -150 -281 -535l184 110q75 30 144 30q105 0 171 -64q72 -70 72 -182q0 -164 -153 -286q-160 -128 -348 -128q-125 0 -187 88q-56 80 -56 210q0 186 97 394q93 199 243 338q199 185 419 185q65 0 136 -29z
M360 433q-7 -54 -7 -91q0 -104 37 -177q53 -102 168 -102q90 0 155 75q68 77 68 176q0 87 -49 147q-53 65 -141 65q-100 0 -231 -93z" />
    <glyph glyph-name="seven" unicode="7" horiz-adv-x="901" 
d="M347 -37q-9 73 -9 116q0 49 14 104q85 153 182.5 288.5t342.5 438.5l79 97q-251 -18 -400 -18q-70 0 -156 6l-7 12q18 56 88 244h31q7 -87 34 -104q25 -17 201 -17q211 0 361 10q-69 -105 -162 -228q-261 -342 -331 -460q-55 -92 -77 -157.5t-22 -139.5q0 -50 15 -134z
" />
    <glyph glyph-name="eight" unicode="8" horiz-adv-x="901" 
d="M514 610q-100 117 -100 221q0 124 106 218q64 57 147.5 89.5t163.5 32.5t130.5 -44.5t50.5 -114.5q0 -54 -23.5 -102t-83.5 -116q-120 -80 -208 -129q30 -25 45 -37q97 -76 119 -109q37 -56 37 -116q0 -87 -46.5 -169.5t-126.5 -136.5q-76 -52 -174 -85t-176 -33
q-91 0 -150 49q-71 58 -71 160q0 80 32 149.5t101 139.5q148 84 227 133zM556 573q-119 -64 -171.5 -139t-52.5 -181q0 -91 41.5 -144.5t111.5 -53.5q89 0 161.5 80t72.5 179q0 69 -25.5 109.5t-137.5 149.5zM656 699q88 46 138 111q60 79 60 165q0 59 -29 94.5t-77 35.5
q-73 0 -124 -63q-52 -63 -52 -150q0 -103 84 -193z" />
    <glyph glyph-name="nine" unicode="9" horiz-adv-x="901" 
d="M86 31l98 108q126 -66 211 -66q112 0 210 92q81 75 128 182.5t79 290.5q-155 -93 -211 -118t-111 -25q-94 0 -158 57q-78 70 -78 192q0 176 179 309q78 59 167 92.5t166 33.5q103 0 160 -80.5t57 -226.5q0 -142 -48.5 -306.5t-122.5 -270.5q-116 -169 -308 -259
q-114 -53 -221 -53q-97 0 -197 48zM819 715q6 67 6 104q0 115 -47 186q-51 78 -147 78q-97 0 -158 -73t-61 -188q0 -86 42 -142q52 -69 130 -69q106 0 235 104z" />
    <glyph glyph-name="colon" unicode=":" horiz-adv-x="532" 
d="M591 679q-19 -15 -151 -121q-17 26 -26 40q-10 15 -77 111q72 68 157 128q64 -78 97 -158zM200 140l151 121q40 -61 103 -151q-68 -65 -157 -128q-64 77 -97 158z" />
    <glyph glyph-name="semicolon" unicode=";" horiz-adv-x="491" 
d="M567 679q-30 -22 -151 -121q-38 62 -97 151q69 69 151 128q63 -77 97 -158zM59 -178q78 72 115 121t63 113q41 100 54 252q76 24 147 46q-34 -212 -88.5 -305t-236.5 -250z" />
    <glyph glyph-name="less" unicode="&#x3c;" horiz-adv-x="1065" 
d="M1015 236l-34 -138l-777 399l27 110l976 399l-34 -138l-762 -317z" />
    <glyph glyph-name="equal" unicode="=" horiz-adv-x="1065" 
d="M1061 332v-111h-840v111h840zM1061 676v-111h-840v111h840z" />
    <glyph glyph-name="greater" unicode="&#x3e;" horiz-adv-x="1065" 
d="M182 236l762 315l-604 317l34 138l777 -399l-28 -110l-975 -399z" />
    <glyph glyph-name="question" unicode="?" horiz-adv-x="778" 
d="M266 140q25 19 151 121q45 -73 97 -151q-67 -66 -151 -128q-62 75 -97 158zM379 335q14 165 34 330l37 30q57 -12 94 -12q139 0 224 99q82 96 82 208q0 61 -31.5 98.5t-82.5 37.5q-66 0 -125 -45t-106 -132q-24 68 -43 125q70 64 137 89q80 29 178 29q117 0 182 -55
q59 -50 59 -136q0 -100 -53.5 -192.5t-142.5 -143.5q-57 -33 -104.5 -45.5t-154.5 -21.5q-38 -4 -55.5 -20.5t-32.5 -64.5q-19 -59 -26 -154z" />
    <glyph glyph-name="at" unicode="@" horiz-adv-x="1433" 
d="M1159 113l22 -41q-180 -73 -331.5 -104t-326.5 -31q-164 0 -229 52q-85 68 -85 220q0 195 74 420q111 337 361 467q220 115 536 115q167 0 256 -37q59 -24 92 -73q39 -59 39 -138q0 -119 -55.5 -261t-150.5 -268q-64 -85 -189 -163.5t-195 -78.5q-33 0 -33 38
q0 37 20 165q-173 -128 -235 -166.5t-93 -38.5q-25 0 -42 16q-16 16 -27.5 54t-11.5 77q0 144 62 324q32 91 62 128.5t125 105.5q76 53 112 66.5t105 13.5q114 0 231 -28q-23 -23 -59 -65q-102 -430 -102 -498q0 -45 34 -45q121 0 211 211q96 226 96 372q0 224 -281 224
q-234 0 -418 -76q-159 -67 -249 -219q-62 -105 -100.5 -265.5t-38.5 -312.5q0 -132 63 -194q71 -71 201 -71t273.5 27.5t276.5 77.5zM977 468q49 230 93 397q-102 24 -162 24q-45 0 -79 -33.5t-66 -108.5q-71 -167 -71 -319q0 -101 50 -101q49 0 235 141z" />
    <glyph glyph-name="A" unicode="A" horiz-adv-x="1270" 
d="M47 18l78 143q45 -14 89 -14q72 0 124.5 24t114.5 85q104 101 273 319l355 458q-80 6 -219 21q-40 4 -76 4q-118 0 -179 -51q-59 -48 -59 -134q0 -64 45 -191l-152 -83q-30 79 -30 141q0 116 79 220q81 106 178 166t187 60q59 0 187 -21q88 -15 116 -15q33 0 48 9t61 57
l29 -21q-48 -243 -96.5 -587t-48.5 -442q0 -53 22 -72.5t82 -19.5q24 0 152 10l-33 -49q-50 -8 -189 -34q-152 -28 -165 -28q-20 0 -33.5 13t-13.5 32q0 33 10 87q5 25 12 84q8 57 27 184q-143 9 -363 9q-202 -232 -300.5 -307t-202.5 -75q-49 0 -109 18zM724 465h310
l84 518z" />
    <glyph glyph-name="B" unicode="B" horiz-adv-x="1229" 
d="M184 3l96 98q132 13 184 64q39 38 66 108t71 247l152 606q-181 -11 -294 -85q-78 -52 -112.5 -121t-34.5 -173q0 -45 21 -150l-164 -77q-15 78 -15 132q0 274 248 424q128 77 368 114l166 71l-17 -64q178 0 256 -24q140 -42 140 -171q0 -196 -305 -334q130 -13 187 -57
q81 -61 81 -160q0 -222 -275 -360q-103 -52 -190.5 -73.5t-192.5 -21.5q-34 0 -175 3q-53 1 -142 2q-64 0 -119 2zM474 109q237 -27 302 -27q157 0 240 96q38 43 61 105t23 121q0 95 -65.5 146.5t-185.5 51.5q-30 0 -78 -3l-20 -79q-25 -99 -45.5 -146t-60.5 -97
q-48 -58 -171 -168zM785 655q83 2 135 17t99 50q54 41 86 108.5t32 139.5q0 50 -21.5 91t-58.5 60q-34 17 -152 20z" />
    <glyph glyph-name="C" unicode="C" horiz-adv-x="1065" 
d="M1083 128l-15 -62q-134 -100 -288 -158t-288 -58q-157 0 -240 102q-72 89 -72 236q0 231 112 457q137 278 413 448q189 117 356 117q132 0 193 -75q35 -42 46 -130l-150 -129q-19 238 -198 238q-130 0 -264 -103q-181 -139 -274 -397q-66 -184 -66 -350q0 -136 66 -226
q69 -92 198 -92q204 0 471 182z" />
    <glyph glyph-name="D" unicode="D" horiz-adv-x="1433" 
d="M176 -2l98 96q91 10 131 22q98 28 160 178q20 48 64 222l152 611q-174 -17 -280 -92q-157 -110 -157 -324q0 -49 13 -115l-167 -76q-14 66 -14 115q0 260 258 426q150 96 384 135l146 62l-15 -59q271 -14 392 -67q213 -93 213 -308q0 -201 -102 -400q-76 -147 -207 -237
q-83 -57 -183.5 -103t-176.5 -61q-120 -25 -449 -25h-260zM933 1136l-111 -445q-72 -287 -115 -358q-46 -78 -216 -233l262 -7l32 -1q157 0 254 40q181 76 271 313q66 173 66 337q0 103 -42.5 183.5t-116.5 119.5q-85 44 -284 51z" />
    <glyph glyph-name="E" unicode="E" horiz-adv-x="1270" 
d="M742 629h366q-39 -30 -77 -60q-57 -2 -143 -8q-46 -3 -166 -10q-56 -207 -90 -267q-22 -38 -51.5 -70t-134.5 -130h534q147 0 184.5 15t37.5 74q0 26 -8 76l155 58q9 -31 9 -47q0 -65 -129 -181q-69 -62 -108 -78.5t-118 -16.5q-98 0 -338 8l-465 8l79 68q78 19 116 43
t65 70q29 50 88 277l22 83h-57q39 48 79 88l115 459q-173 -4 -258 -38q-135 -54 -135 -193q0 -76 26 -171l-148 -98q-36 95 -36 166q0 153 147 269q88 70 189.5 100.5t248.5 32.5l143 43l-10 -43l437 9q46 -19 57 -80l-135 -134q-37 89 -54 110q-28 37 -97 37l-224 -6z" />
    <glyph glyph-name="F" unicode="F" horiz-adv-x="1188" 
d="M894 600h323q-37 -38 -60 -50.5t-65 -18.5q-37 -5 -220 -15l-49 -197q-41 -168 -105 -253q-61 -82 -158 -160t-183 -114q-61 -25 -151 -25q-35 0 -103 5l80 134q94 -5 136 -5q87 0 137.5 20.5t84.5 68.5q48 68 105 297l54 219h-50l74 95l131 525q-61 6 -100 6
q-112 0 -198 -57q-113 -74 -113 -241q0 -81 41 -203l-172 -77q-26 91 -26 157q0 164 99 292q80 104 209 150.5t340 46.5l274 -2q86 0 147 16t125 56q-8 -31 -19 -59q-75 -46 -130 -93l-327 8z" />
    <glyph glyph-name="G" unicode="G" horiz-adv-x="1270" 
d="M1192 491l-80 -319q-44 -179 -81 -264t-102 -161q-110 -128 -235 -188q-89 -43 -203 -43q-55 0 -149 11l86 135q115 -19 221 -19q82 0 130.5 36t79.5 120q30 80 85 301q-137 -70 -229 -97.5t-189 -27.5q-141 0 -218 98q-66 83 -66 224q0 192 100 396q124 253 346 396
q188 121 415 121q117 0 178.5 -37t90.5 -125l-151 -170q-15 110 -49 162q-63 96 -196 96q-129 0 -252 -96q-151 -117 -232 -319q-72 -179 -72 -356q0 -141 66 -223.5t180 -82.5q71 0 154.5 38t148.5 100l74 294q-180 -2 -299 -12v16l125 64q296 0 460 -10l-94 -58h-43z" />
    <glyph glyph-name="H" unicode="H" horiz-adv-x="1393" 
d="M803 659h437q16 53 73 262q26 95 55 148t91 120q66 70 135.5 124t108.5 66q28 9 66 9q46 0 91 -14l-70 -112q-57 20 -108 20q-81 0 -123 -69q-18 -30 -37.5 -92t-118.5 -405q-98 -382 -114.5 -454t-16.5 -120q0 -54 66 -54q62 0 195 13l-38 -51l-55 -11
q-206 -38 -254 -52q-34 -10 -56 -10q-19 0 -32.5 13t-13.5 31q0 25 72 312q51 193 67 258q-167 -2 -442 -23q-51 -159 -76.5 -205.5t-106.5 -132.5q-171 -179 -271 -210q-62 -20 -158 -20q-46 0 -101 8l97 133q68 -4 108 -4q107 0 163.5 28t97.5 101t101 308l-53 3l73 78
l15 60q72 280 103 382q-161 0 -226 -27q-129 -55 -129 -232q0 -56 23 -140l-154 -52q-17 62 -17 104q0 96 38 169t121 136q83 61 191 90t259 29q39 0 119 -4l-80 -68q-14 -63 -56 -223q-40 -157 -59 -220z" />
    <glyph glyph-name="I" unicode="I" horiz-adv-x="778" 
d="M166 1l75 50l119 14q36 125 128 486q112 439 139 558l-184 13l72 50h73h84l244 1q16 0 69 -1l-72 -50l-119 -13q-190 -696 -263 -1044l190 -14l-73 -50h-83q-192 1 -233 1q-56 0 -166 -1z" />
    <glyph glyph-name="J" unicode="J" horiz-adv-x="819" 
d="M529 700l-156 -71q-19 65 -19 116q0 204 157 316q90 64 193.5 87t301.5 23l-67 -59l-189 -757q-34 -134 -52.5 -183.5t-51.5 -90.5q-37 -47 -126.5 -121.5t-183.5 -135.5q-113 -75 -244 -75q-41 0 -90 11l83 137q82 -21 136 -21q185 0 268 164q30 58 44 98.5t58 200.5
q32 116 47 169q-12 35 -48 58q40 41 82 77l112 450q-82 0 -123 -13q-149 -46 -149 -232q0 -59 17 -148z" />
    <glyph glyph-name="K" unicode="K" horiz-adv-x="1352" 
d="M1720 -98l23 -169q-95 -34 -182 -34q-228 0 -365 155q-102 115 -223 512q-62 204 -89 282q-54 -210 -116 -299q-72 -103 -232 -260h248q-104 -66 -146 -77.5t-178 -11.5h-280l90 89h77q68 0 107.5 14.5t78.5 52.5q73 74 122.5 218t172.5 644l20 79q-67 7 -99 7
q-292 0 -292 -221q0 -88 45 -195l-168 -71q-35 86 -35 153q0 228 238 343q137 66 380 66q70 0 189 -8q-23 -28 -43 -40t-64 -24l-107 -428q58 44 271 223q262 211 293 233q66 46 135 46q49 0 116 -27l-76 -150q-75 30 -121 30q-69 0 -163 -62t-332 -263q66 -178 116 -314
q78 -217 113 -304t79 -169q90 -168 203 -168q52 0 93 31.5t101 116.5z" />
    <glyph glyph-name="L" unicode="L" horiz-adv-x="1188" 
d="M1010 1060q-84 5 -120 5q-107 0 -155 -91q-17 -33 -83 -280q-76 -327 -104 -394q-18 -43 -41.5 -70.5t-131.5 -129.5h388q187 3 225 7q69 6 115.5 37t90.5 100q27 42 76 147l23 -40q-70 -167 -119 -264q-19 -39 -36 -56t-48 -28q-41 -15 -105 -15q-57 0 -403 15
q-230 10 -314 10q-72 0 -200 -5q36 45 71 82q42 -3 64 -3q70 0 112 35q46 37 67 93q32 85 58 210q60 285 100.5 393t116.5 185q60 62 126.5 109t107.5 57q51 13 109 13q39 0 89 -6z" />
    <glyph glyph-name="M" unicode="M" horiz-adv-x="1720" 
d="M213 142q117 -11 151 -11q97 0 148 55q43 48 99 236q85 285 169 627q-84 12 -147 12q-122 0 -192 -44q-87 -54 -87 -162q0 -80 67 -218l-156 -110q-48 106 -48 191q0 78 46.5 169.5t128.5 176.5q73 74 143.5 104t172.5 30q67 0 167 -12l63 50q26 -153 58 -429t48 -478
q46 65 283 411q302 421 329 453q58 73 196 143q73 36 133 36q34 0 82 -13l-84 -114q-37 7 -55 10q-43 9 -72 9q-28 0 -43 -13.5t-27 -49.5q-79 -235 -158 -558q-79 -325 -92.5 -386t-13.5 -104q0 -82 101 -82l163 11l-44 -51q-39 -6 -144 -21q-82 -11 -194 -33
q-21 -4 -37 -4q-21 0 -35.5 15.5t-14.5 37.5q0 45 27 120q165 604 216 818q-256 -363 -368.5 -536.5t-179.5 -309.5l-101 -79q-3 124 -12.5 239.5t-64.5 679.5q-80 -318 -133 -501q-37 -127 -63.5 -184t-76.5 -119q-67 -82 -150.5 -119t-203.5 -37q-32 0 -88 2z" />
    <glyph glyph-name="N" unicode="N" horiz-adv-x="1433" 
d="M181 142q73 -7 127 -7q67 0 103 12.5t65 46.5q106 122 270 828q-91 4 -156 4q-127 0 -193 -35q-92 -50 -92 -147q0 -67 67 -207l-143 -96q-51 106 -51 180q0 97 80 213q54 78 123.5 135t131.5 75q64 19 156 19q53 0 113 -7l71 65l36 -135q134 -500 184 -656t122 -297
q26 100 96 408q75 333 118 454t117 206q159 185 284 185q26 0 64 -4l-77 -137q-33 5 -54 5q-71 0 -112.5 -26.5t-73.5 -92.5q-49 -102 -91 -236.5t-107 -402.5q-64 -260 -105 -472q62 -117 124 -183q110 -116 227 -116q68 0 116 45.5t94 153.5l49 -183q-126 -71 -271 -71
q-360 0 -547 379q-96 194 -179 543q-23 95 -74 318q-97 -392 -133 -487q-70 -183 -181 -305q-61 -67 -123.5 -93t-160.5 -26q-40 0 -113 4z" />
    <glyph glyph-name="O" unicode="O" horiz-adv-x="1229" 
d="M998 1210q168 0 254 -107q83 -102 83 -291q0 -197 -71 -372q-90 -223 -335 -363q-182 -104 -368 -104q-171 0 -259.5 102t-88.5 299q0 222 88 406q106 221 348 340q183 90 349 90zM879 1130q-130 0 -242 -82q-128 -92 -198 -275q-58 -150 -58 -319q0 -181 72 -285
q79 -114 228 -114q133 0 247 89q130 100 193 306q46 149 46 299q0 171 -71 273q-74 108 -217 108z" />
    <glyph glyph-name="P" unicode="P" horiz-adv-x="1106" 
d="M160 86h294q130 462 254 1016q-102 -12 -163 -32.5t-113 -61.5q-57 -44 -89.5 -117t-32.5 -155q0 -61 29 -153l-153 -92q-34 87 -34 167q0 249 249 398q137 82 354 105l138 70l-13 -52q53 2 87 2q153 0 238 -35q54 -22 85 -67.5t31 -103.5q0 -114 -64.5 -214.5
t-175.5 -160.5q-179 -96 -373 -109q-22 -91 -49 -207q-19 -82 -47 -198q208 2 345 17l-4 -19q-127 -60 -221.5 -71t-511.5 -11h-144zM729 572q41 -9 73 -9q146 0 240 100q46 49 73.5 124t27.5 151q0 183 -198 183q-33 0 -80 -2z" />
    <glyph glyph-name="Q" unicode="Q" horiz-adv-x="1229" 
d="M1643 -59l100 -100q-220 -232 -441 -232q-110 0 -228 68q-64 37 -173 125t-209 183q-69 -12 -119 -12q-360 0 -360 409q0 216 94 407q104 211 338 327q189 94 373 94q145 0 231 -98q49 -56 70 -127.5t21 -181.5q0 -307 -166 -526q-56 -74 -124 -125t-198 -116
q394 -327 583 -327q84 0 138 60.5t70 171.5zM805 74q106 45 162 99q107 104 160 279q45 151 45 294q0 167 -68 269q-35 53 -94.5 83t-128.5 30q-148 0 -272 -107q-113 -98 -176 -271q-52 -144 -52 -304q0 -184 80 -292q70 -95 177 -95q32 0 55.5 10t66.5 43z" />
    <glyph glyph-name="R" unicode="R" horiz-adv-x="1229" 
d="M159 91q162 3 221 34q62 32 103 113.5t82 251.5l125 498l32 123q-102 -13 -151 -31q-92 -36 -141 -111.5t-49 -182.5q0 -62 23 -152l-172 -88q-29 97 -29 164q0 180 131 295.5t384 157.5l185 88l-16 -66q76 4 118 4q120 0 194 -38q96 -49 96 -159q0 -154 -151 -256
q-81 -54 -228 -102q127 -404 201 -583q126 -304 271 -304q61 0 107.5 38t96.5 129l100 -125q-87 -62 -150 -85t-149 -23q-240 0 -371 195q-63 94 -114 240.5t-115 418.5q-10 42 -20 55t-32 13q-41 -156 -62 -208.5t-67 -109.5q-60 -75 -180 -194l65 -1q136 -2 205 -3
l-151 -78q-125 -10 -353 -10q-18 0 -120 3zM753 650q142 16 222 64q66 40 104 108.5t38 146.5q0 83 -42.5 121t-135.5 38h-67z" />
    <glyph glyph-name="S" unicode="S" horiz-adv-x="942" 
d="M124 231q20 -120 74 -180q90 -101 234 -101q124 0 224 83q108 90 108 218q0 72 -35.5 124t-141.5 136q-87 68 -117 113q-44 67 -44 139q0 169 169 314q141 123 281 123q165 0 183 -168l-136 -96q-16 98 -45 133t-95 35q-91 0 -154 -73q-66 -77 -66 -175q0 -66 31.5 -109
t143.5 -130q114 -90 149 -136.5t35 -110.5q0 -132 -102 -263q-91 -116 -231.5 -184.5t-286.5 -68.5q-102 0 -175 34.5t-127 106.5l90 214z" />
    <glyph glyph-name="T" unicode="T" horiz-adv-x="1024" 
d="M327 -1l73 80q83 5 124.5 25.5t72.5 70.5q37 58 89 266l167 667q-138 10 -186 10q-161 0 -237 -35q-153 -72 -153 -251q0 -68 46 -187l-153 -101q-51 100 -51 196q0 179 150 303q184 153 474 153q75 0 403 -16q100 -5 129 -5q55 0 80.5 23t87.5 130l28 -30
q-37 -151 -62 -186t-98 -35q-40 0 -232 16l-79 6l-160 -641q-20 -79 -37 -119.5t-50 -84.5q-47 -65 -156 -159q64 -2 94 -2q182 0 332 19l-4 -17q-99 -52 -153 -67.5t-149 -20.5q-123 -7 -390 -8z" />
    <glyph glyph-name="U" unicode="U" horiz-adv-x="1515" 
d="M1593 1175q-108 -385 -177 -679t-69 -364q0 -37 17.5 -53t57.5 -16q66 0 149 8l-43 -51q-224 -48 -313 -48q-56 0 -56 46q0 20 15 101q-336 -146 -491 -146q-110 0 -170 76q-55 70 -55 174q0 141 78.5 327t255.5 465q-115 39 -191 39q-93 0 -156 -46q-81 -59 -81 -149
q0 -73 69 -204l-137 -110q-59 121 -59 199q0 109 93 228q81 105 167.5 152t198.5 47q48 0 188 -23q14 6 21 10q35 16 64 26l12 -17q-123 -166 -209 -349q-146 -312 -146 -516q0 -108 51.5 -171.5t139.5 -63.5q79 0 157 25.5t206 94.5q28 107 98 389q103 411 125 514
q-54 2 -94 2h-35l54 50q155 17 265 33z" />
    <glyph glyph-name="V" unicode="V" horiz-adv-x="1311" 
d="M543 -24q79 428 166 1117q-52 6 -87 6q-92 0 -161 -58q-90 -74 -90 -213q0 -73 34 -164l-154 -86q-38 87 -38 159q0 133 95 250q79 96 185.5 141t257.5 45q84 0 210 -14q-37 -30 -92 -56l-139 -939q277 269 378.5 375t183.5 212q187 242 187 415q0 52 -16 86t-56 68
q58 51 126 83q57 -5 105 -35q19 -50 19 -96q0 -170 -172 -403q-121 -163 -569 -624q-138 -143 -221 -237q-94 -23 -152 -32z" />
    <glyph glyph-name="W" unicode="W" horiz-adv-x="1802" 
d="M538 -35l29 169q125 752 152 945q-189 -1 -252 -24q-116 -42 -116 -174q0 -100 66 -201l-152 -96q-52 85 -52 185q0 158 132 271q70 59 147 84t206 29q46 2 301 4q-50 -46 -105 -65q-96 -477 -153 -863q136 187 320 460t285 438l119 46l-51 -989q332 388 440 597
q98 189 98 328q0 62 -17.5 106t-59.5 87q62 52 132 84q51 -15 82 -33q31 -59 31 -133q0 -154 -130 -374q-114 -194 -392 -534q-141 -174 -226 -305l-132 -42q37 422 45 943q-264 -400 -614 -902z" />
    <glyph glyph-name="X" unicode="X" horiz-adv-x="1147" 
d="M100 153q38 -4 62 -4q76 0 120 15.5t86 57.5q68 67 314 388q-34 184 -87 366q-15 52 -40 74.5t-70 22.5q-18 0 -157 -26l46 58q270 77 319 77q31 0 40 -45l73 -372q123 150 208 259q71 91 125.5 127t120.5 36q60 0 114 -43l-91 -144q-51 29 -92 29q-48 0 -95.5 -34
t-115.5 -117q-88 -106 -162 -193q13 -60 19 -91q70 -336 112 -433q37 -88 153 -88q32 0 140 12l-36 -48q-140 -27 -163 -31q-95 -15 -118 -22q-44 -11 -68 -11q-25 0 -38 25.5t-29 107.5l-87 422q-181 -231 -208 -267q-87 -113 -137.5 -163.5t-98.5 -73.5q-69 -32 -166 -32
q-33 0 -93 8z" />
    <glyph glyph-name="Y" unicode="Y" horiz-adv-x="1147" 
d="M135 -156q106 -9 150 -9q133 0 213.5 34.5t137.5 115.5q82 117 140 276q40 109 40 260q0 249 -82 403q-33 63 -91.5 100.5t-120.5 37.5q-95 0 -159.5 -74t-64.5 -183q0 -79 41 -205l-157 -99q-42 94 -42 187q0 128 100 257q87 113 218 180q106 54 205 54q71 0 132 -40.5
t94 -108.5q56 -118 56 -287q0 -85 -23 -226q185 387 291 537q72 102 134.5 146.5t133.5 44.5q44 0 82 -33l-58 -149q-59 24 -101 24q-48 0 -87.5 -27.5t-84.5 -91.5q-42 -60 -88 -146.5t-206 -408.5q-153 -308 -246.5 -454t-169.5 -196q-64 -42 -143.5 -58.5t-220.5 -16.5
q-47 0 -94 4z" />
    <glyph glyph-name="Z" unicode="Z" horiz-adv-x="1270" 
d="M1190 465l154 92q38 -97 38 -176q0 -53 -14 -86t-60 -88q-15 -19 -47 -60q-70 -90 -100 -119q-58 -55 -144 -55q-79 0 -497 44q-119 12 -202 12q-58 0 -99.5 -14.5t-91.5 -51.5v76q72 64 205 194l104 103l695 694q-120 -21 -238 -21q-95 0 -209 14q-32 4 -55 4
q-47 0 -78.5 -38t-138.5 -227l-35 51q88 200 134 294q25 50 41 64t49 14q19 0 173 -16q332 -31 362 -31q58 0 104.5 19t98.5 65l2 -59l-157 -160q-549 -554 -832 -847l66 10h39h35q73 0 274 -19q180 -16 291 -16q198 0 198 162q0 42 -8.5 64.5t-56.5 107.5z" />
    <glyph glyph-name="bracketleft" unicode="[" horiz-adv-x="491" 
d="M96 -337q94 342 222 830q156 563 230 870l53 -1l154 -1q18 0 72 2l-71 -52l-101 -12q-74 -255 -216 -806l-80 -306l-75 -303l-39 -159l170 -10l-71 -52h-23q-120 2 -139 2q-43 0 -86 -2z" />
    <glyph glyph-name="backslash" unicode="\" horiz-adv-x="983" 
d="M991 0h-118l-61 148l-184 445l-187 444l-62 149h119l61 -149l184 -444l186 -445z" />
    <glyph glyph-name="bracketright" unicode="]" horiz-adv-x="655" 
d="M780 1363q-106 -387 -222 -831q-122 -434 -148.5 -534.5t-81.5 -334.5h-52l-96 1h-51q-25 0 -82 -1l70 51l105 12q89 314 216 806l80 306q85 346 114 462l-174 10l71 53q22 0 121 -1h36q32 0 94 1z" />
    <glyph glyph-name="asciicircum" unicode="^" horiz-adv-x="1065" 
d="M966 915h-104l-162 351l-162 -351h-104l217 480h98z" />
    <glyph glyph-name="underscore" unicode="_" horiz-adv-x="1024" 
d="M-48 -195h1024v-102h-1024v102z" />
    <glyph glyph-name="grave" unicode="`" horiz-adv-x="451" 
d="M525 942q-114 244 -171 348q15 9 95 50q75 -208 126 -386q-21 -6 -50 -12z" />
    <glyph glyph-name="a" unicode="a" horiz-adv-x="860" 
d="M1007 267l-2 -60q-322 -234 -373 -234q-33 0 -33 42q0 40 31 184q-194 -140 -264 -183t-105 -43q-37 0 -60 45t-23 119q0 148 73 359q35 101 72 147.5t133 113.5q78 54 119 69q44 16 127 16q123 0 259 -30q-37 -40 -61 -74q-122 -463 -122 -551q0 -42 24 -42t205 122z
M648 282q13 55 53 227q3 13 57 213q-116 26 -175 26q-52 0 -89.5 -35.5t-74.5 -119.5q-83 -191 -83 -360q0 -102 54 -102q40 0 145 70z" />
    <glyph glyph-name="b" unicode="b" horiz-adv-x="860" 
d="M178 -26q43 169 190 817q40 173 59 234.5t45 97.5q21 29 112 105t155 118q61 40 125 40q36 0 90 -5l-84 -120h-30h-53q-71 0 -107.5 -24t-65.5 -91q-30 -68 -42 -111t-44 -194q-21 -104 -38 -175q151 109 214.5 142.5t115.5 33.5q55 0 87.5 -42.5t32.5 -113.5
q0 -91 -32.5 -210t-81.5 -207q-45 -83 -125 -134q-13 -9 -104 -60q-96 -60 -124.5 -72.5t-68.5 -12.5q-56 0 -141 30l-65 -55zM359 146q78 -39 137 -39q135 0 216 204q60 152 60 294q0 46 -18 72.5t-50 26.5q-67 0 -235 -121z" />
    <glyph glyph-name="c" unicode="c" horiz-adv-x="696" 
d="M784 261l-3 -67q-144 -106 -262 -163.5t-192 -57.5q-71 0 -110 49t-39 138q0 96 28.5 213.5t72.5 198.5q33 64 74 102t156 111q57 36 81 46t52 10q54 0 85.5 -38t31.5 -103q0 -8 -1 -23l-118 -70q-16 128 -88 128q-89 0 -153 -164q-63 -161 -63 -325q0 -67 24 -105
q31 -51 93 -51q95 0 331 171z" />
    <glyph glyph-name="d" unicode="d" horiz-adv-x="901" 
d="M1017 268l-7 -64q-129 -93 -243 -162t-139 -69q-44 0 -44 64q0 62 17 147q-294 -211 -344 -211q-29 0 -54 49.5t-25 107.5q0 107 55 279t108 231q60 68 166.5 134.5t154.5 66.5q24 0 84 -11q11 43 16 65q39 158 62 203.5t98 117.5q95 90 166 130t135 40q26 0 65 -7
l-72 -116q-60 17 -93 17q-56 0 -94 -39t-70 -132q-34 -95 -125 -489.5t-91 -445.5q0 -53 28 -53q19 0 93 46zM617 260l96 431q-57 54 -107 54q-156 0 -242 -309q-38 -134 -38 -236q0 -89 44 -89q33 0 247 149z" />
    <glyph glyph-name="e" unicode="e" horiz-adv-x="696" 
d="M778 280l-2 -59q-78 -81 -152 -133q-159 -115 -278 -115q-78 0 -123 52.5t-45 144.5q0 124 44.5 269.5t103.5 215.5q65 77 189 149q64 37 124 37q55 0 86 -30.5t31 -83.5q0 -70 -35 -125t-119 -119q-150 -113 -272 -190q-1 -74 10 -115q10 -40 39.5 -64t68.5 -24
q58 0 132.5 42.5t197.5 147.5zM336 366q161 105 216.5 167t55.5 138q0 38 -15.5 61t-40.5 23q-80 0 -149 -155q-48 -110 -67 -234z" />
    <glyph glyph-name="f" unicode="f" horiz-adv-x="655" 
d="M-111 -367q68 -10 108 -10q69 0 112 25t75 83q36 66 70.5 185t86.5 363q43 199 84 357q-56 -1 -76 -1l-194 1q27 15 40 23q50 26 76 43q22 -1 30 -1l101 4q10 0 40 -3q61 256 98 342t123 170q105 102 179 140t168 38q49 0 98 -12l-94 -110q-92 16 -137 16
q-55 0 -90.5 -30t-62.5 -101q-49 -126 -132 -453q71 2 119 2q50 0 130 -2l-85 -66q-30 2 -40 2l-105 -3q-11 0 -35 1q-22 -82 -121 -458q-36 -141 -86.5 -262.5t-98.5 -186.5q-41 -54 -108 -117t-111 -88q-50 -28 -154 -28q-45 0 -100 9q64 86 92 128z" />
    <glyph glyph-name="g" unicode="g" horiz-adv-x="819" 
d="M226 30q-46 63 -46 134q0 94 44.5 243t91.5 210q62 83 211 174q44 27 85.5 35.5t135.5 8.5l237 6q-50 -79 -63 -93.5t-41 -21.5l-69 -277l-101 -461q-33 -152 -60 -208.5t-92 -113.5q-199 -172 -472 -172q-120 0 -186 32q-61 30 -61 86q0 85 150 215q87 76 236 203z
M633 275q-423 -324 -524 -417t-101 -155q0 -103 206 -103q180 0 250 77q45 51 81 209zM652 349q57 228 83 276q16 29 115 102q-47 1 -67 1h-55q-46 -1 -64 -1q-125 -1 -167 -27q-35 -22 -60 -68t-52 -137q-47 -158 -47 -221q0 -66 51 -118l52 39q166 124 211 154z" />
    <glyph glyph-name="h" unicode="h" horiz-adv-x="901" 
d="M154 -18l197 845q48 204 77 267t109 133q112 99 174.5 130.5t145.5 31.5q40 0 85 -11l-87 -124q-92 18 -124 18q-83 0 -126 -83q-35 -66 -97 -316l-68 -274q374 243 440 243q42 0 42 -34q0 -14 -54 -213q-92 -335 -92 -396q0 -54 31 -54t230 117l-15 -59
q-185 -134 -372 -234q-32 53 -32 89q0 80 89 419q37 140 37 175q0 32 -24 32q-17 0 -153 -74l-148 -92l-119 -477z" />
    <glyph glyph-name="i" unicode="i" horiz-adv-x="491" 
d="M497 1011q-59 85 -79 143q49 34 141 108q8 -17 12 -26q19 -44 59 -114q-76 -57 -133 -111zM637 238l-9 -59q-47 -29 -174 -110q-150 -96 -197 -96q-23 0 -36.5 22.5t-13.5 59.5q0 39 12 90.5t83 318.5q38 141 38 174q0 36 -24 36q-21 0 -150 -70l5 58q267 180 323 180
q24 0 24 -21q0 -15 -76 -327q-67 -271 -67 -306q0 -57 36 -57q29 0 191 88z" />
    <glyph glyph-name="j" unicode="j" horiz-adv-x="451" 
d="M488 1011q-56 79 -78 143q50 35 141 108q7 -17 11 -26q12 -29 59 -114q-16 -12 -23 -18q-53 -40 -110 -93zM-272 -494l96 124q78 -9 112 -9q57 0 93.5 23t62.5 77q31 63 89.5 272.5t112.5 450.5q41 184 41 204q0 25 -24 25q-19 0 -74 -32q-32 -18 -73 -39l4 59l56 35
q155 97 200.5 121.5t68.5 24.5q30 0 30 -24q0 -28 -134 -557q-61 -243 -82 -310.5t-54 -128.5q-29 -51 -104.5 -134.5t-139.5 -132.5q-45 -35 -84 -48t-98 -13q-45 0 -99 12z" />
    <glyph glyph-name="k" unicode="k" horiz-adv-x="901" 
d="M178 -23l182 800q49 217 87 301q41 94 249 241q48 35 90 49t96 14q27 0 61 -6l-83 -119q-48 9 -73 9q-103 0 -159 -89q-26 -42 -49 -115.5t-74 -276.5l-78 -314l264 235q18 16 49 46q81 77 112 95.5t79 18.5q62 0 115 -40l-104 -157q-45 60 -92 60q-30 0 -56.5 -16
t-86.5 -70l-139 -124l60 -128q165 -348 199.5 -414t75.5 -115q91 -109 187 -109q64 0 112.5 35t97.5 118l41 -149q-89 -70 -222 -70q-83 0 -170 29.5t-154 80.5q-63 49 -111 125t-115 234q-67 159 -115 266l-47 -28l-79 -365q-30 -10 -46 -15q-63 -21 -104 -37z" />
    <glyph glyph-name="l" unicode="l" horiz-adv-x="491" 
d="M628 264v-45q-337 -246 -364 -246h-6h-12q-26 0 -47 39t-21 86q0 19 4 37l148 641q45 199 82 306q19 55 45.5 90t93.5 95q75 68 129 94.5t116 26.5q38 0 93 -12l-88 -108q-65 14 -101 14q-41 0 -66.5 -18t-43.5 -60q-36 -81 -162 -595q-84 -345 -84 -388v-18v-19
q0 -21 11 -37t26 -16q31 0 116 53q89 55 131 80z" />
    <glyph glyph-name="m" unicode="m" horiz-adv-x="1270" 
d="M188 -20q17 63 70 272q89 351 89 383q0 39 -30 39q-28 0 -151 -62l14 58q99 63 199.5 117.5t118.5 54.5q31 0 31 -29q0 -18 -44 -201q364 230 408 230q27 0 27 -23l-41 -191q358 214 413 214q33 0 33 -31q0 -37 -78 -307q-68 -236 -68 -307q0 -54 36 -54q22 0 47.5 13.5
t156.5 94.5l-1 -48q-169 -133 -348 -223q-28 20 -38 39.5t-10 51.5q0 63 42 227q73 285 73 347q0 39 -26 39q-18 0 -93 -40.5t-160 -96.5l-128 -512l-154 -55q62 203 112.5 403t50.5 246q0 45 -26 45q-42 0 -248 -141l-131 -498z" />
    <glyph glyph-name="n" unicode="n" horiz-adv-x="942" 
d="M182 -20q24 89 76 276q90 325 90 399q0 29 -24 29q-21 0 -158 -61l13 52q281 167 321 167q26 0 26 -26q0 -13 -17 -87t-33 -126l48 29l112 70q167 102 203.5 121t68.5 19q40 0 40 -34q0 -13 -51 -196q-68 -246 -83.5 -310t-15.5 -106q0 -55 32 -55q23 0 189 95l46 27
l-15 -59q-214 -157 -378 -238q-31 54 -31 93q0 45 53 256q76 303 76 343q0 26 -21 26q-31 0 -241 -131l-52 -32l-121 -483z" />
    <glyph glyph-name="o" unicode="o" horiz-adv-x="819" 
d="M734 841q86 0 139 -57q46 -50 46 -131q0 -162 -91 -359q-37 -79 -87.5 -129.5t-152.5 -108.5q-146 -83 -233 -83q-81 0 -129 55.5t-48 148.5q0 152 62.5 296.5t160.5 217.5q91 68 181.5 109t151.5 41zM628 745q-69 0 -142 -75q-65 -68 -107.5 -183.5t-42.5 -224.5
q0 -74 27 -125q15 -31 46 -49.5t64 -18.5q119 0 209 180q79 157 79 294q0 82 -28 135q-35 67 -105 67z" />
    <glyph glyph-name="p" unicode="p" horiz-adv-x="901" 
d="M45 -436l73 4q89 331 164 657.5t75 381.5q0 58 -39 58q-18 0 -64 -19q-63 -27 -84 -35l13 53q109 65 215.5 121.5t121.5 56.5q11 0 20 -8.5t9 -18.5q0 -4 -43 -186l47 34q162 116 206 140q71 39 119 39q53 0 84 -54q26 -44 26 -108q0 -88 -29.5 -199.5t-79.5 -210.5
q-37 -75 -125 -144q-120 -99 -165.5 -121t-129.5 -22q-44 0 -99 12l-21 -90q-35 -151 -77 -348l230 -12l-64 -50q-73 -4 -97 -4l-130 2q-159 2 -217 5zM395 135q75 -45 157 -45q126 0 209 181q80 175 80 320q0 52 -18 82.5t-49 30.5q-40 0 -101 -33t-185 -123
q-13 -59 -48 -209l-30 -137z" />
    <glyph glyph-name="q" unicode="q" horiz-adv-x="819" 
d="M334 -433q28 1 41 1l99 -1l155 630q-45 -31 -68 -47q-245 -177 -291 -177q-32 0 -62 53.5t-30 112.5q0 124 53.5 293t110.5 224q46 45 118 95.5t111 66.5q59 23 178 23q17 0 50 -1q70 61 145 140l21 -6l-42 -134q3 -1 70 -18l-97 -91q-36 -136 -151 -625
q-96 -409 -124 -550l200 -13l-63 -49q-100 -4 -144 -4q-184 0 -348 11zM648 281l110 439q-67 7 -121 7q-119 0 -165.5 -33t-82.5 -141q-64 -194 -64 -313q0 -47 18 -78t45 -31q20 0 64.5 25.5t195.5 124.5z" />
    <glyph glyph-name="r" unicode="r" horiz-adv-x="614" 
d="M185 -21l123 448q45 165 45 215q0 42 -38 42q-27 0 -149 -60l7 55q93 56 202.5 109.5t129.5 53.5q26 0 26 -23q0 -1 -25 -123q30 22 122 88q79 58 133 58q29 0 77 -16l-62 -194q-48 62 -108 62q-76 0 -173 -72l-154 -583z" />
    <glyph glyph-name="s" unicode="s" horiz-adv-x="655" 
d="M87 171l139 90q1 -93 19 -132q32 -70 101 -70q60 0 117 52.5t57 108.5q0 38 -20 62t-98 79q-109 77 -109 167q0 100 115 208q112 106 226 106q82 0 138 -70q-26 -38 -97 -107q-60 81 -127 81q-52 0 -90 -39t-38 -92q0 -75 99 -137q80 -50 98 -71q30 -35 30 -93
q0 -95 -74 -180q-62 -71 -156 -116t-181 -45q-68 0 -110 41.5t-42 109.5q0 17 3 47z" />
    <glyph glyph-name="t" unicode="t" horiz-adv-x="655" 
d="M742 258l-2 -52q-312 -233 -384 -233q-29 0 -55 44t-26 94q0 48 11 101.5t77 326.5l22 89h-46h-93h-50q21 15 31 23q37 29 58 43l117 4l17 73l22 98l20 84q24 11 75 35q31 14 87 41l-14 -53q-54 -209 -69 -278h262l-78 -60l-202 -10q-12 -48 -42 -172q-48 -199 -48 -228
q0 -34 20 -65.5t41 -31.5q37 0 249 127z" />
    <glyph glyph-name="u" unicode="u" horiz-adv-x="942" 
d="M968 850q-68 -196 -116.5 -393.5t-48.5 -277.5q0 -48 23 -48q30 0 235 123l-15 -61q-77 -58 -192 -129q-89 -54 -125.5 -72.5t-56.5 -18.5q-37 0 -37 47q0 63 28 177q-51 -35 -210 -138q-78 -51 -112.5 -68.5t-57.5 -17.5q-25 0 -41.5 28.5t-16.5 72.5q0 74 63 306
q58 213 58 256q0 38 -29 38q-33 0 -149 -59l14 55q112 69 207 120.5t111 51.5q25 0 25 -27q0 -19 -10 -54q-8 -24 -36 -145q-12 -49 -44 -167q-52 -191 -52 -261q0 -29 11 -48t28 -19q35 0 254 150l20 81q83 350 102 413z" />
    <glyph glyph-name="v" unicode="v" horiz-adv-x="901" 
d="M213 440l-35 44q61 214 100 264q17 22 73 22q20 0 98 -4q79 -3 115 -3q49 0 70.5 6.5t39.5 26.5h20q3 -14 3 -22q0 -5 -1 -14q-124 -143 -177 -237q-90 -163 -90 -310q0 -53 23.5 -88.5t59.5 -35.5q57 0 132.5 66t134.5 168q107 182 107 374q0 72 -32 142q77 39 137 56
q53 -45 53 -111q0 -77 -37 -187t-98 -213q-107 -182 -259 -301q-140 -110 -257 -110q-52 0 -81.5 40.5t-29.5 110.5q0 160 95 316q35 58 181 224q-62 -14 -196 -16q-56 -1 -78.5 -33t-70.5 -175z" />
    <glyph glyph-name="w" unicode="w" horiz-adv-x="1393" 
d="M212 425l-34 50q72 230 118 277q20 20 69 20q24 0 58 -2q123 -5 233 -5q42 0 84 29h22q2 -11 2 -16q0 -1 -1 -20q-86 -86 -129.5 -140t-80.5 -121q-93 -167 -93 -307q0 -90 55 -90q57 0 144.5 70t143.5 161q47 76 103 260l46 150q85 22 153 43q-110 -325 -139 -429
t-29 -171q0 -42 19 -68t50 -26q59 0 150 87q128 124 191 322q35 114 35 214q0 74 -27 143q84 38 144 54q51 -34 51 -114q0 -103 -59.5 -245t-154.5 -264q-111 -144 -231.5 -229t-213.5 -85q-111 0 -111 118q0 71 31 160q-245 -278 -397 -278q-50 0 -80.5 34.5t-30.5 90.5
q0 81 34 176.5t93 181.5q23 34 182 211q-42 -16 -94 -16q-27 0 -53 1q-50 3 -67 3q-75 0 -121 -79q-17 -29 -65 -151z" />
    <glyph glyph-name="x" unicode="x" horiz-adv-x="860" 
d="M143 56q29 80 48.5 113.5t57.5 66.5l269 210q-24 163 -48 216t-75 53q-31 0 -56 -12t-118 -73l3 54q106 92 161.5 125t102.5 33q49 0 75 -26t39 -88q10 -49 27 -181q81 76 143 137q82 80 146 137q44 20 76 20q34 0 72 -25l-43 -143q-57 21 -88 21q-50 0 -145 -77
q-63 -51 -151 -132l13 -90q45 -306 57 -361q23 -111 47.5 -168t63.5 -93q50 -46 108 -46q107 0 186 141l80 -96q-49 -52 -97 -71q-71 -29 -156 -29q-164 0 -265 92q-71 65 -97 172t-53 449q-217 -174 -281 -436q-10 -4 -15 -4q-2 0 -20 4z" />
    <glyph glyph-name="y" unicode="y" horiz-adv-x="819" 
d="M23 -493l83 138q150 -37 225 -37q86 0 137 24.5t77 77.5q28 60 96 385l23 108q-86 -63 -263 -173q-90 -57 -122 -57q-31 0 -51.5 32t-20.5 83q0 64 59 277q64 233 64 278q0 31 -30 31q-27 0 -143 -58l7 55q289 171 326 171q23 0 23 -24q0 -15 -50 -219q-88 -333 -88 -403
q0 -28 12.5 -46.5t31.5 -18.5q28 0 59 16.5t192 116.5l22 89l42 168l42 168l18 73q30 15 45 22q81 39 130 66q-95 -317 -180 -710q-54 -252 -82 -320.5t-117 -163.5q-110 -118 -201 -146q-65 -19 -142 -19q-118 0 -224 16z" />
    <glyph glyph-name="z" unicode="z" horiz-adv-x="901" 
d="M94 88q430 377 674 614q-45 -9 -169 -13q-96 -2 -124 -7t-49 -26q-17 -17 -79 -144l-35 39q74 196 95 231t64 35h15q135 -6 282 -6q79 0 110.5 9.5t93.5 52.5q1 -7 1 -9l-3 -40q-60 -63 -223 -222l-146 -142q-189 -178 -257 -245q182 -80 248 -102.5t120 -22.5
q50 0 84.5 33.5t34.5 82.5q0 33 -22 86q35 25 121 80q28 -59 28 -94q0 -51 -54 -115q-70 -85 -150 -144q-64 -46 -131 -46q-70 0 -222 54q-138 49 -203 69q-53 -31 -99 -60q-5 23 -5 40v12z" />
    <glyph glyph-name="braceleft" unicode="{" horiz-adv-x="491" 
d="M383 514q46 -19 63 -40q27 -34 27 -86q0 -31 -14 -82l-109 -410q-18 -54 -18 -87q0 -48 15.5 -70t60.5 -37l-11 -41q-93 1 -131 24q-51 31 -51 90q0 53 16 114l113 421q13 49 13 61q0 44 -26 76.5t-74 48.5l10 41q81 20 121.5 57.5t60.5 109.5l113 422q35 130 91 177.5
t176 49.5l-11 -41q-102 -26 -142 -194l-109 -410q-26 -94 -76 -138q-39 -33 -108 -56z" />
    <glyph glyph-name="bar" unicode="|" horiz-adv-x="1065" 
d="M743 1479v-1979h-100v1979h100z" />
    <glyph glyph-name="braceright" unicode="}" horiz-adv-x="491" 
d="M462 501q-45 18 -62 39q-27 35 -27 86q0 34 13 82l110 410q17 55 17 88q0 47 -15.5 69.5t-59.5 36.5l11 41q92 -1 130 -23q51 -31 51 -91q0 -53 -16 -113l-113 -422q-12 -45 -12 -60q0 -91 99 -126l-10 -41q-81 -20 -121.5 -57t-59.5 -110l-114 -421q-35 -130 -90 -177.5
t-173 -50.5l11 41q100 26 138 194l110 410q25 95 76 138q39 34 107 57z" />
    <glyph glyph-name="asciitilde" unicode="~" horiz-adv-x="1065" 
d="M1025 569l70 -49q-43 -75 -110 -122.5t-131 -47.5q-85 0 -176 38l-97 40q-82 34 -134 34q-51 0 -85.5 -24t-92.5 -101l-75 45q46 73 83 111q75 76 172 76q62 0 138 -32l117 -49q100 -42 148 -42q84 0 173 123z" />
    <glyph glyph-name="nonbreakingspace" unicode="&#xa0;" horiz-adv-x="451" 
 />
    <glyph glyph-name="exclamdown" unicode="&#xa1;" horiz-adv-x="573" 
d="M604 680l-151 -121q-40 68 -97 152q66 65 151 127q63 -76 97 -158zM498 502l-35 -145q-115 -468 -165 -652l-54 -26q-82 -40 -127 -61q46 143 169 516q65 202 99 299q70 45 113 69z" />
    <glyph glyph-name="cent" unicode="&#xa2;" horiz-adv-x="901" 
d="M369 -156l85 295q-194 0 -194 233q0 122 48 249t129 221q90 104 230 162q14 59 20 89q31 133 44 207q24 9 82 32q-32 -104 -84 -316q28 3 50 3q110 0 149 -124l-147 -95q0 122 -64 145q-86 -314 -173 -707q77 7 134.5 36.5t174.5 122.5l-7 -82q-166 -127 -322 -163
l-51 -248q-15 -9 -104 -60zM481 248q40 152 87 354q42 180 85 344q-95 -36 -159 -149q-38 -67 -62.5 -169t-24.5 -194q0 -139 74 -186z" />
    <glyph glyph-name="sterling" unicode="&#xa3;" horiz-adv-x="901" 
d="M410 608h-122h-59l53 73q38 -1 54 -1l93 1q44 172 75 231q32 60 149 196q39 46 69 61t82 15q46 0 89 -14l-67 -115q-54 23 -90 23q-30 0 -46 -22t-34 -86q-49 -176 -74 -289h141h128l-61 -73q-76 2 -118 2q-34 0 -108 -2q-31 -134 -54 -200.5t-59 -124.5
q-34 -55 -67 -88.5t-102 -83.5q72 10 171 11q153 1 194.5 6t68.5 28q62 51 120 187l38 -15q-59 -178 -152 -323q-78 -10 -128 -10l-330 10q-89 0 -132.5 -21t-100.5 -92l-23 41q67 89 141 170q79 3 126 54q33 35 54.5 103t67.5 285z" />
    <glyph glyph-name="currency" unicode="&#xa4;" horiz-adv-x="901" 
d="M884 322l99 -97l-74 -75l-98 96q-67 -54 -128.5 -76.5t-140.5 -22.5q-78 0 -140 22.5t-128 76.5l-98 -96l-74 75l98 97q-52 64 -70 117q-24 70 -24 147q0 81 21 140.5t73 123.5l-98 96l74 76l98 -96q66 53 128 75.5t140 22.5q79 0 140.5 -22.5t128.5 -75.5l98 96l74 -76
l-99 -96q53 -65 71 -118q24 -69 24 -146q0 -82 -21.5 -141.5t-73.5 -122.5zM543 913q-146 0 -243 -108q-84 -92 -84 -214q0 -153 108 -250q93 -83 216 -83q150 0 247 108q83 92 83 219q0 147 -108 245q-93 83 -219 83z" />
    <glyph glyph-name="yen" unicode="&#xa5;" horiz-adv-x="901" 
d="M519 381l-356 -22q52 71 78 100h286q2 49 2 66q0 18 -2 63l-284 -19q38 52 77 100l200 -1q-16 157 -58 257q-25 61 -71 99t-94 38q-68 0 -114.5 -73.5t-46.5 -179.5q0 -82 41 -208l-156 -99q-43 94 -43 189q0 87 44.5 180t121.5 168q145 140 290 140q104 0 164 -115.5
t60 -315.5q0 -92 -23 -229q184 385 292 535q72 102 134.5 146.5t132.5 44.5q44 0 82 -33l-57 -148q-60 23 -101 23q-49 0 -88 -26.5t-84 -90.5q-63 -89 -167 -296l329 -1l-60 -54l-305 -17l-71 -143h348l-69 -52l-315 -19l-52 -134q-86 -223 -125 -302q-41 -85 -73.5 -130.5
t-74.5 -75.5q-44 -32 -98 -44.5t-150 -12.5q-42 0 -85 4l71 153q103 -10 142 -10q83 0 134.5 35t85.5 115q86 199 108 395z" />
    <glyph glyph-name="brokenbar" unicode="&#xa6;" horiz-adv-x="1065" 
d="M743 1479v-602h-100v602h100zM743 602v-602h-100v602h100z" />
    <glyph glyph-name="section" unicode="&#xa7;" horiz-adv-x="860" 
d="M129 -303l89 123q102 -39 150 -39q72 0 114 41q61 60 61 124q0 37 -25 76.5t-140 182.5q-128 161 -128 293q0 181 238 407q55 121 149 197.5t187 76.5q67 0 126 -46l-112 -148q-18 49 -39 68.5t-57 19.5q-57 0 -104 -54q-52 -61 -52 -127q0 -39 18.5 -71t104.5 -139
q69 -87 99 -153t30 -133q0 -174 -169 -350q-26 -132 -134 -255q-61 -70 -116.5 -98.5t-132.5 -28.5q-66 0 -157 33zM662 93q64 92 64 177q0 53 -23.5 104t-87.5 136q-101 135 -124 180t-23 111q0 12 1 35q-92 -115 -92 -228q0 -69 31.5 -129t135.5 -188q53 -65 75.5 -103.5
t42.5 -94.5z" />
    <glyph glyph-name="dieresis" unicode="&#xa8;" horiz-adv-x="737" 
d="M725 1002q-56 81 -78 143q38 26 141 108q33 -78 70 -140q-70 -53 -133 -111zM454 1002q-57 83 -79 143q45 30 141 108q34 -78 71 -140q-74 -56 -133 -111z" />
    <glyph glyph-name="copyright" unicode="&#xa9;" horiz-adv-x="1515" 
d="M1332 433l-36 -75q-222 -94 -381 -94q-147 0 -236 105q-79 94 -79 249q0 101 32 191.5t88 149.5q114 118 332 118q153 0 234 -74q35 -33 48 -75l-112 -133l-14 7q2 30 2 48q0 77 -53 124.5t-138 47.5q-128 0 -196 -94q-76 -106 -76 -257q0 -134 69 -231q63 -91 188 -91
q135 0 328 84zM1000 1368q182 0 344 -95q165 -98 260 -260q95 -164 95 -355t-95 -356q-95 -164 -260 -260q-166 -95 -355 -95q-191 0 -356 95q-165 96 -260 260q-95 166 -95 361q0 307 236 522q200 183 486 183zM1002 1282q-283 0 -469 -207q-159 -177 -159 -412
q0 -284 205 -469q176 -161 414 -161q165 0 309 84t226 228q83 146 83 313q0 274 -205 463q-95 88 -219 129q-98 32 -185 32z" />
    <glyph glyph-name="ordfeminine" unicode="&#xaa;" horiz-adv-x="532" 
d="M664 874l-2 -45q-89 -66 -140 -95.5t-74 -29.5q-18 0 -18 27q0 10 4 32l10 58q-107 -77 -140 -97t-50 -20q-47 0 -47 92q0 67 30 159.5t62 125.5q20 19 103 74q36 24 78 24q95 0 157 -18l-33 -39q-22 -80 -45 -181t-23 -122q0 -19 15 -19q7 0 44 24.5t69 49.5zM459 874
q5 30 27 121q19 83 26 106q-34 12 -80 12q-33 0 -53.5 -22.5t-42.5 -81.5q-33 -92 -33 -169q0 -42 25 -42q20 0 131 76z" />
    <glyph glyph-name="guillemotleft" unicode="&#xab;" horiz-adv-x="696" 
d="M556 -19q-17 69 -60 229q-38 154 -54 209q55 61 168 199q143 166 195 229l23 -54q-62 -91 -214 -291l-51 -67q49 -184 78 -390q-16 -11 -24 -17q-36 -25 -61 -47zM315 -19q-17 71 -59 229q-38 154 -55 209q55 62 168 199q144 168 195 229l23 -54q-62 -91 -213 -291
l-51 -67q47 -181 77 -390q-16 -11 -24 -17q-36 -25 -61 -47z" />
    <glyph glyph-name="logicalnot" unicode="&#xac;" horiz-adv-x="1065" 
d="M113 643h1032v-592h-113v479h-919v113z" />
    <glyph glyph-name="uni00AD" unicode="&#xad;" horiz-adv-x="573" 
d="M235 355q49 77 98 129q65 2 95 2l186 -2q-50 -60 -92 -129q-65 4 -88 4z" />
    <glyph glyph-name="registered" unicode="&#xae;" horiz-adv-x="1515" 
d="M846 636l-22 -286l141 -8l-54 -60q-44 1 -178 4q-128 1 -182 2l39 62l94 4q20 149 43 468q11 123 13 165l-144 9l50 58q90 -3 284 -3q184 -1 223 -7q131 -18 131 -146q0 -76 -60.5 -136.5t-168.5 -91.5l160 -191q85 -102 122.5 -124t138.5 -29l-32 -42l-156 -16
q-22 -2 -31 -2q-26 0 -48 15t-52 54l-228 294q-35 0 -83 7zM851 692q42 -4 68 -4q98 0 163 50.5t65 127.5q0 64 -47 91.5t-155 27.5q-15 0 -71 -1zM996 1368q182 0 344 -95q165 -98 260 -260q95 -164 95 -355t-95 -356q-95 -164 -260 -260q-165 -95 -355 -95t-355 95
q-165 96 -259 260q-95 166 -95 361q0 307 235 522q199 183 485 183zM999 1282q-284 0 -469 -207q-158 -177 -158 -412q0 -283 204 -469q176 -161 413 -161q165 0 309 84t226 228q83 146 83 313q0 274 -205 463q-95 88 -218 129q-99 32 -185 32z" />
    <glyph glyph-name="macron" unicode="&#xaf;" horiz-adv-x="901" 
d="M375 1064q14 15 43 49l45 49h592q-21 -18 -45 -50q-24 -29 -38 -48h-597z" />
    <glyph glyph-name="degree" unicode="&#xb0;" horiz-adv-x="819" 
d="M641 1179q105 0 176 -78q64 -70 64 -173q0 -105 -69 -176q-72 -75 -178 -75q-114 0 -187 87q-58 69 -58 165q0 115 83 186q74 64 169 64zM638 1085q-66 0 -111.5 -45.5t-45.5 -112.5q0 -64 45.5 -110t108.5 -46q64 0 108 45.5t44 111.5q0 65 -44 111t-105 46z" />
    <glyph glyph-name="plusminus" unicode="&#xb1;" horiz-adv-x="1065" 
d="M687 565v-364h-111v364h-365v111h365v364h111v-364h364v-111h-364zM211 0v111h840v-111h-840z" />
    <glyph glyph-name="twosuperior" unicode="&#xb2;" horiz-adv-x="541" 
d="M164 469q72 85 256 245q118 103 154.5 153.5t36.5 111.5q0 47 -30.5 76.5t-78.5 29.5q-50 0 -78.5 -25t-28.5 -69q0 -30 18 -83l-102 13q-4 19 -4 32q0 58 38 101q40 44 102 70.5t126 26.5q66 0 105 -36t39 -98q0 -59 -36 -122q-21 -36 -41 -57t-74 -64
q-18 -14 -193 -165l-33 -30q53 -5 191 -35q16 -4 28 -4q24 0 47 18.5t95 96.5l24 -35q-18 -25 -67 -85q-45 -57 -66 -83q-20 -8 -33 -8q-33 0 -236 44q-31 7 -49 7q-30 0 -80 -49q-17 -18 -24 -25z" />
    <glyph glyph-name="threesuperior" unicode="&#xb3;" horiz-adv-x="541" 
d="M141 477l65 71q113 -48 179 -48q64 0 110 32q39 28 63 72t24 90q0 45 -35 73.5t-92 28.5q-34 0 -132 -27l-8 -2l11 44q143 50 206.5 96t63.5 99q0 28 -22.5 47t-56.5 19q-37 0 -110 -41q-17 -10 -30 -16l-1 40q79 56 128 82q42 11 72 11q57 0 91.5 -25.5t34.5 -66.5
q0 -54 -61 -111q-66 -41 -83 -54l-12 -9h8q16 0 48 -12t46 -23q40 -34 40 -89q0 -97 -81 -191q-53 -62 -133.5 -97.5t-166.5 -35.5q-50 0 -81 8t-85 35z" />
    <glyph glyph-name="acute" unicode="&#xb4;" horiz-adv-x="614" 
d="M420 955q106 141 242 329l41 57l92 -44q-187 -192 -327 -355z" />
    <glyph glyph-name="mu" unicode="&#xb5;" horiz-adv-x="942" 
d="M294 -24q-39 -161 -57 -336l-206 -87q79 160 123 297.5t125 473.5q67 278 67 312q0 38 -29 38q-34 0 -149 -59l14 55q105 65 203.5 118.5t114.5 53.5q25 0 25 -27q0 -19 -10 -54q-7 -24 -36 -145q-12 -50 -44 -167q-52 -191 -52 -261q0 -29 11 -48t28 -19q36 0 254 150
l35 144q68 286 87 350l170 85q-68 -197 -116.5 -394t-48.5 -277q0 -48 24 -48q28 0 234 123l-15 -61q-77 -58 -192 -129q-89 -54 -125.5 -72.5t-56.5 -18.5q-37 0 -37 47q0 62 28 177q-288 -189 -369 -221z" />
    <glyph glyph-name="paragraph" unicode="&#xb6;" horiz-adv-x="1024" 
d="M207 -408l5 52h59q56 0 82 44q18 30 23 49.5t27 139.5l93 438q-159 33 -263 116q-170 136 -170 339q0 109 46 201q74 146 275 194q78 18 297 18h76h20h6l421 6l-72 -54l-65 -6q-34 -3 -48 -18.5t-23 -62.5l-243 -1258q-7 -34 -7 -59q0 -39 26 -63t68 -24h48l-5 -52
l-299 6l289 1515h-99l-289 -1517zM509 391l129 734q-39 6 -53 6q-62 0 -128.5 -29t-120.5 -79q-101 -95 -101 -243q0 -116 62 -217q66 -108 170 -153q33 -14 42 -19z" />
    <glyph glyph-name="glyph121" unicode="&#xb7;" horiz-adv-x="451" 
d="M345 567q52 0 88 -36t36 -88t-36.5 -88t-89.5 -36q-50 0 -86 36.5t-36 87.5t36.5 87.5t87.5 36.5z" />
    <glyph glyph-name="cedilla" unicode="&#xb8;" horiz-adv-x="614" 
d="M442 0l-96 -132q50 -17 50 -78q0 -70 -71 -127q-83 -65 -211 -98l-30 28q45 12 69 24t60 40q55 43 55 76q0 37 -55 79l157 188h72z" />
    <glyph glyph-name="onesuperior" unicode="&#xb9;" horiz-adv-x="541" 
d="M176 444l49 55q7 1 31 3q4 1 72 8q27 2 33.5 8t13.5 35l110 480q-70 -25 -135 -54l-46 32q140 58 262 124q33 18 53 28q-26 -94 -84 -350t-58 -276t33 -27.5t133 -10.5l-39 -55q-36 1 -55 1q-141 3 -152 3q-13 0 -208 -4h-13z" />
    <glyph glyph-name="ordmasculine" unicode="&#xba;" horiz-adv-x="532" 
d="M558 1183q46 0 74.5 -29t28.5 -76q0 -86 -38.5 -171.5t-95.5 -125.5q-110 -77 -179 -77q-45 0 -72 30.5t-27 82.5q0 84 35 163.5t89 119.5q111 83 185 83zM499 1117q-57 0 -105.5 -80t-48.5 -173q0 -94 68 -94q62 0 110 94q42 82 42 153q0 100 -66 100z" />
    <glyph glyph-name="guillemotright" unicode="&#xbb;" horiz-adv-x="778" 
d="M425 50q92 129 280 359q-49 167 -97 375q48 53 87 83l138 -448q-60 -61 -186 -202q-152 -166 -203 -223zM178 50q89 125 281 359q-47 157 -97 375q47 53 86 83l139 -448q-61 -61 -187 -202q-154 -168 -203 -223z" />
    <glyph glyph-name="onequarter" unicode="&#xbc;" horiz-adv-x="1352" 
d="M1069 -19l49 203h-50l-168 1q-24 1 -31 1q-9 0 -31 -2q22 55 64 107q173 215 207 249q107 108 133 136q15 8 48 24q24 13 48 21q-7 -26 -92 -394l-17 -71h18l29 2q5 0 20 -1q9 -1 39 -1l-53 -72h-9h-14h-26h-22l-5 -19q-14 -59 -14 -90q0 -22 14 -61q-23 -11 -59 -22
l-56 -23zM1134 256q29 119 61 254l11 47l5 18l-79 -87q-122 -136 -167 -200l-23 -32h192zM418 -6q110 168 415 679q221 371 307 525q15 -3 87 -11q-111 -166 -249 -400q-100 -171 -204 -343q-165 -272 -264 -455q-15 1 -23 1q-46 3 -69 4zM197 444l49 55q7 1 31 3q4 1 72 8
q27 2 33.5 8t13.5 35l110 480q-70 -25 -135 -54l-46 32q140 58 262 124q33 18 53 28q-26 -94 -84 -350t-58 -276t33 -27.5t133 -10.5l-39 -55q-36 1 -55 1q-141 3 -152 3q-13 0 -208 -4h-13z" />
    <glyph glyph-name="onehalf" unicode="&#xbd;" horiz-adv-x="1352" 
d="M402 -6q110 168 415 679q220 371 307 525q15 -3 87 -11q-112 -167 -249 -400q-104 -176 -205 -343q-164 -273 -263 -455q-16 1 -23 1q-47 3 -69 4zM197 444l49 55q7 1 31 3q4 1 72 8q27 2 33.5 8t13.5 35l110 480q-70 -25 -135 -54l-46 32q140 58 262 124q33 18 53 28
q-26 -94 -84 -350t-58 -276t33 -27.5t133 -10.5l-39 -55q-36 1 -55 1q-141 3 -152 3q-13 0 -208 -4h-13zM789 27q51 60 88.5 96t166.5 149q119 103 155.5 153.5t36.5 111.5q0 47 -30.5 76.5t-78.5 29.5q-50 0 -78.5 -25t-28.5 -69q0 -30 17 -83l-102 13q-3 19 -3 31
q0 59 38 102q40 44 102 70.5t126 26.5q66 0 105 -36t39 -98q0 -58 -36 -122q-21 -36 -41 -57t-74 -64q-17 -13 -193 -165l-33 -30q51 -5 190 -35q17 -4 29 -4q24 0 45.5 17.5t96.5 97.5l24 -35q-18 -25 -67 -85q-45 -57 -67 -83q-19 -8 -32 -8q-22 0 -143 25q-59 12 -93 19
q-30 7 -49 7q-31 0 -80 -49q-17 -18 -24 -24z" />
    <glyph glyph-name="threequarters" unicode="&#xbe;" horiz-adv-x="1352" 
d="M1077 -19l48 203h-50l-168 1q-24 1 -31 1q-9 0 -31 -2q23 55 64 107q174 215 207 249q107 108 133 136q15 8 48 24q24 13 48 21q-7 -26 -92 -394l-17 -71h18l30 2q4 0 19 -1q10 -1 40 -1l-54 -72h-9h-13h-27h-21l-5 -19q-15 -59 -15 -90q0 -22 14 -61q-23 -11 -58 -22
l-57 -23zM1141 256q30 124 61 254l11 47l5 18l-79 -87q-121 -136 -167 -200l-23 -32h192zM425 -6q110 168 415 679q217 364 307 525q16 -3 87 -11q-111 -167 -248 -400q-104 -176 -205 -343q-165 -273 -263 -455q-16 1 -24 1q-46 3 -69 4zM149 477l65 71q113 -48 179 -48
q64 0 110 32q39 28 63 72t24 90q0 45 -35 73.5t-92 28.5q-34 0 -132 -27l-8 -2l11 44q143 50 206.5 96t63.5 99q0 28 -22.5 47t-56.5 19q-37 0 -110 -41q-17 -10 -30 -16l-1 40q79 56 128 82q42 11 72 11q57 0 91.5 -25.5t34.5 -66.5q0 -54 -61 -111q-66 -41 -83 -54l-12 -9
h8q16 0 48 -12t46 -23q40 -34 40 -89q0 -97 -81 -191q-53 -62 -133.5 -97.5t-166.5 -35.5q-50 0 -81 8t-85 35z" />
    <glyph glyph-name="questiondown" unicode="&#xbf;" horiz-adv-x="819" 
d="M871 680q-25 -18 -152 -121q-47 79 -96 152q66 65 150 127q63 -75 98 -158zM756 486q-15 -171 -35 -330l-36 -31q-57 12 -95 12q-138 0 -223 -99q-82 -96 -82 -208q0 -60 31.5 -97.5t82.5 -37.5q66 0 125 45t105 131q25 -67 44 -125q-70 -63 -137 -88q-80 -29 -178 -29
q-117 0 -182 55q-59 50 -59 136q0 100 53.5 192.5t142.5 143.5q57 33 104.5 45t154.5 22q38 3 55.5 20t32.5 64q20 62 26 155z" />
    <glyph glyph-name="Agrave" unicode="&#xc0;" horiz-adv-x="1270" 
d="M47 18l78 143q45 -14 89 -14q72 0 124.5 24t114.5 85q104 101 273 319l355 458q-80 6 -219 21q-40 4 -76 4q-118 0 -179 -51q-59 -48 -59 -134q0 -64 45 -191l-152 -83q-30 79 -30 141q0 116 79 220q81 106 178 166t187 60q59 0 187 -21q88 -15 116 -15q33 0 48 9t61 57
l29 -21q-48 -243 -96.5 -587t-48.5 -442q0 -53 22 -72.5t82 -19.5q24 0 152 10l-33 -49q-50 -8 -189 -34q-152 -28 -165 -28q-20 0 -33.5 13t-13.5 32q0 33 10 87q5 25 12 84q8 57 27 184q-143 9 -363 9q-202 -232 -300.5 -307t-202.5 -75q-49 0 -109 18zM724 465h310
l84 518zM1186 1281q-111 241 -170 348q20 12 61 33l33 17q75 -208 127 -386q-22 -7 -51 -12z" />
    <glyph glyph-name="Aacute" unicode="&#xc1;" horiz-adv-x="1270" 
d="M47 18l78 143q45 -14 89 -14q72 0 124.5 24t114.5 85q104 101 273 319l355 458q-80 6 -219 21q-40 4 -76 4q-118 0 -179 -51q-59 -48 -59 -134q0 -64 45 -191l-152 -83q-30 79 -30 141q0 116 79 220q81 106 178 166t187 60q59 0 187 -21q88 -15 116 -15q33 0 48 9t61 57
l29 -21q-48 -243 -96.5 -587t-48.5 -442q0 -53 22 -72.5t82 -19.5q24 0 152 10l-33 -49q-50 -8 -189 -34q-152 -28 -165 -28q-20 0 -33.5 13t-13.5 32q0 33 10 87q5 25 12 84q8 57 27 184q-143 9 -363 9q-202 -232 -300.5 -307t-202.5 -75q-49 0 -109 18zM724 465h310
l84 518zM1032 1294q111 146 242 328l41 57l92 -43q-180 -184 -327 -356z" />
    <glyph glyph-name="Acircumflex" unicode="&#xc2;" horiz-adv-x="1270" 
d="M47 18l78 143q45 -14 89 -14q72 0 124.5 24t114.5 85q104 101 273 319l355 458q-80 6 -219 21q-40 4 -76 4q-118 0 -179 -51q-59 -48 -59 -134q0 -64 45 -191l-152 -83q-30 79 -30 141q0 116 79 220q81 106 178 166t187 60q59 0 187 -21q88 -15 116 -15q33 0 48 9t61 57
l29 -21q-48 -243 -96.5 -587t-48.5 -442q0 -53 22 -72.5t82 -19.5q24 0 152 10l-33 -49q-50 -8 -189 -34q-152 -28 -165 -28q-20 0 -33.5 13t-13.5 32q0 33 10 87q5 25 12 84q8 57 27 184q-143 9 -363 9q-202 -232 -300.5 -307t-202.5 -75q-49 0 -109 18zM724 465h310
l84 518zM914 1337q251 252 354 339q22 6 29 6q10 0 27 -6q9 -134 22 -287l6 -67q-25 -14 -73 -42l-6 47q-19 139 -35 228q-106 -84 -315 -275q-2 13 -3 19q-2 22 -6 38z" />
    <glyph glyph-name="Atilde" unicode="&#xc3;" horiz-adv-x="1270" 
d="M47 18l78 143q45 -14 89 -14q72 0 124.5 24t114.5 85q104 101 273 319l355 458q-80 6 -219 21q-40 4 -76 4q-118 0 -179 -51q-59 -48 -59 -134q0 -64 45 -191l-152 -83q-30 79 -30 141q0 116 79 220q81 106 178 166t187 60q59 0 187 -21q88 -15 116 -15q33 0 48 9t61 57
l29 -21q-48 -243 -96.5 -587t-48.5 -442q0 -53 22 -72.5t82 -19.5q24 0 152 10l-33 -49q-50 -8 -189 -34q-152 -28 -165 -28q-20 0 -33.5 13t-13.5 32q0 33 10 87q5 25 12 84q8 57 27 184q-143 9 -363 9q-202 -232 -300.5 -307t-202.5 -75q-49 0 -109 18zM724 465h310
l84 518zM866 1379q75 102 120.5 139.5t95.5 37.5q31 0 55.5 -9t83.5 -42q74 -42 118 -42q55 0 109 39q17 13 73 65l21 -35q-80 -101 -124 -136t-90 -35q-36 0 -66.5 12t-109.5 56q-59 34 -101 34q-39 0 -70 -24t-88 -97z" />
    <glyph glyph-name="Adieresis" unicode="&#xc4;" horiz-adv-x="1270" 
d="M47 18l78 143q45 -14 89 -14q72 0 124.5 24t114.5 85q104 101 273 319l355 458q-80 6 -219 21q-40 4 -76 4q-118 0 -179 -51q-59 -48 -59 -134q0 -64 45 -191l-152 -83q-30 79 -30 141q0 116 79 220q81 106 178 166t187 60q59 0 187 -21q88 -15 116 -15q33 0 48 9t61 57
l29 -21q-48 -243 -96.5 -587t-48.5 -442q0 -53 22 -72.5t82 -19.5q24 0 152 10l-33 -49q-50 -8 -189 -34q-152 -28 -165 -28q-20 0 -33.5 13t-13.5 32q0 33 10 87q5 25 12 84q8 57 27 184q-143 9 -363 9q-202 -232 -300.5 -307t-202.5 -75q-49 0 -109 18zM724 465h310
l84 518zM1298 1332q-56 81 -78 143q43 29 141 108q7 -18 11 -26q22 -51 59 -114q-69 -52 -133 -111zM1027 1332q-57 81 -79 143q53 35 141 108q8 -18 12 -26q22 -52 59 -114q-74 -56 -133 -111z" />
    <glyph glyph-name="Aring" unicode="&#xc5;" horiz-adv-x="1270" 
d="M47 18l78 143q45 -14 89 -14q72 0 124.5 24t114.5 85q104 101 273 319l355 458q-80 6 -219 21q-40 4 -76 4q-118 0 -179 -51q-59 -48 -59 -134q0 -64 45 -191l-152 -83q-30 79 -30 141q0 116 79 220q81 106 178 166t187 60q59 0 187 -21q88 -15 116 -15q33 0 48 9t61 57
l29 -21q-48 -243 -96.5 -587t-48.5 -442q0 -53 22 -72.5t82 -19.5q24 0 152 10l-33 -49q-50 -8 -189 -34q-152 -28 -165 -28q-20 0 -33.5 13t-13.5 32q0 33 10 87q5 25 12 84q8 57 27 184q-143 9 -363 9q-202 -232 -300.5 -307t-202.5 -75q-49 0 -109 18zM724 465h310
l84 518zM1250 1642q65 0 102 -33.5t37 -92.5q0 -105 -79 -178q-67 -62 -157 -62q-64 0 -99.5 34t-35.5 95q0 103 65.5 170t166.5 67zM1221 1597q-51 0 -83 -48t-32 -124q0 -46 19.5 -75t50.5 -29q49 0 83 50.5t34 122.5q0 103 -72 103z" />
    <glyph glyph-name="AE" unicode="&#xc6;" horiz-adv-x="1515" 
d="M1026 555l-118 -471q81 -2 126 -2q171 0 239 14t122 59q68 57 210 266l29 -55l-30 -59q-104 -209 -156 -302q-285 4 -533 4q-194 0 -360 -4l59 47l144 32l118 471h-301q-109 -134 -211 -277q-78 -109 -91.5 -135t-13.5 -66q0 -22 10 -65q-100 -17 -190 -21q-11 29 -14 63
q131 169 218.5 270.5t542.5 609.5l131 147q-97 25 -224 41q38 33 65 47q194 -13 273 -13q147 0 374 8q78 3 144 5q35 -21 39 -88l-146 -137q-8 96 -29 126.5t-79 30.5q-31 0 -76 -3l-139 -9l-118 -471h349q-39 -36 -87 -63q-62 2 -97 2h-42q-93 -1 -138 -2zM639 631
q106 -9 254 -10l104 417z" />
    <glyph glyph-name="Ccedilla" unicode="&#xc7;" horiz-adv-x="1065" 
d="M565 -146l-70 -95q50 -18 50 -78q0 -71 -71 -127q-83 -66 -210 -98l-31 27q45 12 69 24t60 41q55 43 55 76q0 37 -54 78l123 148q-118 4 -193 63q-113 88 -113 275q0 231 112 457q137 278 413 448q189 117 356 117q132 0 193 -75q35 -42 46 -130l-150 -129
q-19 238 -198 238q-130 0 -264 -103q-181 -139 -274 -397q-66 -184 -66 -350q0 -136 66 -226q69 -92 198 -92q205 0 471 182l-15 -61q-112 -85 -245.5 -141.5t-257.5 -71.5z" />
    <glyph glyph-name="Egrave" unicode="&#xc8;" horiz-adv-x="1270" 
d="M742 629h366q-39 -30 -77 -60q-57 -2 -143 -8q-46 -3 -166 -10q-56 -207 -90 -267q-22 -38 -51.5 -70t-134.5 -130h534q147 0 184.5 15t37.5 74q0 26 -8 76l155 58q9 -31 9 -47q0 -65 -129 -181q-69 -62 -108 -78.5t-118 -16.5q-98 0 -338 8l-465 8l79 68q78 19 116 43
t65 70q29 50 88 277l22 83h-57q39 48 79 88l115 459q-173 -4 -258 -38q-135 -54 -135 -193q0 -76 26 -171l-148 -98q-36 95 -36 166q0 153 147 269q88 70 189.5 100.5t248.5 32.5l143 43l-10 -43l437 9q46 -19 57 -80l-135 -134q-37 89 -54 110q-28 37 -97 37l-224 -6z
M996 1281q-111 240 -171 348l95 50q75 -208 126 -386q-22 -7 -50 -12z" />
    <glyph glyph-name="Eacute" unicode="&#xc9;" horiz-adv-x="1270" 
d="M742 629h366q-39 -30 -77 -60q-57 -2 -143 -8q-46 -3 -166 -10q-56 -207 -90 -267q-22 -38 -51.5 -70t-134.5 -130h534q147 0 184.5 15t37.5 74q0 26 -8 76l155 58q9 -31 9 -47q0 -65 -129 -181q-69 -62 -108 -78.5t-118 -16.5q-98 0 -338 8l-465 8l79 68q78 19 116 43
t65 70q29 50 88 277l22 83h-57q39 48 79 88l115 459q-173 -4 -258 -38q-135 -54 -135 -193q0 -76 26 -171l-148 -98q-36 95 -36 166q0 153 147 269q88 70 189.5 100.5t248.5 32.5l143 43l-10 -43l437 9q46 -19 57 -80l-135 -134q-37 89 -54 110q-28 37 -97 37l-224 -6z
M863 1294q111 146 242 328l41 57l92 -43q-186 -191 -326 -356z" />
    <glyph glyph-name="Ecircumflex" unicode="&#xca;" horiz-adv-x="1270" 
d="M742 629h366q-39 -30 -77 -60q-57 -2 -143 -8q-46 -3 -166 -10q-56 -207 -90 -267q-22 -38 -51.5 -70t-134.5 -130h534q147 0 184.5 15t37.5 74q0 26 -8 76l155 58q9 -31 9 -47q0 -65 -129 -181q-69 -62 -108 -78.5t-118 -16.5q-98 0 -338 8l-465 8l79 68q78 19 116 43
t65 70q29 50 88 277l22 83h-57q39 48 79 88l115 459q-173 -4 -258 -38q-135 -54 -135 -193q0 -76 26 -171l-148 -98q-36 95 -36 166q0 153 147 269q88 70 189.5 100.5t248.5 32.5l143 43l-10 -43l437 9q46 -19 57 -80l-135 -134q-37 89 -54 110q-28 37 -97 37l-224 -6z
M743 1337q248 249 354 339q22 6 29 6q10 0 27 -6q10 -142 22 -287l6 -67q-22 -12 -73 -42q-4 31 -19 143q-5 37 -22 132q-106 -84 -315 -275q-2 13 -2 19q-3 22 -7 38z" />
    <glyph glyph-name="Edieresis" unicode="&#xcb;" horiz-adv-x="1270" 
d="M742 629h366q-39 -30 -77 -60q-57 -2 -143 -8q-46 -3 -166 -10q-56 -207 -90 -267q-22 -38 -51.5 -70t-134.5 -130h534q147 0 184.5 15t37.5 74q0 26 -8 76l155 58q9 -31 9 -47q0 -65 -129 -181q-69 -62 -108 -78.5t-118 -16.5q-98 0 -338 8l-465 8l79 68q78 19 116 43
t65 70q29 50 88 277l22 83h-57q39 48 79 88l115 459q-173 -4 -258 -38q-135 -54 -135 -193q0 -76 26 -171l-148 -98q-36 95 -36 166q0 153 147 269q88 70 189.5 100.5t248.5 32.5l143 43l-10 -43l437 9q46 -19 57 -80l-135 -134q-37 89 -54 110q-28 37 -97 37l-224 -6z
M1120 1332q-55 79 -78 143q43 29 141 108q8 -18 11 -26q21 -50 60 -114l-24 -18q-45 -34 -110 -93zM849 1332q-57 81 -79 143q50 33 142 108q7 -18 11 -26q21 -51 59 -114q-72 -54 -133 -111z" />
    <glyph glyph-name="Igrave" unicode="&#xcc;" horiz-adv-x="778" 
d="M166 1l75 50l119 14q35 122 128 486q112 439 139 558l-184 13l72 50h73h84l244 1q16 0 69 -1l-72 -50l-119 -13q-60 -217 -143 -545.5t-120 -498.5l190 -14l-73 -50h-83q-192 1 -233 1q-56 0 -166 -1zM794 1281q-117 249 -171 348q6 4 95 50q75 -208 126 -386
q-22 -7 -50 -12z" />
    <glyph glyph-name="Iacute" unicode="&#xcd;" horiz-adv-x="778" 
d="M166 1l75 50l119 14q36 125 128 486q112 439 139 558l-184 13l72 50h73h84l244 1q16 0 69 -1l-72 -50l-119 -13q-190 -696 -263 -1044l190 -14l-73 -50h-83q-192 1 -233 1q-56 0 -166 -1zM590 1294q108 142 241 328l42 57l92 -43q-183 -187 -327 -356z" />
    <glyph glyph-name="Icircumflex" unicode="&#xce;" horiz-adv-x="778" 
d="M166 1l75 50l119 14q36 125 128 486q112 439 139 558l-184 13l72 50h73h84l244 1q16 0 69 -1l-72 -50l-119 -13q-190 -696 -263 -1044l190 -14l-73 -50h-83q-192 1 -233 1q-56 0 -166 -1zM559 1337q251 252 354 339q22 6 29 6q10 0 27 -6q10 -142 23 -287l5 -67
q-22 -12 -73 -42q-4 31 -19 143q-5 37 -22 132q-106 -84 -315 -275q-2 13 -2 19q-3 22 -7 38z" />
    <glyph glyph-name="Idieresis" unicode="&#xcf;" horiz-adv-x="778" 
d="M166 1l75 50l119 14q35 122 128 486q112 439 139 558l-184 13l72 50h73h84l244 1q16 0 69 -1l-72 -50l-119 -13q-60 -217 -143 -545.5t-120 -498.5l190 -14l-73 -50h-83q-191 1 -233 1q-56 0 -166 -1zM852 1332q-57 82 -79 143q46 30 142 108q7 -18 11 -26
q23 -53 59 -114q-15 -12 -23 -18q-42 -32 -110 -93zM580 1332q-57 83 -78 143q53 35 141 108q8 -18 12 -26q23 -54 58 -114q-15 -12 -23 -18q-47 -36 -110 -93z" />
    <glyph glyph-name="Eth" unicode="&#xd0;" horiz-adv-x="1433" 
d="M645 580q-56 2 -76 2q-40 0 -120 -5l114 79q33 -3 99 -5l120 478q-174 -17 -281 -92q-157 -110 -157 -325q0 -49 13 -116l-167 -76q-14 64 -14 115q0 163 93 282q173 220 549 281l146 62l-15 -59q272 -14 392 -67q213 -93 213 -309q0 -203 -102 -401q-76 -147 -207 -237
q-82 -57 -183 -103t-177 -61q-120 -25 -449 -25h-260l98 96q91 10 131 22q98 28 160 178q21 49 64 222zM794 580q-50 -186 -87 -247q-47 -79 -216 -233l262 -7l32 -1q157 0 254 40q181 76 271 313q66 173 66 338q0 104 -42.5 184.5t-116.5 119.5q-85 44 -284 51l-121 -486
h76l107 -1q98 5 166 5l-85 -76h-282z" />
    <glyph glyph-name="Ntilde" unicode="&#xd1;" horiz-adv-x="1433" 
d="M181 142q73 -7 127 -7q67 0 103 12.5t65 46.5q106 122 270 828q-91 4 -156 4q-127 0 -193 -35q-92 -50 -92 -147q0 -67 67 -207l-143 -96q-51 106 -51 180q0 97 80 213q54 78 123.5 135t131.5 75q64 19 156 19q53 0 113 -7l71 65l36 -135q134 -500 184 -656t122 -297
q26 100 96 408q75 333 118 454t117 206q159 185 284 185q26 0 64 -4l-77 -137q-33 5 -54 5q-71 0 -112.5 -26.5t-73.5 -92.5q-49 -102 -91 -236.5t-107 -402.5q-64 -260 -105 -472q62 -117 124 -183q110 -116 227 -116q68 0 116 45.5t94 153.5l49 -183q-126 -71 -271 -71
q-360 0 -547 379q-96 194 -179 543q-23 95 -74 318q-97 -392 -133 -487q-70 -183 -181 -305q-61 -67 -123.5 -93t-160.5 -26q-40 0 -113 4zM927 1379q74 102 120 139.5t95 37.5q32 0 56 -9t83 -42q74 -42 119 -42q55 0 109 39q18 13 72 65l22 -35q-82 -102 -125 -136.5
t-89 -34.5q-36 0 -67 12t-109 56q-60 34 -102 34q-38 0 -69 -24t-88 -97z" />
    <glyph glyph-name="Ograve" unicode="&#xd2;" horiz-adv-x="1229" 
d="M998 1210q168 0 254 -107q83 -102 83 -291q0 -197 -71 -372q-90 -223 -335 -363q-182 -104 -368 -104q-171 0 -259.5 102t-88.5 299q0 222 88 406q105 221 348 340q183 90 349 90zM879 1130q-130 0 -242 -82q-128 -92 -198 -275q-58 -150 -58 -319q0 -181 72 -285
q79 -114 228 -114q133 0 247 89q130 101 193 306q46 149 46 299q0 171 -71 273q-74 108 -217 108zM982 1281q-116 248 -171 348l95 50q75 -208 126 -386q-22 -7 -50 -12z" />
    <glyph glyph-name="Oacute" unicode="&#xd3;" horiz-adv-x="1229" 
d="M998 1210q164 0 250.5 -102t86.5 -295q0 -198 -71 -373q-90 -223 -335 -363q-182 -104 -368 -104q-171 0 -259.5 102t-88.5 299q0 222 88 406q105 221 348 340q183 90 349 90zM879 1130q-130 0 -242 -82q-128 -92 -198 -275q-58 -150 -58 -319q0 -181 72 -285
q79 -114 228 -114q133 0 247 89q130 101 193 306q46 149 46 299q0 171 -71 273q-74 108 -217 108zM837 1294q108 142 241 328l42 57l92 -43q-184 -188 -327 -356z" />
    <glyph glyph-name="Ocircumflex" unicode="&#xd4;" horiz-adv-x="1229" 
d="M998 1210q168 0 254 -107q83 -102 83 -291q0 -197 -71 -372q-90 -223 -335 -363q-182 -104 -368 -104q-171 0 -259.5 102t-88.5 299q0 222 88 406q105 221 348 340q183 90 349 90zM879 1130q-130 0 -242 -82q-128 -92 -198 -275q-58 -150 -58 -319q0 -181 72 -285
q79 -114 228 -114q133 0 247 89q130 101 193 306q46 149 46 299q0 171 -71 273q-74 108 -217 108zM736 1337q247 249 354 339q22 6 29 6q9 0 27 -6q10 -152 28 -354q-22 -12 -73 -42q-4 31 -20 143q-5 41 -21 132q-110 -87 -315 -275q-2 13 -3 19q-2 22 -6 38z" />
    <glyph glyph-name="Otilde" unicode="&#xd5;" horiz-adv-x="1229" 
d="M998 1210q168 0 254 -107q83 -102 83 -291q0 -197 -71 -372q-90 -223 -335 -363q-182 -104 -368 -104q-171 0 -259.5 102t-88.5 299q0 222 88 406q106 221 348 340q183 90 349 90zM879 1130q-130 0 -242 -82q-128 -92 -198 -275q-58 -150 -58 -319q0 -181 72 -285
q79 -114 228 -114q133 0 247 89q130 101 193 306q46 149 46 299q0 171 -71 273q-74 108 -217 108zM713 1379q75 102 120.5 139.5t94.5 37.5q31 0 55.5 -9t83.5 -42q74 -42 119 -42q55 0 109 39q17 13 72 65l21 -35q-80 -101 -123.5 -136t-89.5 -35q-36 0 -67 12t-110 56
q-59 34 -101 34q-38 0 -69 -24t-88 -97z" />
    <glyph glyph-name="Odieresis" unicode="&#xd6;" horiz-adv-x="1229" 
d="M998 1210q168 0 254 -107q83 -102 83 -291q0 -197 -71 -372q-90 -223 -335 -363q-182 -104 -368 -104q-171 0 -259.5 102t-88.5 299q0 222 88 406q105 221 348 340q183 90 349 90zM879 1130q-130 0 -242 -82q-128 -92 -198 -275q-58 -150 -58 -319q0 -181 72 -285
q79 -114 228 -114q133 0 247 89q130 101 193 306q46 149 46 299q0 171 -71 273q-74 108 -217 108zM1100 1332q-56 79 -79 143q44 29 141 108q8 -18 12 -26q22 -53 59 -114q-68 -52 -133 -111zM828 1332q-56 81 -78 143q51 34 141 108q34 -80 70 -140q-70 -53 -133 -111z" />
    <glyph glyph-name="multiply" unicode="&#xd7;" horiz-adv-x="1065" 
d="M631 527l341 341l79 -78l-342 -341l342 -342l-79 -78l-341 341l-342 -341l-78 78l342 342l-342 341l78 78z" />
    <glyph glyph-name="Oslash" unicode="&#xd8;" horiz-adv-x="1352" 
d="M383 54q-59 60 -84 133.5t-25 185.5q0 224 88 407q106 223 348 340q184 90 358 90q86 0 167 -41q90 120 194 244l7 -23l6 -23l6 -23q-94 -117 -165 -209q56 -55 80 -116q33 -85 33 -207q0 -196 -71 -372q-90 -223 -335 -363q-182 -104 -372 -104q-88 0 -177 41
q-67 -91 -193 -284q-16 45 -23 100q58 92 158 224zM494 202q136 181 313 407q189 244 334 435q-77 86 -204 86q-106 0 -201 -56t-164 -159q-130 -196 -130 -460q0 -157 52 -253zM1175 994q-383 -498 -640 -851q82 -88 206 -88q134 0 248 89q130 101 193 306q46 149 46 300
q0 147 -53 244z" />
    <glyph glyph-name="Ugrave" unicode="&#xd9;" horiz-adv-x="1515" 
d="M1593 1175q-107 -384 -176.5 -678.5t-69.5 -364.5q0 -37 17.5 -53t57.5 -16q66 0 149 8l-43 -51q-225 -48 -313 -48q-56 0 -56 46q0 22 15 101q-338 -146 -491 -146q-110 0 -170 76q-55 70 -55 174q0 141 78.5 327t255.5 465q-115 39 -191 39q-93 0 -156 -46
q-81 -59 -81 -149q0 -73 69 -204l-137 -110q-59 121 -59 199q0 109 93 228q81 105 167.5 152t198.5 47q48 0 188 -23q14 6 21 10q35 16 64 26l12 -17q-124 -167 -209 -349q-146 -312 -146 -516q0 -108 51.5 -171.5t139.5 -63.5q79 0 157 25.5t206 94.5q28 107 98 389
q103 411 125 514q-54 2 -94 2h-35l54 50q155 17 265 33zM1247 1281q-116 249 -170 348l94 50q73 -200 127 -386q-22 -7 -51 -12z" />
    <glyph glyph-name="Uacute" unicode="&#xda;" horiz-adv-x="1515" 
d="M1593 1175q-107 -384 -176.5 -678.5t-69.5 -364.5q0 -37 17.5 -53t57.5 -16q66 0 149 8l-43 -51q-225 -48 -313 -48q-56 0 -56 46q0 22 15 101q-338 -146 -491 -146q-110 0 -170 76q-55 70 -55 174q0 141 78.5 327t255.5 465q-115 39 -191 39q-93 0 -156 -46
q-81 -59 -81 -149q0 -73 69 -204l-137 -110q-59 121 -59 199q0 109 93 228q81 105 167.5 152t198.5 47q48 0 188 -23q14 6 21 10q35 16 64 26l12 -17q-124 -167 -209 -349q-146 -312 -146 -516q0 -108 51.5 -171.5t139.5 -63.5q79 0 157 25.5t206 94.5q28 107 98 389
q103 411 125 514q-54 2 -94 2h-35l54 50q155 17 265 33zM1108 1294q111 146 242 328l41 57l92 -43q-180 -184 -327 -356z" />
    <glyph glyph-name="Ucircumflex" unicode="&#xdb;" horiz-adv-x="1515" 
d="M1593 1175q-107 -384 -176.5 -678.5t-69.5 -364.5q0 -37 17.5 -53t57.5 -16q66 0 149 8l-43 -51q-225 -48 -313 -48q-56 0 -56 46q0 22 15 101q-338 -146 -491 -146q-110 0 -170 76q-55 70 -55 174q0 141 78.5 327t255.5 465q-115 39 -191 39q-93 0 -156 -46
q-81 -59 -81 -149q0 -73 69 -204l-137 -110q-59 121 -59 199q0 109 93 228q81 105 167.5 152t198.5 47q48 0 188 -23q14 6 21 10q35 16 64 26l12 -17q-124 -167 -209 -349q-146 -312 -146 -516q0 -108 51.5 -171.5t139.5 -63.5q79 0 157 25.5t206 94.5q28 107 98 389
q103 411 125 514q-54 2 -94 2h-35l54 50q155 17 265 33zM974 1337q251 252 354 339q22 6 29 6q10 0 27 -6q10 -140 23 -287l5 -67q-22 -12 -72 -42q-5 31 -20 143q-5 37 -22 132q-104 -82 -315 -275q-2 13 -2 19q-3 22 -7 38z" />
    <glyph glyph-name="Udieresis" unicode="&#xdc;" horiz-adv-x="1515" 
d="M1593 1175q-107 -384 -176.5 -678.5t-69.5 -364.5q0 -37 17.5 -53t57.5 -16q66 0 149 8l-43 -51q-225 -48 -313 -48q-56 0 -56 46q0 22 15 101q-338 -146 -491 -146q-110 0 -170 76q-55 70 -55 174q0 141 78.5 327t255.5 465q-115 39 -191 39q-93 0 -156 -46
q-81 -59 -81 -149q0 -73 69 -204l-137 -110q-59 121 -59 199q0 109 93 228q81 105 167.5 152t198.5 47q48 0 188 -23q14 6 21 10q35 16 64 26l12 -17q-124 -167 -209 -349q-146 -312 -146 -516q0 -108 51.5 -171.5t139.5 -63.5q79 0 157 25.5t206 94.5q28 107 98 389
q103 411 125 514q-54 2 -94 2h-35l54 50q155 17 265 33zM1365 1332q-55 78 -78 143q42 28 141 108q8 -18 11 -26q22 -51 60 -114q-70 -52 -134 -111zM1094 1332q-57 81 -79 143q53 35 141 108q8 -18 12 -26q22 -52 59 -114q-74 -56 -133 -111z" />
    <glyph glyph-name="Yacute" unicode="&#xdd;" horiz-adv-x="1147" 
d="M135 -156q106 -9 150 -9q133 0 213.5 34.5t137.5 115.5q82 117 140 276q40 109 40 260q0 249 -82 403q-33 63 -91.5 100.5t-120.5 37.5q-95 0 -159.5 -74t-64.5 -183q0 -79 41 -205l-157 -99q-42 94 -42 187q0 128 100 257q87 113 218 180q106 54 205 54q71 0 132 -40.5
t94 -108.5q56 -118 56 -287q0 -85 -23 -226q185 387 291 537q72 102 134.5 146.5t133.5 44.5q44 0 82 -33l-58 -149q-59 24 -101 24q-48 0 -87.5 -27.5t-84.5 -91.5q-42 -60 -88 -146.5t-206 -408.5q-153 -308 -246.5 -454t-169.5 -196q-64 -42 -143.5 -58.5t-220.5 -16.5
q-47 0 -94 4zM1020 1294q118 156 242 328l42 57l91 -43q-182 -186 -326 -356z" />
    <glyph glyph-name="Thorn" unicode="&#xde;" horiz-adv-x="1106" 
d="M699 1095h-34q-68 -1 -110 -1h-101h-108l86 84h458q180 0 343 20l-5 -20q-103 -49 -168 -63t-205 -19l-33 -132q63 1 92 1q354 0 354 -204q0 -115 -65 -216t-177 -161q-177 -94 -376 -109l-12 -50l-15 -60l-20 -79q211 3 343 19l-5 -19q-133 -62 -227 -73t-495 -11h-143
l86 84h286q125 468 202 810q-101 -11 -161 -31.5t-112 -59.5q-56 -44 -88.5 -116t-32.5 -153q0 -58 26 -155l-151 -92q-33 95 -33 165q0 251 248 400q131 79 319 101zM670 356q40 -10 73 -10q150 0 243 100q47 51 75.5 127.5t28.5 152.5q0 182 -204 182q-36 0 -78 -2z" />
    <glyph glyph-name="germandbls" unicode="&#xdf;" horiz-adv-x="860" 
d="M252 739q49 44 117 75q28 129 57.5 205t80.5 146q70 96 173 159q113 69 218 69q60 0 99 -40.5t39 -101.5q0 -60 -39.5 -133.5t-173.5 -261.5q-76 -106 -76 -163q0 -33 12.5 -55.5t72.5 -95.5q67 -81 67 -163q0 -85 -73 -191q-79 -116 -154 -156t-212 -40q-43 0 -99 6
l81 131q69 -20 137 -20q80 0 135 43q68 54 68 126t-79 158q-63 68 -83 103t-20 75q0 31 12 55t52 72q34 41 93.5 126t78.5 121q65 117 65 197q0 55 -28 88.5t-74 33.5q-62 0 -118 -49t-94 -137q-15 -35 -39.5 -138t-156.5 -689q-51 -223 -86 -335t-78 -186
q-163 -281 -383 -281q-37 0 -104 10q12 25 73 139q107 -32 148 -32q72 0 119 66.5t80 213.5q144 638 161 720q2 86 -69 130z" />
    <glyph glyph-name="agrave" unicode="&#xe0;" horiz-adv-x="860" 
d="M1007 267l-2 -60q-322 -234 -373 -234q-33 0 -33 42q0 40 31 184q-194 -140 -264 -183t-105 -43q-37 0 -60 45t-23 119q0 148 73 359q35 101 72 147.5t133 113.5q78 54 119 69q44 16 127 16q123 0 259 -30q-37 -40 -61 -74q-122 -463 -122 -551q0 -42 24 -42t205 122z
M648 282q13 55 53 227q3 13 57 213q-116 26 -175 26q-52 0 -89.5 -35.5t-74.5 -119.5q-83 -191 -83 -360q0 -102 54 -102q40 0 145 70zM771 942q-115 246 -171 348q18 11 95 50q75 -208 126 -386q-22 -6 -50 -12z" />
    <glyph glyph-name="aacute" unicode="&#xe1;" horiz-adv-x="860" 
d="M1007 267l-2 -60q-322 -234 -373 -234q-33 0 -33 42q0 40 31 184q-194 -140 -264 -183t-105 -43q-37 0 -60 45t-23 119q0 148 73 359q35 101 72 147.5t133 113.5q78 54 119 69q44 16 127 16q123 0 259 -30q-37 -40 -61 -74q-122 -463 -122 -551q0 -42 24 -42t205 122z
M648 282q13 55 53 227q3 13 57 213q-116 26 -175 26q-52 0 -89.5 -35.5t-74.5 -119.5q-83 -191 -83 -360q0 -102 54 -102q40 0 145 70zM611 955q92 121 241 329l42 57l92 -44q-188 -192 -327 -355z" />
    <glyph glyph-name="acircumflex" unicode="&#xe2;" horiz-adv-x="860" 
d="M1007 267l-2 -60q-322 -234 -373 -234q-33 0 -33 42q0 40 31 184q-194 -140 -264 -183t-105 -43q-37 0 -60 45t-23 119q0 148 73 359q35 101 72 147.5t133 113.5q78 54 119 69q44 16 127 16q123 0 259 -30q-37 -40 -61 -74q-122 -463 -122 -551q0 -42 24 -42t205 122z
M648 282q13 55 53 227q3 13 57 213q-116 26 -175 26q-52 0 -89.5 -35.5t-74.5 -119.5q-83 -191 -83 -360q0 -102 54 -102q40 0 145 70zM498 1000q251 252 354 338q23 6 28 6q10 0 27 -6q9 -134 23 -287l6 -67q-31 -17 -73 -42l-7 47q-17 126 -35 228q-104 -82 -314 -275
q-2 13 -3 19q-3 22 -6 39z" />
    <glyph glyph-name="atilde" unicode="&#xe3;" horiz-adv-x="860" 
d="M1007 267l-2 -60q-322 -234 -373 -234q-32 0 -32 43q0 39 30 183q-194 -140 -264 -183t-105 -43q-37 0 -60 45t-23 119q0 148 73 359q35 101 72 147.5t133 113.5q78 54 119 69q44 16 127 16q123 0 259 -30q-37 -40 -61 -74q-122 -463 -122 -551q0 -42 24 -42t205 122z
M648 282q13 55 53 227q3 13 57 213q-116 26 -175 26q-52 0 -89.5 -35.5t-74.5 -119.5q-83 -191 -83 -360q0 -102 54 -102q40 0 145 70zM375 1048q74 102 120 139.5t95 37.5q31 0 55.5 -9t83.5 -42q74 -42 118 -42q56 0 110 39q17 13 72 65l21 -36q-84 -104 -125.5 -137
t-87.5 -33q-37 0 -67 11.5t-110 56.5q-59 34 -101 34q-38 0 -69.5 -24t-87.5 -98z" />
    <glyph glyph-name="adieresis" unicode="&#xe4;" horiz-adv-x="860" 
d="M1007 267l-2 -60q-322 -234 -373 -234q-33 0 -33 42q0 40 31 184q-194 -140 -264 -183t-105 -43q-37 0 -60 45t-23 119q0 148 73 359q35 101 72 147.5t133 113.5q78 54 119 69q44 16 127 16q123 0 259 -30q-37 -40 -61 -74q-122 -463 -122 -551q0 -42 24 -42t205 122z
M648 282q13 55 53 227q3 13 57 213q-116 26 -175 26q-52 0 -89.5 -35.5t-74.5 -119.5q-83 -191 -83 -360q0 -102 54 -102q40 0 145 70zM868 1002q-56 81 -78 143q38 26 141 108q33 -78 70 -140q-70 -53 -133 -111zM596 1002q-57 84 -78 143q44 29 141 108q34 -78 71 -140
q-73 -55 -134 -111z" />
    <glyph glyph-name="aring" unicode="&#xe5;" horiz-adv-x="860" 
d="M1007 267l-2 -60q-322 -234 -373 -234q-33 0 -33 42q0 40 31 184q-194 -140 -264 -183t-105 -43q-37 0 -60 45t-23 119q0 148 73 359q35 101 72 147.5t133 113.5q78 54 119 69q44 16 127 16q123 0 259 -30q-37 -40 -61 -74q-122 -463 -122 -551q0 -42 24 -42t205 122z
M648 282q13 55 53 227q3 13 57 213q-116 26 -175 26q-52 0 -89.5 -35.5t-74.5 -119.5q-83 -191 -83 -360q0 -102 54 -102q40 0 145 70zM808 1311q65 0 102 -33.5t37 -93.5q0 -104 -79 -178q-67 -62 -157 -62q-64 0 -99.5 34t-35.5 95q0 103 65.5 170.5t166.5 67.5zM779 1266
q-50 0 -82.5 -48.5t-32.5 -122.5q0 -47 19.5 -76.5t50.5 -29.5q48 0 82.5 51t34.5 122q0 104 -72 104z" />
    <glyph glyph-name="ae" unicode="&#xe6;" horiz-adv-x="1106" 
d="M1204 212q-108 -98 -180 -146q-139 -93 -252 -93q-73 0 -117.5 48.5t-44.5 126.5q0 21 1 46q-174 -128 -249.5 -174.5t-111.5 -46.5q-29 0 -50.5 48.5t-21.5 114.5q0 101 33.5 232t82.5 220q27 50 62 83.5t119 90.5q117 79 195 79q67 0 126 -66q13 19 19 29q39 59 65 94
q16 4 21 4q7 0 19 -4q-8 -19 -56 -144q126 88 206 88q118 0 118 -124q0 -91 -76.5 -166t-352.5 -257q-1 -21 -1 -35q0 -68 25 -113q32 -57 96 -57q59 0 131.5 42t193.5 146v-66zM621 269q39 205 100 368q-52 108 -135 108q-113 0 -191 -209q-59 -156 -59 -280
q0 -125 53 -125q24 0 59.5 21t172.5 117zM766 362q166 116 201 150q74 72 74 157q0 87 -58 87q-67 0 -127 -108.5t-90 -285.5z" />
    <glyph glyph-name="ccedilla" unicode="&#xe7;" horiz-adv-x="696" 
d="M380 -131q53 -16 53 -79q0 -70 -71 -127q-80 -63 -207 -98l-30 28q74 21 127 62.5t53 77.5q0 37 -55 79l141 169q-28 -8 -52 -8q-161 0 -161 187q0 96 28.5 213.5t72.5 198.5q34 64 74.5 102t155.5 111q57 36 81 46t52 10q54 0 85.5 -38t31.5 -103v-23l-119 -70
q-16 128 -88 128q-89 0 -153 -164q-63 -161 -63 -325q0 -67 24 -105q31 -51 93 -51q96 0 331 171l-3 -67l-309 -199z" />
    <glyph glyph-name="egrave" unicode="&#xe8;" horiz-adv-x="696" 
d="M778 280l-2 -59q-78 -81 -152 -133q-159 -115 -278 -115q-78 0 -123 52.5t-45 144.5q0 124 44.5 269.5t103.5 215.5q65 77 189 149q64 37 124 37q55 0 86 -30.5t31 -83.5q0 -70 -35 -125t-119 -119q-150 -113 -272 -190q-1 -74 10 -115q10 -40 39.5 -64t68.5 -24
q58 0 132.5 42.5t197.5 147.5zM336 366q161 105 216.5 167t55.5 138q0 38 -15.5 61t-40.5 23q-80 0 -149 -155q-48 -110 -67 -234zM647 941q-100 225 -170 348l94 52q79 -223 127 -387z" />
    <glyph glyph-name="eacute" unicode="&#xe9;" horiz-adv-x="696" 
d="M778 280l-1 -59q-250 -248 -432 -248q-78 0 -122.5 53t-44.5 146q0 124 44 266.5t104 215.5q70 84 189 150q68 37 127 37q53 0 83.5 -32t30.5 -87q0 -65 -35.5 -120.5t-117.5 -118.5q-86 -65 -272 -190q-1 -25 -1 -33q0 -103 48 -145q28 -25 67 -25q61 0 126 37t207 153z
M336 366q171 115 222 172t51 133q0 38 -16 61t-41 23q-67 0 -126.5 -107t-89.5 -282zM461 955q108 143 241 329l42 57l91 -44q-185 -190 -326 -355z" />
    <glyph glyph-name="ecircumflex" unicode="&#xea;" horiz-adv-x="696" 
d="M778 280l-1 -59q-250 -248 -432 -248q-78 0 -122.5 53t-44.5 146q0 124 44 266.5t104 215.5q70 84 189 150q68 37 127 37q53 0 83.5 -32t30.5 -87q0 -65 -35.5 -120.5t-117.5 -118.5q-86 -65 -272 -190q-1 -25 -1 -33q0 -102 48 -145q28 -25 67 -25q61 0 126 37t207 153z
M336 366q171 115 222 172t51 133q0 38 -16 61t-41 23q-67 0 -126.5 -107t-89.5 -282zM375 1000q251 252 354 338q23 6 29 6q10 0 26 -6q10 -142 23 -287l6 -67q-31 -17 -73 -42q-5 31 -20 143q-5 38 -22 132q-108 -86 -314 -275q-2 13 -3 19q-2 22 -6 39z" />
    <glyph glyph-name="edieresis" unicode="&#xeb;" horiz-adv-x="696" 
d="M778 280l-1 -59q-250 -248 -432 -248q-78 0 -122.5 53t-44.5 146q0 124 44 266.5t104 215.5q70 84 189 150q68 37 127 37q53 0 83.5 -32t30.5 -87q0 -65 -35.5 -120.5t-117.5 -118.5q-86 -65 -272 -190q-1 -25 -1 -33q0 -103 48 -145q28 -25 67 -25q61 0 126 37t207 153z
M336 366q171 115 222 172t51 133q0 38 -16 61t-41 23q-67 0 -126.5 -107t-89.5 -282zM704 1002q-55 80 -78 143q38 25 141 108q33 -78 70 -140q-70 -53 -133 -111zM433 1002q-57 83 -79 143q45 30 142 108q33 -78 70 -140q-74 -56 -133 -111z" />
    <glyph glyph-name="igrave" unicode="&#xec;" horiz-adv-x="491" 
d="M637 238l-14 -59q-56 -34 -172 -110q-148 -96 -194 -96q-23 0 -36.5 22.5t-13.5 59.5q0 39 12 90.5t83 318.5q38 141 38 174q0 36 -24 36q-21 0 -150 -70l5 58q267 180 323 180q24 0 24 -21q0 -15 -76 -327q-67 -271 -67 -306q0 -57 36 -57q29 0 191 88zM513 942
q-114 244 -171 348q15 9 95 50q75 -208 126 -386q-21 -6 -50 -12z" />
    <glyph glyph-name="iacute" unicode="&#xed;" horiz-adv-x="491" 
d="M637 238l-14 -59q-56 -34 -172 -110q-148 -96 -194 -96q-23 0 -36.5 22.5t-13.5 59.5q0 39 12 90.5t83 318.5q38 141 38 174q0 36 -24 36q-21 0 -150 -70l5 58q267 180 323 180q24 0 24 -21q0 -15 -76 -327q-67 -271 -67 -306q0 -57 36 -57q29 0 191 88zM359 955
q106 141 241 329l42 57l91 -44q-187 -192 -326 -355z" />
    <glyph glyph-name="icircumflex" unicode="&#xee;" horiz-adv-x="491" 
d="M637 238l-14 -59q-56 -34 -172 -110q-148 -96 -194 -96q-23 0 -36.5 22.5t-13.5 59.5q0 39 12 90.5t83 318.5q38 141 38 174q0 36 -24 36q-21 0 -150 -70l5 58q267 180 323 180q24 0 24 -21q0 -15 -76 -327q-67 -271 -67 -306q0 -57 36 -57q29 0 191 88zM272 1000
q251 251 355 338q23 6 28 6q10 0 27 -6q10 -142 23 -287l6 -67q-31 -17 -73 -42q-5 31 -20 143q-5 38 -22 132q-107 -85 -314 -275q-2 13 -3 19q-3 22 -7 39z" />
    <glyph glyph-name="idieresis" unicode="&#xef;" horiz-adv-x="491" 
d="M637 238l-14 -59q-56 -34 -172 -110q-148 -96 -194 -96q-23 0 -36.5 22.5t-13.5 59.5q0 39 12 90.5t83 318.5q38 141 38 174q0 36 -24 36q-21 0 -150 -70l5 58q267 180 323 180q24 0 24 -21q0 -15 -76 -327q-67 -271 -67 -306q0 -57 36 -57q29 0 191 88zM602 1002
q-56 81 -78 143q38 26 141 108q33 -78 70 -140q-70 -53 -133 -111zM331 1002q-57 83 -79 143q45 30 141 108q34 -78 71 -140q-74 -56 -133 -111z" />
    <glyph glyph-name="eth" unicode="&#xf0;" horiz-adv-x="819" 
d="M429 1334l46 34q140 -53 225 -120l381 163l60 -37l-388 -173q185 -188 185 -474q0 -162 -64.5 -336t-151.5 -248q-80 -68 -190.5 -119t-176.5 -51q-79 0 -128 54.5t-49 143.5q0 182 91 365q29 59 79.5 107t151.5 112q126 81 204 81q37 0 56.5 -7.5t45.5 -31.5
q-18 214 -137 366l-283 -122l-63 40l298 129q-93 78 -192 124zM625 749q-63 0 -138 -77q-66 -68 -108.5 -184t-42.5 -229q0 -71 27 -122q16 -31 46.5 -49.5t64.5 -18.5q119 0 211 181q79 156 79 306q0 77 -30 123q-46 70 -109 70z" />
    <glyph glyph-name="ntilde" unicode="&#xf1;" horiz-adv-x="942" 
d="M182 -20q24 89 76 276q90 325 90 399q0 29 -24 29q-21 0 -158 -61l13 52q281 167 321 167q26 0 26 -26q0 -13 -17 -87t-33 -126l48 29l112 70q167 102 203.5 121t68.5 19q40 0 40 -34q0 -13 -51 -196q-68 -246 -83.5 -310t-15.5 -106q0 -55 32 -55q23 0 189 95l46 27
l-15 -59q-214 -157 -378 -238q-31 54 -31 93q0 45 53 256q76 303 76 343q0 26 -21 26q-31 0 -241 -131l-52 -32l-121 -483zM395 1048q75 102 121 139.5t95 37.5q31 0 55.5 -9t83.5 -42q74 -42 118 -42q55 0 109 39q19 14 73 65l21 -36q-83 -103 -125 -136.5t-89 -33.5
q-36 0 -66 11.5t-110 56.5q-60 34 -101 34q-38 0 -69.5 -24t-88.5 -98z" />
    <glyph glyph-name="ograve" unicode="&#xf2;" horiz-adv-x="819" 
d="M734 841q86 0 139 -57q46 -50 46 -131q0 -163 -91 -359q-37 -80 -87.5 -130t-152.5 -108q-146 -83 -233 -83q-81 0 -129 55t-48 149q0 152 62.5 296.5t160.5 217.5q91 68 182 109t151 41zM628 745q-69 0 -142 -75q-65 -68 -107.5 -183.5t-42.5 -224.5q0 -74 27 -125
q15 -31 45.5 -49.5t64.5 -18.5q119 0 209 180q79 157 79 294q0 82 -28 135q-35 67 -105 67zM730 942q-113 242 -171 348q26 15 95 50q75 -208 126 -386q-22 -6 -50 -12z" />
    <glyph glyph-name="oacute" unicode="&#xf3;" horiz-adv-x="819" 
d="M734 841q86 0 139 -57q46 -50 46 -131q0 -162 -91 -359q-37 -79 -87.5 -129.5t-152.5 -108.5q-146 -83 -233 -83q-81 0 -129 55.5t-48 148.5q0 152 62.5 296.5t160.5 217.5q91 68 181.5 109t151.5 41zM628 745q-69 0 -142 -75q-65 -68 -107.5 -183.5t-42.5 -224.5
q0 -74 27 -125q15 -31 46 -49.5t64 -18.5q119 0 209 180q79 157 79 294q0 82 -28 135q-35 67 -105 67zM545 955q109 145 241 329l42 57l91 -44q-186 -191 -326 -355z" />
    <glyph glyph-name="ocircumflex" unicode="&#xf4;" horiz-adv-x="819" 
d="M734 841q86 0 139 -57q46 -50 46 -131q0 -163 -91 -359q-37 -80 -87.5 -130t-152.5 -108q-146 -83 -233 -83q-81 0 -129 55t-48 149q0 152 62.5 296.5t160.5 217.5q91 68 182 109t151 41zM628 745q-69 0 -142 -75q-65 -68 -107.5 -183.5t-42.5 -224.5q0 -74 27 -125
q15 -31 45.5 -49.5t64.5 -18.5q119 0 209 180q79 157 79 294q0 82 -28 135q-35 67 -105 67zM473 1000q250 251 354 338q23 6 29 6q10 0 27 -6q9 -142 22 -287l6 -67q-31 -17 -73 -42q-4 31 -20 143q-5 38 -22 132q-105 -83 -314 -275q-2 13 -3 19q-2 22 -6 39z" />
    <glyph glyph-name="otilde" unicode="&#xf5;" horiz-adv-x="819" 
d="M735 841q82 0 133.5 -52.5t51.5 -135.5q0 -162 -91 -359q-37 -79 -87.5 -129.5t-152.5 -108.5q-146 -83 -234 -83q-81 0 -129 55.5t-48 148.5q0 152 62.5 296.5t160.5 217.5q91 68 182 109t152 41zM629 745q-70 0 -143 -75q-65 -68 -107.5 -183.5t-42.5 -225.5
q0 -73 27 -124q15 -31 46 -49.5t64 -18.5q120 0 210 180q79 157 79 294q0 82 -28 135q-35 67 -105 67zM334 1048q74 102 120 139.5t95 37.5q31 0 55.5 -9t83.5 -42q74 -42 118 -42q56 0 110 39q17 13 72 65l21 -36q-82 -103 -124.5 -136.5t-88.5 -33.5q-37 0 -67 11.5
t-110 56.5q-59 34 -101 34q-38 0 -69.5 -24t-87.5 -98z" />
    <glyph glyph-name="odieresis" unicode="&#xf6;" horiz-adv-x="819" 
d="M734 841q86 0 139 -57q46 -50 46 -131q0 -162 -91 -359q-37 -79 -87.5 -129.5t-152.5 -108.5q-146 -83 -233 -83q-81 0 -129 55.5t-48 148.5q0 152 62.5 296.5t160.5 217.5q91 68 181.5 109t151.5 41zM628 745q-69 0 -142 -75q-65 -68 -107.5 -183.5t-42.5 -224.5
q0 -74 27 -125q15 -31 46 -49.5t64 -18.5q119 0 209 180q79 157 79 294q0 82 -28 135q-35 67 -105 67zM786 1002q-56 81 -78 143q37 25 141 108q33 -78 70 -140q-71 -54 -133 -111zM515 1002q-57 83 -79 143q44 29 141 108q34 -78 71 -140q-72 -54 -133 -111z" />
    <glyph glyph-name="divide" unicode="&#xf7;" horiz-adv-x="1065" 
d="M633 244q50 0 87 -37.5t37 -88.5q0 -53 -37 -90t-89 -37q-53 0 -90 37t-37 91q0 52 37.5 88.5t91.5 36.5zM633 906q50 0 87 -37.5t37 -88.5q0 -53 -37 -90t-89 -37q-53 0 -90 37t-37 90t37.5 89.5t91.5 36.5zM1051 503v-110h-840v110h840z" />
    <glyph glyph-name="oslash" unicode="&#xf8;" horiz-adv-x="901" 
d="M188 -230q18 35 58 111q36 73 52 104q-56 31 -79 75t-23 122q0 204 110 387q30 51 68 86.5t110 81.5q91 58 152 81.5t126 25.5l24 45l55 97q52 93 75 134l40 -51q-17 -29 -68 -112l-72 -124q66 -29 93 -72t27 -119q0 -205 -130 -417q-27 -45 -74 -85t-133 -90
q-84 -50 -126.5 -63.5t-110.5 -14.5q-19 -38 -61 -128q-33 -71 -71 -148zM371 132l330 609q-28 9 -46 9q-135 0 -228 -177q-84 -160 -84 -319q0 -57 28 -122zM415 81q34 -15 62 -15q50 0 101 34t89 93q50 78 80.5 186t30.5 207q0 70 -29 127q-229 -420 -334 -632z" />
    <glyph glyph-name="ugrave" unicode="&#xf9;" horiz-adv-x="942" 
d="M968 850q-68 -196 -116.5 -393.5t-48.5 -277.5q0 -48 23 -48q30 0 235 123l-15 -61q-77 -58 -192 -129q-89 -54 -125.5 -72.5t-56.5 -18.5q-37 0 -37 47q0 63 28 177q-51 -35 -210 -138q-78 -51 -112.5 -68.5t-57.5 -17.5q-25 0 -41.5 28.5t-16.5 72.5q0 74 63 306
q58 213 58 256q0 38 -29 38q-33 0 -149 -59l14 55q112 69 207 120.5t111 51.5q25 0 25 -27q0 -19 -10 -54q-8 -24 -36 -145q-12 -49 -44 -167q-52 -191 -52 -261q0 -29 11 -48t28 -19q35 0 254 150l20 81q83 350 102 413zM730 942q-114 244 -171 348q15 9 95 50
q75 -208 126 -386q-21 -6 -50 -12z" />
    <glyph glyph-name="uacute" unicode="&#xfa;" horiz-adv-x="942" 
d="M968 850q-68 -196 -116.5 -393.5t-48.5 -277.5q0 -48 23 -48q30 0 235 123l-15 -61q-77 -58 -192 -129q-89 -54 -125.5 -72.5t-56.5 -18.5q-37 0 -37 47q0 63 28 177q-51 -35 -210 -138q-78 -51 -112.5 -68.5t-57.5 -17.5q-25 0 -41.5 28.5t-16.5 72.5q0 74 63 306
q58 213 58 256q0 38 -29 38q-33 0 -149 -59l14 55q112 69 207 120.5t111 51.5q25 0 25 -27q0 -19 -10 -54q-8 -24 -36 -145q-12 -49 -44 -167q-52 -191 -52 -261q0 -29 11 -48t28 -19q35 0 254 150l20 81q83 350 102 413zM604 955q106 141 242 329l41 57l92 -44
q-187 -192 -326 -355z" />
    <glyph glyph-name="ucircumflex" unicode="&#xfb;" horiz-adv-x="942" 
d="M968 850q-68 -196 -116.5 -393.5t-48.5 -277.5q0 -48 23 -48q30 0 235 123l-15 -61q-77 -58 -192 -129q-89 -54 -125.5 -72.5t-56.5 -18.5q-37 0 -37 47q0 63 28 177q-51 -35 -210 -138q-78 -51 -112.5 -68.5t-57.5 -17.5q-25 0 -41.5 28.5t-16.5 72.5q0 74 63 306
q58 213 58 256q0 38 -29 38q-33 0 -149 -59l14 55q112 69 207 120.5t111 51.5q25 0 25 -27q0 -19 -10 -54q-8 -24 -36 -145q-12 -49 -44 -167q-52 -191 -52 -261q0 -29 11 -48t28 -19q35 0 254 150l20 81q83 350 102 413zM498 1000q250 251 354 338q23 6 29 6q10 0 26 -6
q10 -142 23 -287l6 -67q-31 -17 -73 -42q-4 31 -20 143q-5 38 -22 132q-107 -85 -314 -275q-2 13 -3 19q-2 22 -6 39z" />
    <glyph glyph-name="udieresis" unicode="&#xfc;" horiz-adv-x="942" 
d="M968 850q-68 -196 -116.5 -393.5t-48.5 -277.5q0 -48 23 -48q30 0 235 123l-15 -61q-77 -58 -192 -129q-89 -54 -125.5 -72.5t-56.5 -18.5q-37 0 -37 47q0 63 28 177q-51 -35 -210 -138q-78 -51 -112.5 -68.5t-57.5 -17.5q-25 0 -41.5 28.5t-16.5 72.5q0 74 63 306
q58 213 58 256q0 38 -29 38q-33 0 -149 -59l14 55q112 69 207 120.5t111 51.5q25 0 25 -27q0 -19 -10 -54q-8 -24 -36 -145q-12 -49 -44 -167q-52 -191 -52 -261q0 -29 11 -48t28 -19q35 0 254 150l20 81q83 350 102 413zM848 1002q-56 81 -79 143q39 26 141 108
q35 -79 71 -140q-16 -12 -23 -18q-47 -35 -110 -93zM576 1002q-57 83 -78 143q45 30 141 108q34 -78 70 -140q-73 -56 -133 -111z" />
    <glyph glyph-name="yacute" unicode="&#xfd;" horiz-adv-x="819" 
d="M22 -493l83 138q150 -37 225 -37q86 0 137 24.5t77 77.5q28 60 96 385l23 108q-86 -63 -263 -173q-90 -57 -122 -57q-31 0 -51.5 32t-20.5 83q0 64 59 277q64 233 64 278q0 31 -30 31q-27 0 -143 -58l7 55q289 171 326 171q23 0 23 -24q0 -15 -50 -219q-88 -333 -88 -403
q0 -28 12.5 -46.5t31.5 -18.5q28 0 59 16.5t192 116.5l22 89l42 168l42 168l18 73q30 15 45 22q81 39 130 66q-95 -317 -180 -710q-54 -252 -82 -320.5t-117 -163.5q-110 -118 -201 -146q-65 -19 -142 -19q-118 0 -224 16zM604 955q106 141 241 329l42 57l91 -44
q-187 -192 -326 -355z" />
    <glyph glyph-name="thorn" unicode="&#xfe;" horiz-adv-x="901" 
d="M33 -451l82 8q91 327 237 986q81 366 101 441q28 104 46 142.5t55 78.5q102 105 170.5 146t143.5 41q38 0 99 -12l-87 -108q-69 14 -109 14q-42 0 -66 -17t-43 -61q-38 -85 -114 -408l-27 -113l-14 -56q103 75 165 119q128 91 200 91q53 0 84.5 -45t31.5 -119
q0 -85 -30 -197t-79 -210q-36 -73 -124 -144q-18 -14 -51 -41q-72 -59 -123.5 -80t-123.5 -21q-39 0 -97 11q-15 -67 -52 -220q-3 -10 -48 -218l235 -15l-65 -50q-66 -1 -96 -1q-147 0 -350 8zM396 135q83 -45 151 -45q128 0 213 183q81 174 81 314q0 54 -18 85.5t-49 31.5
q-43 0 -104 -33t-181 -121q-13 -59 -48 -211q-34 -154 -45 -204z" />
    <glyph glyph-name="ydieresis" unicode="&#xff;" horiz-adv-x="819" 
d="M23 -493l83 138q150 -37 226 -37q86 0 136.5 24.5t76.5 77.5q29 61 96 385l23 108q-86 -63 -263 -173q-90 -57 -122 -57q-31 0 -51.5 32.5t-20.5 82.5q0 43 9 85t50 192q64 238 64 278q0 31 -30 31q-27 0 -142 -58l6 55q289 171 326 171q23 0 23 -24q0 -15 -50 -219
q-88 -331 -88 -403q0 -29 12.5 -47t31.5 -18q27 0 62.5 18.5t188.5 114.5l22 89l42 168l42 168l18 73q151 74 175 88q-95 -317 -180 -710q-54 -253 -82 -321t-117 -163q-110 -118 -201 -146q-65 -19 -138 -19q-122 0 -228 16zM834 1002q-55 81 -78 143q44 29 141 108
q33 -78 71 -140q-67 -51 -134 -111zM563 1002q-57 83 -78 143q49 33 141 108q34 -80 70 -140q-70 -53 -133 -111z" />
    <glyph glyph-name="Amacron" unicode="&#x100;" horiz-adv-x="1270" 
d="M47 18l78 143q45 -14 89 -14q72 0 124.5 24t114.5 85q104 101 273 319l355 458q-80 6 -219 21q-40 4 -76 4q-118 0 -179 -51q-59 -48 -59 -134q0 -64 45 -191l-152 -83q-30 79 -30 141q0 116 79 220q81 106 178 166t187 60q59 0 187 -21q88 -15 116 -15q33 0 48 9t61 57
l29 -21q-48 -243 -96.5 -587t-48.5 -442q0 -53 22 -72.5t82 -19.5q24 0 152 10l-33 -49q-50 -8 -189 -34q-152 -28 -165 -28q-20 0 -33.5 13t-13.5 32q0 33 10 87q5 25 12 84q8 57 27 184q-143 9 -363 9q-202 -232 -300.5 -307t-202.5 -75q-49 0 -109 18zM724 465h310
l84 518zM876 1395q15 14 44 49q29 32 44 49h592q-20 -18 -45 -50q-24 -29 -37 -48h-598z" />
    <glyph glyph-name="amacron" unicode="&#x101;" horiz-adv-x="860" 
d="M1007 267l-2 -60q-322 -234 -373 -234q-33 0 -33 42q0 40 31 184q-194 -140 -264 -183t-105 -43q-37 0 -60 45t-23 119q0 148 73 359q35 101 72 147.5t133 113.5q78 54 119 69q44 16 127 16q123 0 259 -30q-37 -40 -61 -74q-122 -463 -122 -551q0 -42 24 -42t205 122z
M648 282q13 55 53 227q3 13 57 213q-116 26 -175 26q-52 0 -89.5 -35.5t-74.5 -119.5q-83 -191 -83 -360q0 -102 54 -102q40 0 145 70zM354 1064q15 15 43 49l45 49h592q-21 -18 -45 -50q-24 -29 -38 -48h-597z" />
    <glyph glyph-name="Abreve" unicode="&#x102;" horiz-adv-x="1270" 
d="M47 18l78 143q45 -14 89 -14q72 0 124.5 24t114.5 85q104 101 273 319l355 458q-80 6 -219 21q-40 4 -76 4q-118 0 -179 -51q-59 -48 -59 -134q0 -64 45 -191l-152 -83q-30 79 -30 141q0 116 79 220q81 106 178 166t187 60q59 0 187 -21q88 -15 116 -15q33 0 48 9t61 57
l29 -21q-48 -243 -96.5 -587t-48.5 -442q0 -53 22 -72.5t82 -19.5q24 0 152 10l-33 -49q-50 -8 -189 -34q-152 -28 -165 -28q-20 0 -33.5 13t-13.5 32q0 33 10 87q5 25 12 84q8 57 27 184q-143 9 -363 9q-202 -232 -300.5 -307t-202.5 -75q-49 0 -109 18zM724 465h310
l84 518zM833 1579l43 21q53 -88 115.5 -123.5t163.5 -35.5q65 0 132.5 17.5t109.5 45.5q52 35 87 102l31 -20q-22 -68 -92 -142q-48 -51 -127.5 -82t-162.5 -31q-228 0 -300 248z" />
    <glyph glyph-name="abreve" unicode="&#x103;" horiz-adv-x="860" 
d="M1007 267l-2 -60q-322 -234 -373 -234q-33 0 -33 42q0 40 31 184q-194 -140 -264 -183t-105 -43q-37 0 -60 45t-23 119q0 148 73 359q35 101 72 147.5t133 113.5q78 54 119 69q44 16 127 16q123 0 259 -30q-37 -40 -61 -74q-122 -463 -122 -551q0 -42 24 -42t205 122z
M648 282q13 55 53 227q3 13 57 213q-116 26 -175 26q-52 0 -89.5 -35.5t-74.5 -119.5q-83 -191 -83 -360q0 -102 54 -102q40 0 145 70zM395 1248l43 21q52 -88 115 -123.5t164 -35.5q65 0 132 17.5t110 45.5q52 35 87 102l31 -20q-24 -71 -92 -142q-50 -52 -129 -82.5
t-163 -30.5q-227 0 -298 248z" />
    <glyph glyph-name="Aogonek" unicode="&#x104;" horiz-adv-x="1270" 
d="M1022 373q-143 9 -363 9q-202 -232 -300.5 -307t-202.5 -75q-49 0 -109 18l78 143q45 -14 89 -14q72 0 124.5 24t114.5 85q104 101 273 319l355 458q-80 6 -219 21q-40 4 -76 4q-118 0 -179 -51q-59 -48 -59 -134q0 -64 45 -191l-152 -83q-30 79 -30 141q0 116 79 220
q81 106 178 166t187 60q59 0 187 -21q88 -15 116 -15q33 0 48 9t61 57l29 -21q-48 -243 -96.5 -587t-48.5 -442q0 -53 22 -72.5t82 -19.5q24 0 152 10l-33 -49q-39 -11 -56 -20t-50 -36q-97 -82 -97 -125q0 -29 23.5 -50t55.5 -21q44 0 101 59l27 -10q-97 -145 -216 -145
q-48 0 -78 29t-30 77q0 58 41.5 105.5t149.5 113.5q-21 -4 -60 -11q-152 -28 -165 -28q-20 0 -33.5 13t-13.5 32q0 33 10 87q5 25 12 84q8 57 27 184zM724 465h310l84 518z" />
    <glyph glyph-name="aogonek" unicode="&#x105;" horiz-adv-x="860" 
d="M1007 267l-2 -60q-125 -87 -227 -197q-99 -104 -99 -157q0 -29 23.5 -49.5t55.5 -20.5q44 0 101 59l27 -10q-97 -145 -216 -145q-49 0 -78.5 29.5t-29.5 78.5q0 105 126 198q-38 -20 -55 -20q-34 0 -34 42q0 40 31 184q-194 -140 -264 -183t-105 -43q-37 0 -60 45
t-23 119q0 148 73 359q35 101 72 147.5t133 113.5q78 54 119 69q44 16 127 16q123 0 259 -30q-37 -40 -61 -74q-122 -463 -122 -551q0 -42 24 -42t205 122zM648 282q13 55 53 227q3 13 57 213q-116 26 -175 26q-52 0 -89.5 -35.5t-74.5 -119.5q-83 -191 -83 -360
q0 -102 54 -102q40 0 145 70z" />
    <glyph glyph-name="Cacute" unicode="&#x106;" horiz-adv-x="1065" 
d="M1083 128l-15 -62q-134 -100 -288 -158t-288 -58q-157 0 -240 102q-72 89 -72 236q0 231 112 457q137 278 413 448q189 117 356 117q132 0 193 -75q35 -42 46 -130l-150 -129q-19 238 -198 238q-130 0 -264 -103q-181 -139 -274 -397q-66 -184 -66 -350q0 -136 66 -226
q69 -92 198 -92q204 0 471 182zM897 1294q117 156 241 328l42 57l92 -43q-183 -187 -327 -356z" />
    <glyph glyph-name="cacute" unicode="&#x107;" horiz-adv-x="696" 
d="M784 261l-3 -67q-144 -106 -262 -163.5t-192 -57.5q-71 0 -110 49t-39 138q0 96 28.5 213.5t72.5 198.5q33 64 74 102t156 111q57 36 81 46t52 10q54 0 85.5 -38t31.5 -103q0 -8 -1 -23l-118 -70q-16 128 -88 128q-89 0 -153 -164q-63 -161 -63 -325q0 -67 24 -105
q31 -51 93 -51q95 0 331 171zM529 955q106 141 241 329l42 57l92 -44q-187 -192 -327 -355z" />
    <glyph glyph-name="Ccircumflex" unicode="&#x108;" horiz-adv-x="1065" 
d="M1083 128l-15 -62q-134 -100 -288 -158t-288 -58q-157 0 -240 102q-72 89 -72 236q0 231 112 457q137 278 413 448q189 117 356 117q132 0 193 -75q35 -42 46 -130l-150 -129q-19 238 -198 238q-130 0 -264 -103q-181 -139 -274 -397q-66 -184 -66 -350q0 -136 66 -226
q69 -92 198 -92q204 0 471 182zM855 1337q251 253 354 339q22 6 29 6q10 0 27 -6q10 -142 22 -287l6 -67q-22 -12 -73 -42q-5 35 -20 143q-4 35 -21 132q-106 -84 -315 -275q-2 13 -3 19q-2 22 -6 38z" />
    <glyph glyph-name="ccircumflex" unicode="&#x109;" horiz-adv-x="696" 
d="M784 261l-3 -67q-144 -106 -262 -163.5t-192 -57.5q-71 0 -110 49t-39 138q0 96 28.5 213.5t72.5 198.5q33 64 74 102t156 111q57 36 81 46t52 10q54 0 85.5 -38t31.5 -103q0 -8 -1 -23l-118 -70q-16 128 -88 128q-89 0 -153 -164q-63 -161 -63 -325q0 -67 24 -105
q31 -51 93 -51q95 0 331 171zM453 1000q251 251 354 338q23 6 29 6q10 0 27 -6q10 -142 23 -287l5 -67q-30 -17 -73 -42l-6 47q-19 139 -35 228q-108 -85 -315 -275q-2 13 -2 19q-3 22 -7 39z" />
    <glyph glyph-name="Cdotaccent" unicode="&#x10a;" horiz-adv-x="1065" 
d="M1083 128l-15 -62q-134 -100 -288 -158t-288 -58q-157 0 -240 102q-72 89 -72 236q0 231 112 457q137 278 413 448q189 117 356 117q132 0 193 -75q35 -42 46 -130l-150 -129q-19 238 -198 238q-130 0 -264 -103q-181 -139 -274 -397q-66 -184 -66 -350q0 -136 66 -226
q69 -92 198 -92q204 0 471 182zM1103 1332q-56 82 -78 143q44 29 141 108q8 -18 11 -26q21 -50 59 -114q-75 -57 -133 -111z" />
    <glyph glyph-name="cdotaccent" unicode="&#x10b;" horiz-adv-x="696" 
d="M784 261l-3 -67q-144 -106 -262 -163.5t-192 -57.5q-71 0 -110 49t-39 138q0 96 28.5 213.5t72.5 198.5q33 64 74 102t156 111q57 36 81 46t52 10q54 0 85.5 -38t31.5 -103q0 -8 -1 -23l-118 -70q-16 128 -88 128q-89 0 -153 -164q-63 -161 -63 -325q0 -67 24 -105
q31 -51 93 -51q95 0 331 171zM623 1002q-57 83 -78 143q43 29 141 108q7 -17 11 -26q23 -54 59 -114q-76 -57 -133 -111z" />
    <glyph glyph-name="Ccaron" unicode="&#x10c;" horiz-adv-x="1065" 
d="M1083 128l-15 -62q-134 -100 -288 -158t-288 -58q-157 0 -240 102q-72 89 -72 236q0 231 112 457q137 278 413 448q189 117 356 117q132 0 193 -75q35 -42 46 -130l-150 -129q-19 238 -198 238q-130 0 -264 -103q-181 -139 -274 -397q-66 -184 -66 -350q0 -136 66 -226
q69 -92 198 -92q204 0 471 182zM1392 1623q-242 -244 -354 -338q-22 -6 -29 -6q-9 0 -26 6l-4 56q-10 136 -23 298q44 25 71 42q26 -191 42 -275q98 78 149 123l165 152z" />
    <glyph glyph-name="ccaron" unicode="&#x10d;" horiz-adv-x="696" 
d="M784 261l-3 -67q-144 -106 -262 -163.5t-192 -57.5q-71 0 -110 49t-39 138q0 96 28.5 213.5t72.5 198.5q33 64 74 102t156 111q57 36 81 46t52 10q54 0 85.5 -38t31.5 -103q0 -8 -1 -23l-118 -70q-16 128 -88 128q-89 0 -153 -164q-63 -161 -63 -325q0 -67 24 -105
q31 -51 93 -51q95 0 331 171zM956 1283q-242 -244 -354 -339q-24 -6 -29 -6q-10 0 -26 6l-4 56q-10 138 -23 298q14 9 21 13q28 16 50 30q26 -192 42 -275q116 92 314 275z" />
    <glyph glyph-name="Dcaron" unicode="&#x10e;" horiz-adv-x="1433" 
d="M176 -2l98 96q91 10 131 22q98 28 160 178q20 48 64 222l152 611q-174 -17 -280 -92q-157 -110 -157 -324q0 -49 13 -115l-167 -76q-14 66 -14 115q0 260 258 426q150 96 384 135l146 62l-15 -59q271 -14 392 -67q213 -93 213 -308q0 -201 -102 -400q-76 -147 -207 -237
q-83 -57 -183.5 -103t-176.5 -61q-120 -25 -449 -25h-260zM933 1136l-111 -445q-72 -287 -115 -358q-46 -78 -216 -233l262 -7l32 -1q157 0 254 40q181 76 271 313q66 173 66 337q0 103 -42.5 183.5t-116.5 119.5q-85 44 -284 51zM1372 1623q-243 -244 -354 -338
q-23 -6 -29 -6q-10 0 -27 6q-12 187 -26 354q43 25 71 42l6 -47q21 -150 35 -228q98 78 149 123l166 152z" />
    <glyph glyph-name="dcaron" unicode="&#x10f;" horiz-adv-x="987" 
d="M1002 268l-7 -64q-129 -93 -243 -162t-139 -69q-44 0 -44 64q0 62 17 147q-294 -211 -344 -211q-29 0 -54 49.5t-25 107.5q0 107 55 279t108 231q60 68 166.5 134.5t154.5 66.5q24 0 84 -11q11 43 16 65q39 158 62 203.5t98 117.5q95 90 166 130t135 40q26 0 65 -7
l-72 -116q-60 17 -93 17q-56 0 -94 -39t-70 -132q-34 -95 -125 -489.5t-91 -445.5q0 -53 28 -53q19 0 93 46zM602 260l96 431q-57 54 -107 54q-156 0 -242 -309q-38 -134 -38 -236q0 -89 44 -89q33 0 247 149zM1153 975q83 105 107.5 152t24.5 98q0 24 -16 92q76 41 131 71
q13 -58 13 -85q0 -65 -74 -181q-24 -38 -128 -163z" />
    <glyph glyph-name="Dcroat" unicode="&#x110;" horiz-adv-x="1433" 
d="M645 580q-56 2 -76 2q-40 0 -120 -5l114 79q33 -3 99 -5l120 478q-174 -17 -281 -92q-157 -110 -157 -325q0 -49 13 -116l-167 -76q-14 64 -14 115q0 163 93 282q173 220 549 281l146 62l-15 -59q272 -14 392 -67q213 -93 213 -309q0 -203 -102 -401q-76 -147 -207 -237
q-82 -57 -183 -103t-177 -61q-120 -25 -449 -25h-260l98 96q91 10 131 22q98 28 160 178q21 49 64 222zM794 580q-50 -186 -87 -247q-47 -79 -216 -233l262 -7l32 -1q157 0 254 40q181 76 271 313q66 173 66 338q0 104 -42.5 184.5t-116.5 119.5q-85 44 -284 51l-121 -486
h76l107 -1q98 5 166 5l-85 -76h-282z" />
    <glyph glyph-name="dcroat" unicode="&#x111;" horiz-adv-x="901" 
d="M790 1004q-78 0 -117 -1q-40 -1 -55 -1q-21 0 -70 2q23 14 90 61q90 10 177 12q24 58 108 138q95 91 165 131t136 40q26 0 65 -7l-73 -116q-59 17 -93 17q-61 0 -99 -44t-75 -157l219 -5l-78 -60q-59 -8 -162 -9q-48 -175 -116.5 -483.5t-68.5 -347.5q0 -53 28 -53
q19 0 94 46l152 101l-7 -64q-128 -93 -242.5 -162t-139.5 -69q-44 0 -44 64q0 62 17 147q-294 -211 -344 -211q-30 0 -54.5 50t-24.5 109q0 105 55 277.5t108 230.5q61 68 167 134.5t154 66.5q24 0 84 -11q11 44 40 157zM617 260l97 431q-57 54 -108 54q-157 0 -242 -309
q-38 -135 -38 -236q0 -89 44 -89q33 0 247 149z" />
    <glyph glyph-name="Emacron" unicode="&#x112;" horiz-adv-x="1270" 
d="M742 629h366q-39 -30 -77 -60q-57 -2 -143 -8q-46 -3 -166 -10q-56 -207 -90 -267q-22 -38 -51.5 -70t-134.5 -130h534q147 0 184.5 15t37.5 74q0 26 -8 76l155 58q9 -31 9 -47q0 -65 -129 -181q-69 -62 -108 -78.5t-118 -16.5q-98 0 -338 8l-465 8l79 68q78 19 116 43
t65 70q29 50 88 277l22 83h-57q39 48 79 88l115 459q-173 -4 -258 -38q-135 -54 -135 -193q0 -76 26 -171l-148 -98q-36 95 -36 166q0 153 147 269q88 70 189.5 100.5t248.5 32.5l143 43l-10 -43l437 9q46 -19 57 -80l-135 -134q-37 89 -54 110q-28 37 -97 37l-224 -6z
M648 1395q14 14 43 49q29 32 44 49h592q-20 -18 -45 -50q-24 -29 -37 -48h-597z" />
    <glyph glyph-name="emacron" unicode="&#x113;" horiz-adv-x="696" 
d="M778 280l-2 -59q-78 -81 -152 -133q-159 -115 -278 -115q-78 0 -123 52.5t-45 144.5q0 124 44.5 269.5t103.5 215.5q65 77 189 149q64 37 124 37q55 0 86 -30.5t31 -83.5q0 -70 -35 -125t-119 -119q-150 -113 -272 -190q-1 -74 10 -115q10 -40 39.5 -64t68.5 -24
q58 0 132.5 42.5t197.5 147.5zM336 366q161 105 216.5 167t55.5 138q0 38 -15.5 61t-40.5 23q-80 0 -149 -155q-48 -110 -67 -234zM272 1064q15 15 43 49l45 49h592q-21 -18 -45 -50q-24 -29 -38 -48h-597z" />
    <glyph glyph-name="Ebreve" unicode="&#x114;" horiz-adv-x="1270" 
d="M742 629h366q-39 -30 -77 -60q-57 -2 -143 -8q-46 -3 -166 -10q-56 -207 -90 -267q-22 -38 -51.5 -70t-134.5 -130h534q147 0 184.5 15t37.5 74q0 26 -8 76l155 58q9 -31 9 -47q0 -65 -129 -181q-69 -62 -108 -78.5t-118 -16.5q-98 0 -338 8l-465 8l79 68q78 19 116 43
t65 70q29 50 88 277l22 83h-57q39 48 79 88l115 459q-173 -4 -258 -38q-135 -54 -135 -193q0 -76 26 -171l-148 -98q-36 95 -36 166q0 153 147 269q88 70 189.5 100.5t248.5 32.5l143 43l-10 -43l437 9q46 -19 57 -80l-135 -134q-37 89 -54 110q-28 37 -97 37l-224 -6z
M711 1579l42 21q53 -88 116 -123.5t164 -35.5q65 0 132.5 17.5t108.5 45.5q53 35 88 102l31 -20q-23 -70 -92 -142q-49 -51 -128 -82t-162 -31q-229 0 -300 248z" />
    <glyph glyph-name="ebreve" unicode="&#x115;" horiz-adv-x="696" 
d="M778 280l-2 -59q-78 -81 -152 -133q-159 -115 -278 -115q-78 0 -123 52.5t-45 144.5q0 124 44.5 269.5t103.5 215.5q65 77 189 149q64 37 124 37q55 0 86 -30.5t31 -83.5q0 -70 -35 -125t-119 -119q-150 -113 -272 -190q-1 -74 10 -115q10 -40 39.5 -64t68.5 -24
q58 0 132.5 42.5t197.5 147.5zM336 366q161 105 216.5 167t55.5 138q0 38 -15.5 61t-40.5 23q-80 0 -149 -155q-48 -110 -67 -234zM318 1248l43 21q53 -88 115.5 -123.5t163.5 -35.5q65 0 132 17.5t110 45.5q52 35 87 102l31 -20q-24 -70 -92 -142q-49 -52 -128 -82.5
t-164 -30.5q-226 0 -298 248z" />
    <glyph glyph-name="Edotaccent" unicode="&#x116;" horiz-adv-x="1270" 
d="M742 629h366q-39 -30 -77 -60q-57 -2 -143 -8q-46 -3 -166 -10q-56 -207 -90 -267q-22 -38 -51.5 -70t-134.5 -130h534q147 0 184.5 15t37.5 74q0 26 -8 76l155 58q9 -31 9 -47q0 -65 -129 -181q-69 -62 -108 -78.5t-118 -16.5q-98 0 -338 8l-465 8l79 68q78 19 116 43
t65 70q29 50 88 277l22 83h-57q39 48 79 88l115 459q-173 -4 -258 -38q-135 -54 -135 -193q0 -76 26 -171l-148 -98q-36 95 -36 166q0 153 147 269q88 70 189.5 100.5t248.5 32.5l143 43l-10 -43l437 9q46 -19 57 -80l-135 -134q-37 89 -54 110q-28 37 -97 37l-224 -6z
M998 1332q-56 82 -78 143q47 31 141 108q8 -18 11 -26q22 -51 59 -114q-75 -58 -133 -111z" />
    <glyph glyph-name="edotaccent" unicode="&#x117;" horiz-adv-x="696" 
d="M778 280l-2 -59q-78 -81 -152 -133q-159 -115 -278 -115q-78 0 -123 52.5t-45 144.5q0 124 44.5 269.5t103.5 215.5q65 77 189 149q64 37 124 37q55 0 86 -30.5t31 -83.5q0 -70 -35 -125t-119 -119q-150 -113 -272 -190q-1 -74 10 -115q10 -40 39.5 -64t68.5 -24
q58 0 132.5 42.5t197.5 147.5zM336 366q161 105 216.5 167t55.5 138q0 38 -15.5 61t-40.5 23q-80 0 -149 -155q-48 -110 -67 -234zM623 1002q-57 83 -78 143q43 29 141 108q7 -17 11 -26q23 -54 59 -114q-76 -57 -133 -111z" />
    <glyph glyph-name="Eogonek" unicode="&#x118;" horiz-adv-x="1270" 
d="M742 629h366q-39 -30 -77 -60q-57 -2 -143 -8q-46 -3 -166 -10q-56 -207 -90 -267q-22 -38 -51.5 -70t-134.5 -130h534q147 0 184.5 15t37.5 74q0 26 -8 76l155 58q9 -31 9 -47q0 -93 -205 -240q-88 -64 -123.5 -101t-35.5 -66t23 -50t56 -21q43 0 101 59l26 -9
q-96 -146 -215 -146q-49 0 -78.5 29t-29.5 77q0 54 32.5 96.5t115.5 95.5q-39 -1 -53 -1q-54 0 -307 9l-465 8l79 68q78 19 116 43t65 70q29 50 88 277l22 83h-57q39 48 79 88l115 459q-173 -4 -258 -38q-135 -54 -135 -193q0 -76 26 -171l-148 -98q-36 95 -36 166
q0 153 147 269q88 70 189.5 100.5t248.5 32.5l143 43l-10 -43l437 9q46 -19 57 -80l-135 -134q-37 89 -54 110q-28 37 -97 37l-224 -6z" />
    <glyph glyph-name="eogonek" unicode="&#x119;" horiz-adv-x="696" 
d="M778 280l-2 -59q-55 -56 -86.5 -82t-220.5 -168q-90 -68 -90 -118q0 -29 23.5 -49.5t55.5 -20.5q43 0 101 59l27 -10q-98 -145 -216 -145q-49 0 -78.5 29t-29.5 77q0 97 140 186q-32 -6 -52 -6q-81 0 -126.5 52t-45.5 145q0 124 44.5 269.5t103.5 215.5q65 77 189 149
q64 37 124 37q55 0 86 -30.5t31 -83.5q0 -70 -35 -125t-119 -119q-150 -113 -272 -190q-1 -74 10 -115q10 -40 39.5 -64t68.5 -24q58 0 132.5 42.5t197.5 147.5zM336 366q161 105 216.5 167t55.5 138q0 38 -15.5 61t-40.5 23q-80 0 -149 -155q-48 -110 -67 -234z" />
    <glyph glyph-name="Ecaron" unicode="&#x11a;" horiz-adv-x="1270" 
d="M742 629h366q-39 -30 -77 -60q-57 -2 -143 -8q-46 -3 -166 -10q-56 -207 -90 -267q-22 -38 -51.5 -70t-134.5 -130h534q147 0 184.5 15t37.5 74q0 26 -8 76l155 58q9 -31 9 -47q0 -65 -129 -181q-69 -62 -108 -78.5t-118 -16.5q-98 0 -338 8l-465 8l79 68q78 19 116 43
t65 70q29 50 88 277l22 83h-57q39 48 79 88l115 459q-173 -4 -258 -38q-135 -54 -135 -193q0 -76 26 -171l-148 -98q-36 95 -36 166q0 153 147 269q88 70 189.5 100.5t248.5 32.5l143 43l-10 -43l437 9q46 -19 57 -80l-135 -134q-37 89 -54 110q-28 37 -97 37l-224 -6z
M1291 1623q-243 -244 -354 -338q-23 -6 -30 -6q-9 0 -26 6l-4 56q-10 136 -23 298q44 25 71 42q26 -191 42 -275q98 78 149 123l166 152z" />
    <glyph glyph-name="ecaron" unicode="&#x11b;" horiz-adv-x="696" 
d="M778 280l-2 -59q-78 -81 -152 -133q-159 -115 -278 -115q-78 0 -123 52.5t-45 144.5q0 124 44.5 269.5t103.5 215.5q65 77 189 149q64 37 124 37q55 0 86 -30.5t31 -83.5q0 -70 -35 -125t-119 -119q-150 -113 -272 -190q-1 -74 10 -115q10 -40 39.5 -64t68.5 -24
q58 0 132.5 42.5t197.5 147.5zM336 366q161 105 216.5 167t55.5 138q0 38 -15.5 61t-40.5 23q-80 0 -149 -155q-48 -110 -67 -234zM997 1283q-242 -244 -354 -339q-24 -6 -29 -6q-10 0 -26 6l-4 56q-10 138 -23 298q14 9 21 13q28 16 50 30q26 -192 41 -275q91 72 106 85
t209 190q2 -13 3 -20q3 -23 6 -38z" />
    <glyph glyph-name="Gcircumflex" unicode="&#x11c;" horiz-adv-x="1270" 
d="M1192 491l-80 -319q-44 -179 -81 -264t-102 -161q-110 -128 -235 -188q-89 -43 -203 -43q-55 0 -149 11l86 135q115 -19 221 -19q82 0 130.5 36t79.5 120q30 80 85 301q-137 -70 -229 -97.5t-189 -27.5q-141 0 -218 98q-66 83 -66 224q0 192 100 396q124 253 346 396
q188 121 415 121q117 0 178.5 -37t90.5 -125l-151 -170q-15 110 -49 162q-63 96 -196 96q-129 0 -252 -96q-151 -117 -232 -319q-72 -179 -72 -356q0 -141 66 -223.5t180 -82.5q71 0 154.5 38t148.5 100l74 294q-180 -2 -299 -12v16l125 64q296 0 460 -10l-94 -58h-43z
M922 1337q251 252 354 339q22 6 29 6q9 0 27 -6q11 -156 22 -287l6 -67q-22 -12 -73 -42q-4 31 -19 143q-5 37 -22 132q-106 -84 -315 -275q-2 13 -3 19q-2 22 -6 38z" />
    <glyph glyph-name="gcircumflex" unicode="&#x11d;" horiz-adv-x="819" 
d="M226 30q-46 63 -46 134q0 94 44.5 243t91.5 210q62 83 211 174q44 27 85.5 35.5t135.5 8.5l237 6q-50 -79 -63 -93.5t-41 -21.5l-69 -277l-101 -461q-33 -152 -60 -208.5t-92 -113.5q-199 -172 -472 -172q-120 0 -186 32q-61 30 -61 86q0 85 150 215q87 76 236 203z
M633 275q-423 -324 -524 -417t-101 -155q0 -103 206 -103q180 0 250 77q45 51 81 209zM652 349q57 228 83 276q16 29 115 102q-47 1 -67 1h-55q-46 -1 -64 -1q-125 -1 -167 -27q-35 -22 -60 -68t-52 -137q-47 -158 -47 -221q0 -66 51 -118l52 39q166 124 211 154zM514 1000
q251 251 354 338q23 6 29 6q10 0 27 -6q11 -155 22 -287l6 -67q-30 -17 -73 -42q-4 31 -19 143q-5 38 -22 132q-108 -85 -315 -275q-2 13 -3 19q-2 22 -6 39z" />
    <glyph glyph-name="Gbreve" unicode="&#x11e;" horiz-adv-x="1270" 
d="M1192 491l-80 -319q-44 -179 -81 -264t-102 -161q-110 -128 -235 -188q-89 -43 -203 -43q-55 0 -149 11l86 135q115 -19 221 -19q82 0 130.5 36t79.5 120q30 80 85 301q-137 -70 -229 -97.5t-189 -27.5q-141 0 -218 98q-66 83 -66 224q0 192 100 396q124 253 346 396
q188 121 415 121q117 0 178.5 -37t90.5 -125l-151 -170q-15 110 -49 162q-63 96 -196 96q-129 0 -252 -96q-151 -117 -232 -319q-72 -179 -72 -356q0 -141 66 -223.5t180 -82.5q71 0 154.5 38t148.5 100l74 294q-180 -2 -299 -12v16l125 64q296 0 460 -10l-94 -58h-43z
M688 1579l43 21q53 -88 115.5 -123.5t163.5 -35.5q65 0 132.5 17.5t109.5 45.5q52 35 87 102l31 -20q-23 -70 -92 -142q-49 -51 -128 -82t-162 -31q-229 0 -300 248z" />
    <glyph glyph-name="gbreve" unicode="&#x11f;" horiz-adv-x="819" 
d="M226 30q-46 63 -46 134q0 94 44.5 243t91.5 210q62 83 211 174q44 27 85.5 35.5t135.5 8.5l237 6q-50 -79 -63 -93.5t-41 -21.5l-69 -277l-101 -461q-33 -152 -60 -208.5t-92 -113.5q-199 -172 -472 -172q-120 0 -186 32q-61 30 -61 86q0 85 150 215q87 76 236 203z
M633 275q-423 -324 -524 -417t-101 -155q0 -103 206 -103q180 0 250 77q45 51 81 209zM652 349q57 228 83 276q16 29 115 102q-47 1 -67 1h-55q-46 -1 -64 -1q-125 -1 -167 -27q-35 -22 -60 -68t-52 -137q-47 -158 -47 -221q0 -66 51 -118l52 39q166 124 211 154zM334 1248
l42 21q53 -88 116 -123.5t163 -35.5q65 0 132.5 17.5t109.5 45.5q52 35 87 102l31 -20q-22 -69 -91 -142q-50 -52 -129 -82.5t-164 -30.5q-227 0 -297 248z" />
    <glyph glyph-name="Gdotaccent" unicode="&#x120;" horiz-adv-x="1270" 
d="M1192 491l-80 -319q-44 -179 -81 -264t-102 -161q-110 -128 -235 -188q-89 -43 -203 -43q-55 0 -149 11l86 135q115 -19 221 -19q82 0 130.5 36t79.5 120q30 80 85 301q-137 -70 -229 -97.5t-189 -27.5q-141 0 -218 98q-66 83 -66 224q0 192 100 396q124 253 346 396
q188 121 415 121q117 0 178.5 -37t90.5 -125l-151 -170q-15 110 -49 162q-63 96 -196 96q-129 0 -252 -96q-151 -117 -232 -319q-72 -179 -72 -356q0 -141 66 -223.5t180 -82.5q71 0 154.5 38t148.5 100l74 294q-180 -2 -299 -12v16l125 64q296 0 460 -10l-94 -58h-43z
M1110 1332q-56 80 -79 143q48 31 141 108q8 -18 12 -26q21 -51 58 -114q-75 -58 -132 -111z" />
    <glyph glyph-name="gdotaccent" unicode="&#x121;" horiz-adv-x="819" 
d="M226 30q-46 63 -46 134q0 94 44.5 243t91.5 210q62 83 211 174q44 27 85.5 35.5t135.5 8.5l237 6q-50 -79 -63 -93.5t-41 -21.5l-69 -277l-101 -461q-33 -152 -60 -208.5t-92 -113.5q-199 -172 -472 -172q-120 0 -186 32q-61 30 -61 86q0 85 150 215q87 76 236 203z
M633 275q-423 -324 -524 -417t-101 -155q0 -103 206 -103q180 0 250 77q45 51 81 209zM652 349q57 228 83 276q16 29 115 102q-47 1 -67 1h-55q-46 -1 -64 -1q-125 -1 -167 -27q-35 -22 -60 -68t-52 -137q-47 -158 -47 -221q0 -66 51 -118l52 39q166 124 211 154zM687 1002
q-57 83 -78 143q44 29 141 108q8 -17 11 -26q22 -52 59 -114q-75 -57 -133 -111z" />
    <glyph glyph-name="Gcommaaccent" unicode="&#x122;" horiz-adv-x="1270" 
d="M1196 489l-80 -320q-45 -179 -81 -263t-103 -161q-86 -101 -179.5 -161.5t-161.5 -60.5q-18 0 -41 2l70 139q61 -16 77 -16q110 0 166 149q30 77 85 301q-136 -70 -229 -97.5t-189 -27.5q-141 0 -218 98q-66 83 -66 223q0 193 100 397q124 252 346 395q188 121 415 121
q117 0 178.5 -37t90.5 -124l-151 -170q-15 109 -49 161q-63 96 -196 96q-129 0 -252 -96q-151 -117 -232 -319q-72 -179 -72 -356q0 -140 66.5 -222.5t179.5 -82.5q71 0 154.5 37.5t148.5 99.5l74 295q-184 -3 -299 -13v17l125 63h61q253 -1 399 -10l-94 -57h-43zM1334 1727
q-84 -109 -107.5 -154t-23.5 -96q0 -26 15 -92q-87 -48 -130 -72q-13 58 -13 85q0 66 74 182q24 38 127 163z" />
    <glyph glyph-name="gcommaaccent" unicode="&#x123;" horiz-adv-x="819" 
d="M226 30q-46 63 -46 134q0 94 44.5 243t91.5 210q62 83 211 174q44 27 85.5 35.5t135.5 8.5l237 6q-50 -79 -63 -93.5t-41 -21.5l-69 -277l-101 -461q-33 -152 -60 -208.5t-92 -113.5q-199 -172 -472 -172q-120 0 -186 32q-61 30 -61 86q0 85 150 215q87 76 236 203z
M633 275q-423 -324 -524 -417t-101 -155q0 -103 206 -103q180 0 250 77q45 51 81 209zM652 349q57 228 83 276q16 29 115 102q-47 1 -67 1h-55q-46 -1 -64 -1q-125 -1 -167 -27q-35 -22 -60 -68t-52 -137q-47 -158 -47 -221q0 -66 51 -118l52 39q166 124 211 154zM834 1352
q-83 -106 -107.5 -152.5t-24.5 -97.5q0 -25 16 -92q-86 -47 -130 -72q-14 59 -14 85q0 65 74 182q23 35 128 163z" />
    <glyph glyph-name="Hcircumflex" unicode="&#x124;" horiz-adv-x="1393" 
d="M803 659h437q16 53 73 262q26 95 55 148t91 120q66 70 135.5 124t108.5 66q28 9 66 9q46 0 91 -14l-70 -112q-57 20 -108 20q-81 0 -123 -69q-18 -30 -37.5 -92t-118.5 -405q-98 -382 -114.5 -454t-16.5 -120q0 -54 66 -54q62 0 195 13l-38 -51l-55 -11
q-206 -38 -254 -52q-34 -10 -56 -10q-19 0 -32.5 13t-13.5 31q0 25 72 312q51 193 67 258q-167 -2 -442 -23q-51 -159 -76.5 -205.5t-106.5 -132.5q-171 -179 -271 -210q-62 -20 -158 -20q-46 0 -101 8l97 133q68 -4 108 -4q107 0 163.5 28t97.5 101t101 308l-53 3l73 78
l15 60q72 280 103 382q-161 0 -226 -27q-129 -55 -129 -232q0 -56 23 -140l-154 -52q-17 62 -17 104q0 96 38 169t121 136q83 61 191 90t259 29q39 0 119 -4l-80 -68q-14 -63 -56 -223q-40 -157 -59 -220zM1030 1337q250 252 354 339q21 6 29 6q9 0 26 -6q11 -152 23 -287
l6 -67q-23 -13 -73 -42l-7 47q-19 139 -35 228q-105 -84 -314 -275q-2 13 -3 19q-2 22 -6 38z" />
    <glyph glyph-name="hcircumflex" unicode="&#x125;" horiz-adv-x="901" 
d="M154 -18l197 845q48 204 77 267t109 133q112 99 174.5 130.5t145.5 31.5q40 0 85 -11l-87 -124q-92 18 -124 18q-83 0 -126 -83q-35 -66 -97 -316l-68 -274q374 243 440 243q42 0 42 -34q0 -14 -54 -213q-92 -335 -92 -396q0 -54 31 -54t230 117l-15 -59
q-185 -134 -372 -234q-32 53 -32 89q0 80 89 419q37 140 37 175q0 32 -24 32q-17 0 -153 -74l-148 -92l-119 -477zM691 1445q250 252 354 339q22 6 29 6q9 0 26 -6q10 -143 23 -287l6 -67q-29 -16 -73 -43l-7 47q-18 133 -35 228q-106 -83 -314 -275q-2 13 -3 20
q-3 22 -6 38z" />
    <glyph glyph-name="Hbar" unicode="&#x126;" horiz-adv-x="1393" 
d="M1307 901l3 10q34 122 67 175q45 73 137.5 159t167.5 126q33 17 87 17q46 0 91 -14l-70 -112q-57 20 -108 20q-81 0 -123 -69q-24 -40 -82 -242l-21 -71q105 -1 144 -1q-47 -56 -91 -128q-58 3 -89 4q-54 -184 -101 -386t-47 -247q0 -54 66 -54q62 0 195 13l-38 -51
l-55 -11q-205 -38 -254 -52q-34 -10 -56 -10q-19 0 -32.5 13t-13.5 31q0 25 72 312q51 193 67 258q-167 -2 -442 -23q-51 -159 -76.5 -205.5t-106.5 -132.5q-171 -179 -271 -210q-62 -20 -158 -20q-46 0 -101 8l97 133q68 -4 108 -4q107 0 163.5 28t97.5 101t101 308l-53 3
l73 78l15 60l8 28l7 29l-54 -1h-54h-22q48 77 97 128l35 2h15h16l2 6q37 137 53 190q-161 0 -226 -27q-129 -55 -129 -232q0 -56 23 -140l-154 -52q-17 62 -17 104q0 96 38 169t121 136q83 61 191 90t259 29q39 0 119 -4l-80 -68q-14 -62 -50 -201l328 1q14 0 111 -1z
M1273 776h-7l-80 -1l-175 -1l-176 -1q-20 -75 -32 -114h437q8 26 33 117z" />
    <glyph glyph-name="hbar" unicode="&#x127;" horiz-adv-x="901" 
d="M382 951q-51 -1 -77 -2q-66 -1 -98 -1q48 76 97 128q60 2 118 2q19 52 44 79q42 48 121 112.5t127 90.5q54 29 143 29q40 0 85 -11l-87 -124q-92 18 -124 18q-62 0 -98 -42t-70 -152l149 -1l150 -1h18q-49 -59 -91 -128q-104 6 -260 6l-21 -81l-68 -274q374 243 440 243
q42 0 42 -34q0 -14 -54 -213q-92 -335 -92 -396q0 -54 31 -54t230 117l-15 -59q-185 -134 -372 -234q-32 53 -32 89q0 80 89 419q37 140 37 175q0 32 -24 32q-17 0 -153 -74l-148 -92l-119 -477l-146 -59l197 845q8 31 31 124z" />
    <glyph glyph-name="Itilde" unicode="&#x128;" horiz-adv-x="778" 
d="M166 1l75 50l119 14q36 125 128 486q112 439 139 558l-184 13l72 50h73h84l244 1q16 0 69 -1l-72 -50l-119 -13q-190 -696 -263 -1044l190 -14l-73 -50h-83q-192 1 -233 1q-56 0 -166 -1zM410 1367q95 95 158.5 134.5t123.5 39.5q58 0 166 -57q106 -56 149 -56
q28 0 55 15t94 67l8 -47q-167 -134 -226 -134q-23 0 -41 8t-103 56q-116 64 -162 64q-66 0 -213 -138z" />
    <glyph glyph-name="itilde" unicode="&#x129;" horiz-adv-x="491" 
d="M637 238l-9 -59q-48 -29 -174 -110q-151 -96 -197 -96q-23 0 -36.5 22.5t-13.5 59.5q0 39 12 90.5t83 318.5q38 141 38 174q0 36 -24 36q-21 0 -150 -70l4 58q267 180 324 180q24 0 24 -21q0 -15 -76 -327q-68 -271 -68 -306q0 -57 36 -57q29 0 192 88zM138 1034
q78 100 124 138t88 38q29 0 53.5 -11t78.5 -49q70 -49 116 -49q35 0 67.5 20.5t83.5 75.5l13 -53q-77 -90 -113 -118t-73 -28q-33 0 -62 15t-100 68q-56 42 -97 42q-33 0 -70.5 -31t-98.5 -109z" />
    <glyph glyph-name="Imacron" unicode="&#x12a;" horiz-adv-x="778" 
d="M166 1l75 50l119 14q36 125 128 486q112 439 139 558l-184 13l72 50h73h84l244 1q16 0 69 -1l-72 -50l-119 -13q-190 -696 -263 -1044l190 -14l-73 -50h-83q-192 1 -233 1q-56 0 -166 -1zM442 1395q15 14 44 49q29 32 44 49h592q-20 -18 -45 -50q-24 -29 -37 -48h-598z
" />
    <glyph glyph-name="imacron" unicode="&#x12b;" horiz-adv-x="491" 
d="M637 238l-14 -59q-56 -34 -172 -110q-148 -96 -194 -96q-23 0 -36.5 22.5t-13.5 59.5q0 39 12 90.5t83 318.5q38 141 38 174q0 36 -24 36q-21 0 -150 -70l5 58q267 180 323 180q24 0 24 -21q0 -15 -76 -327q-67 -271 -67 -306q0 -57 36 -57q29 0 191 88zM170 1064
q15 15 43 49l45 49h592q-21 -18 -45 -50q-24 -29 -38 -48h-597z" />
    <glyph glyph-name="Ibreve" unicode="&#x12c;" horiz-adv-x="778" 
d="M166 1l75 50l119 14q36 125 128 486q112 439 139 558l-184 13l72 50h73h84l244 1q16 0 69 -1l-72 -50l-119 -13q-190 -696 -263 -1044l190 -14l-73 -50h-83q-192 1 -233 1q-56 0 -166 -1zM434 1579l42 21q53 -88 116 -123.5t164 -35.5q65 0 132 17.5t109 45.5
q53 35 87 102l32 -20q-23 -70 -92 -142q-49 -51 -128 -82t-163 -31q-229 0 -299 248z" />
    <glyph glyph-name="ibreve" unicode="&#x12d;" horiz-adv-x="491" 
d="M637 238l-14 -59q-55 -34 -172 -110q-148 -96 -194 -96q-50 0 -50 82q0 39 12 90t83 319q38 142 38 174q0 36 -24 36q-21 0 -150 -70l5 58q267 180 323 180q24 0 24 -21q0 -15 -76 -327q-67 -271 -67 -306q0 -57 36 -57q29 0 191 88zM142 1248l42 21q53 -88 116 -123.5
t164 -35.5q65 0 132 17.5t109 45.5q53 35 88 102l31 -20q-24 -70 -92 -142q-49 -52 -128.5 -82.5t-163.5 -30.5q-227 0 -298 248z" />
    <glyph glyph-name="Iogonek" unicode="&#x12e;" horiz-adv-x="778" 
d="M721 51q-43 -33 -65 -49q-85 -64 -110.5 -91.5t-25.5 -56.5t23.5 -50t55.5 -21q44 0 101 59l27 -10q-97 -145 -215 -145q-50 0 -79.5 29t-29.5 77q0 57 38.5 102.5t136.5 105.5h-13l-232 1q-57 0 -167 -1l75 50l119 14q36 125 128 486q112 439 139 558l-184 13l72 50h73
h84l244 1q16 0 69 -1l-72 -50l-119 -13q-190 -696 -263 -1044z" />
    <glyph glyph-name="iogonek" unicode="&#x12f;" horiz-adv-x="491" 
d="M636 237l-8 -58q-132 -79 -213 -147q-123 -104 -144.5 -127t-21.5 -53q0 -28 23.5 -49t55.5 -21q43 0 101 59l27 -9q-96 -146 -216 -146q-48 0 -78 29t-30 77q0 96 132 181q-58 0 -58 82q0 39 12 90t84 319q38 140 38 173q0 36 -24 36q-21 0 -151 -69l5 58
q267 180 324 180q24 0 24 -21q0 -15 -76 -327q-68 -271 -68 -306q0 -57 36 -57q29 0 191 88zM496 1011q-58 85 -78 143q48 34 141 108q7 -17 11 -26q19 -44 59 -114q-76 -57 -133 -111z" />
    <glyph glyph-name="Idotaccent" unicode="&#x130;" horiz-adv-x="778" 
d="M166 1l75 50l119 14q36 125 128 486q112 439 139 558l-184 13l72 50h73h84l244 1q16 0 69 -1l-72 -50l-119 -13q-190 -696 -263 -1044l190 -14l-73 -50h-83q-192 1 -233 1q-56 0 -166 -1zM752 1332q-56 82 -78 143q47 31 141 108q8 -18 11 -26q22 -51 59 -114
q-75 -58 -133 -111z" />
    <glyph glyph-name="dotlessi" unicode="&#x131;" horiz-adv-x="491" 
d="M637 238l-14 -59q-56 -34 -172 -110q-148 -96 -194 -96q-23 0 -36.5 22.5t-13.5 59.5q0 39 12 90.5t83 318.5q38 141 38 174q0 36 -24 36q-21 0 -150 -70l5 58q267 180 323 180q24 0 24 -21q0 -15 -76 -327q-67 -271 -67 -306q0 -57 36 -57q29 0 191 88z" />
    <glyph glyph-name="IJ" unicode="&#x132;" horiz-adv-x="1597" 
d="M214 1l75 50l119 14q36 125 128 486q112 439 139 558l-184 13l72 50h73h84l244 1q16 0 69 -1l-72 -50l-119 -13q-190 -696 -263 -1044l190 -14l-73 -50h-83q-192 1 -233 1q-56 0 -166 -1zM1259 700l-157 -71q-18 65 -18 116q0 204 157 316q90 64 193.5 87t301.5 23
l-67 -59l-189 -757q-34 -135 -52.5 -184t-51.5 -90q-37 -47 -126.5 -121.5t-183.5 -135.5q-113 -75 -244 -75q-41 0 -90 11l83 137q82 -21 136 -21q185 0 269 164q29 57 43 98t58 201q32 115 47 169q-12 35 -48 58q40 41 82 77l112 450q-82 0 -123 -13q-149 -46 -149 -232
q0 -59 17 -148z" />
    <glyph glyph-name="ij" unicode="&#x133;" horiz-adv-x="942" 
d="M497 1011q-59 85 -79 143q49 34 141 108q8 -17 12 -26q19 -44 59 -114q-76 -57 -133 -111zM637 238l-9 -59q-47 -29 -174 -110q-150 -96 -197 -96q-23 0 -36.5 22.5t-13.5 59.5q0 39 12 90.5t83 318.5q38 141 38 174q0 36 -24 36q-21 0 -150 -70l5 58q267 180 323 180
q24 0 24 -21q0 -15 -76 -327q-67 -271 -67 -306q0 -57 36 -57q29 0 191 88zM979 1011q-56 79 -78 143q51 35 141 108q7 -17 11 -26q12 -29 59 -114q-15 -12 -23 -18q-52 -40 -110 -93zM219 -494l96 124q79 -9 112 -9q57 0 93.5 23t62.5 77q31 63 89.5 271.5t112.5 451.5
q41 184 41 204q0 25 -24 25q-19 0 -74 -32q-33 -19 -73 -39l4 59l56 35q154 96 200 121t69 25q30 0 30 -24q0 -27 -134 -557q-61 -243 -82 -310.5t-54 -128.5q-29 -52 -104.5 -135t-139.5 -132q-45 -35 -84 -48t-97 -13q-46 0 -100 12z" />
    <glyph glyph-name="Jcircumflex" unicode="&#x134;" horiz-adv-x="819" 
d="M529 700l-156 -71q-19 65 -19 116q0 204 157 316q90 64 193.5 87t301.5 23l-67 -59l-189 -757q-34 -134 -52.5 -183.5t-51.5 -90.5q-37 -47 -126.5 -121.5t-183.5 -135.5q-113 -75 -244 -75q-41 0 -90 11l83 137q82 -21 136 -21q185 0 268 164q30 58 44 98.5t58 200.5
q32 116 47 169q-12 35 -48 58q40 41 82 77l112 450q-82 0 -123 -13q-149 -46 -149 -232q0 -59 17 -148zM618 1337q251 252 355 339q21 6 28 6q10 0 27 -6q10 -142 23 -287l6 -67q-21 -11 -73 -42l-7 47q-18 133 -35 228q-106 -84 -315 -275q-1 13 -2 19q-3 22 -7 38z" />
    <glyph glyph-name="jcircumflex" unicode="&#x135;" horiz-adv-x="450" 
d="M-273 -494l96 124q78 -9 112 -9q57 0 93.5 23t62.5 77q31 63 89.5 272.5t112.5 450.5q41 184 41 204q0 25 -24 25q-19 0 -74 -32q-32 -18 -73 -39l4 59l56 35q155 97 200.5 121.5t68.5 24.5q30 0 30 -24q0 -28 -134 -557q-61 -243 -82 -310.5t-54 -128.5
q-29 -51 -104.5 -134.5t-139.5 -132.5q-45 -35 -84 -48t-98 -13q-45 0 -99 12zM200 1000q251 251 354 338q23 6 29 6q10 0 27 -6q10 -142 22 -287l6 -67q-30 -17 -73 -42q-4 31 -19 143q-6 42 -22 132q-109 -86 -315 -275q-2 13 -2 19q-3 22 -7 39z" />
    <glyph glyph-name="Kcommaaccent" unicode="&#x136;" horiz-adv-x="1352" 
d="M1720 -98l23 -169q-95 -34 -182 -34q-228 0 -365 155q-102 115 -223 512q-62 204 -89 282q-54 -210 -116 -299q-72 -103 -232 -260h248q-104 -66 -146 -77.5t-178 -11.5h-280l90 89h77q68 0 107.5 14.5t78.5 52.5q73 74 122.5 218t172.5 644l20 79q-67 7 -99 7
q-292 0 -292 -221q0 -88 45 -195l-168 -71q-35 86 -35 153q0 228 238 343q137 66 380 66q70 0 189 -8q-23 -28 -43 -40t-64 -24l-107 -428q58 44 271 223q262 211 293 233q66 46 135 46q49 0 116 -27l-76 -150q-75 30 -121 30q-69 0 -163 -62t-332 -263q66 -178 116 -314
q78 -217 113 -304t79 -169q90 -168 203 -168q52 0 93 31.5t101 116.5zM647 -537q83 106 107.5 152.5t24.5 98.5q0 24 -15 91q87 48 130 72q13 -58 13 -85q0 -65 -74 -182q-23 -35 -128 -163z" />
    <glyph glyph-name="kcommaaccent" unicode="&#x137;" horiz-adv-x="901" 
d="M178 -23l182 800q49 217 87 301q41 94 249 241q48 35 90 49t96 14q27 0 61 -6l-83 -119q-48 9 -73 9q-103 0 -159 -89q-26 -42 -49 -115.5t-74 -276.5l-78 -314l264 235q18 16 49 46q81 77 112 95.5t79 18.5q62 0 115 -40l-104 -157q-45 60 -92 60q-30 0 -56.5 -16
t-86.5 -70l-139 -124l60 -128q165 -348 199.5 -414t75.5 -115q91 -109 187 -109q64 0 112.5 35t97.5 118l41 -149q-89 -70 -222 -70q-83 0 -170 29.5t-154 80.5q-63 49 -111 125t-115 234q-67 159 -115 266l-47 -28l-79 -365q-30 -10 -46 -15q-63 -21 -104 -37zM221 -537
q82 106 106.5 152.5t24.5 98.5q0 24 -15 91q86 47 130 72q13 -59 13 -85q0 -66 -74 -182q-22 -34 -127 -163z" />
    <glyph glyph-name="kgreenlandic" unicode="&#x138;" horiz-adv-x="1024" 
d="M1161 -21l22 -164q-80 -29 -141 -29q-127 0 -210.5 61.5t-140.5 198.5q-14 34 -122 372q-29 -105 -68.5 -166.5t-144.5 -164.5h188q-109 -69 -140.5 -79.5t-133.5 -10.5h-229l90 90h60q45 0 70 9t51 34q49 50 83 149.5t119 446.5l10 41q-36 3 -53 3q-189 0 -189 -141
q0 -59 35 -143l-142 -61q-31 78 -31 125q0 168 174 252q99 48 274 48q49 0 158 -7q-32 -39 -45 -48.5t-46 -19.5l-64 -254q15 11 159 132q184 149 222.5 174t84.5 25q38 0 101 -27l-66 -129q-62 25 -91 25q-44 0 -107 -41.5t-223 -176.5q42 -113 77 -211q86 -239 134 -330
q59 -110 130 -110q37 0 61.5 21.5t83.5 105.5z" />
    <glyph glyph-name="Lacute" unicode="&#x139;" horiz-adv-x="1188" 
d="M1010 1060q-84 5 -120 5q-107 0 -155 -91q-17 -33 -83 -280q-76 -327 -104 -394q-18 -43 -41.5 -70.5t-131.5 -129.5h388q187 3 225 7q69 6 115.5 37t90.5 100q27 42 76 147l23 -40q-70 -167 -119 -264q-19 -39 -36 -56t-48 -28q-41 -15 -105 -15q-57 0 -403 15
q-230 10 -314 10q-72 0 -200 -5q36 45 71 82q42 -3 64 -3q70 0 112 35q46 37 67 93q32 85 58 210q60 285 100.5 393t116.5 185q60 62 126.5 109t107.5 57q51 13 109 13q39 0 89 -6zM877 1294q111 146 241 328l42 57l92 -43q-180 -184 -327 -356z" />
    <glyph glyph-name="lacute" unicode="&#x13a;" horiz-adv-x="491" 
d="M628 264v-45q-337 -246 -364 -246h-6h-12q-26 0 -47 39t-21 86q0 19 4 37l148 641q45 199 82 306q19 55 45.5 90t93.5 95q75 68 129 94.5t116 26.5q38 0 93 -12l-88 -108q-65 14 -101 14q-41 0 -66.5 -18t-43.5 -60q-36 -81 -162 -595q-84 -345 -84 -388v-18v-19
q0 -21 11 -37t26 -16q31 0 116 53q89 55 131 80zM556 1375q106 141 241 329l42 57l91 -43q-187 -192 -326 -356z" />
    <glyph glyph-name="Lcommaaccent" unicode="&#x13b;" horiz-adv-x="1188" 
d="M1010 1060q-84 5 -120 5q-107 0 -155 -91q-17 -33 -83 -280q-76 -327 -104 -394q-18 -43 -41.5 -70.5t-131.5 -129.5h388q187 3 225 7q69 6 115.5 37t90.5 100q27 42 76 147l23 -40q-70 -167 -119 -264q-19 -39 -36 -56t-48 -28q-41 -15 -105 -15q-57 0 -403 15
q-230 10 -314 10q-72 0 -200 -5q36 45 71 82q42 -3 64 -3q70 0 112 35q46 37 67 93q32 85 58 210q60 285 100.5 393t116.5 185q60 62 126.5 109t107.5 57q51 13 109 13q39 0 89 -6zM361 -537q83 107 107.5 153t24.5 98q0 23 -15 91q85 47 130 72q13 -59 13 -85
q0 -65 -74 -182q-23 -35 -128 -163z" />
    <glyph glyph-name="lcommaaccent" unicode="&#x13c;" horiz-adv-x="491" 
d="M629 264v-45q-338 -246 -365 -246h-6h-12q-26 0 -47 39t-21 86q0 19 4 37l148 641q45 199 82 306q19 55 45.5 90.5t93.5 94.5q75 68 129.5 94.5t115.5 26.5q38 0 93 -12l-88 -108q-65 14 -101 14q-41 0 -66.5 -18t-43.5 -60q-36 -81 -161 -595q-85 -345 -85 -388v-18v-19
q0 -21 11.5 -37t26.5 -16q30 0 116 53q88 55 131 80zM16 -537q83 106 107.5 152.5t24.5 98.5q0 24 -15 91q85 47 130 72q13 -58 13 -85q0 -65 -74 -182q-22 -33 -128 -163z" />
    <glyph glyph-name="Lcaron" unicode="&#x13d;" horiz-adv-x="1188" 
d="M1010 1060q-84 5 -120 5q-107 0 -155 -91q-17 -33 -83 -280q-76 -327 -104 -394q-18 -43 -41.5 -70.5t-131.5 -129.5h388q187 3 225 7q69 6 115.5 37t90.5 100q27 42 76 147l23 -40q-70 -167 -119 -264q-19 -39 -36 -56t-48 -28q-41 -15 -105 -15q-57 0 -403 15
q-230 10 -314 10q-72 0 -200 -5q36 45 71 82q42 -3 64 -3q70 0 112 35q46 37 67 93q32 85 58 210q60 285 100.5 393t116.5 185q60 62 126.5 109t107.5 57q51 13 109 13q39 0 89 -6zM1175 796q82 106 106.5 152.5t24.5 98.5q0 24 -15 91q63 35 130 72q13 -59 13 -86
q0 -64 -74 -181q-22 -34 -127 -163z" />
    <glyph glyph-name="lcaron" unicode="&#x13e;" horiz-adv-x="690" 
d="M631 264v-45q-337 -246 -364 -246h-6h-12q-26 0 -47 39t-21 86q0 19 4 37l148 641q45 199 82 306q19 55 45.5 90t93.5 95q75 68 129 94.5t116 26.5q38 0 93 -12l-88 -108q-65 14 -101 14q-41 0 -66.5 -18t-43.5 -60q-36 -81 -162 -595q-84 -345 -84 -388v-18v-19
q0 -21 11 -37t26 -16q31 0 116 53q89 55 131 80zM795 975q85 108 108.5 153t23.5 97q0 25 -15 92q75 41 130 71q13 -56 13 -84q0 -66 -74 -182q-24 -38 -128 -163z" />
    <glyph glyph-name="Ldot" unicode="&#x13f;" horiz-adv-x="1188" 
d="M1010 1060q-84 5 -120 5q-107 0 -155 -91q-17 -33 -83 -280q-76 -327 -104 -394q-18 -43 -41.5 -70.5t-131.5 -129.5h388q187 3 225 7q69 6 115.5 37t90.5 100q27 42 76 147l23 -40q-70 -167 -119 -264q-19 -39 -36 -56t-48 -28q-41 -15 -105 -15q-57 0 -403 15
q-230 10 -314 10q-72 0 -200 -5q36 45 71 82q42 -3 64 -3q70 0 112 35q46 37 67 93q32 85 58 210q60 285 100.5 393t116.5 185q60 62 126.5 109t107.5 57q51 13 109 13q39 0 89 -6zM952 611l152 121q41 -69 96 -151q-65 -65 -150 -128q-65 78 -98 158z" />
    <glyph glyph-name="ldot" unicode="&#x140;" horiz-adv-x="672" 
d="M623 264v-45q-337 -246 -364 -246h-6h-12q-26 0 -47 39t-21 86q0 19 4 37l148 641q45 199 82 306q19 55 45.5 90t93.5 95q75 68 129 94.5t116 26.5q38 0 93 -12l-88 -108q-65 14 -101 14q-41 0 -66.5 -18t-43.5 -60q-36 -81 -162 -595q-84 -345 -84 -388v-18v-19
q0 -21 11 -37t26 -16q31 0 116 53q89 55 131 80zM596 771l151 121q43 -72 97 -151q-65 -65 -151 -128q-64 77 -97 158z" />
    <glyph glyph-name="Lslash" unicode="&#x141;" horiz-adv-x="1188" 
d="M620 595q57 26 86 39q107 47 266 128l-34 -100q-80 -35 -121 -52l-216 -99q-25 -121 -62 -211q-17 -43 -40.5 -70t-132.5 -130h397q187 3 225 7q69 6 115.5 37t90.5 100q27 42 76 147l23 -40q-70 -167 -119 -264q-19 -39 -36 -56t-48 -28q-41 -15 -105 -15q-57 0 -403 15
q-230 10 -314 10q-72 0 -200 -5q36 45 71 82q42 -3 64 -3q103 0 159 87q33 52 89 299q-49 -23 -75 -34q-91 -41 -156 -77q25 38 78 114l171 76q49 219 82 298.5t106 152.5q60 62 126.5 109t107.5 57q51 13 109 13q39 0 89 -6l-79 -116q-83 5 -127 5q-129 0 -171 -126
q-40 -119 -92 -344z" />
    <glyph glyph-name="lslash" unicode="&#x142;" horiz-adv-x="614" 
d="M408 606l-230 -104q35 41 77 104l171 81l21 90q42 188 82 305q20 58 44 90t95 96q75 68 128 94t116 26q39 0 93 -11l-88 -109q-64 14 -102 14q-47 0 -74.5 -25t-46.5 -85q-67 -209 -120 -439l270 126l-36 -87l-81 -40q-115 -57 -174 -88l-17 -72q-76 -317 -76 -370
q0 -71 37 -71q22 0 53 16.5t195 117.5v-45q-110 -85 -290 -208q-57 -39 -81 -39q-32 0 -50 27q-29 46 -29 96q0 20 4 39z" />
    <glyph glyph-name="Nacute" unicode="&#x143;" horiz-adv-x="1433" 
d="M181 142q73 -7 127 -7q67 0 103 12.5t65 46.5q106 122 270 828q-91 4 -156 4q-127 0 -193 -35q-92 -50 -92 -147q0 -67 67 -207l-143 -96q-51 106 -51 180q0 97 80 213q54 78 123.5 135t131.5 75q64 19 156 19q53 0 113 -7l71 65l36 -135q134 -500 184 -656t122 -297
q26 100 96 408q75 333 118 454t117 206q159 185 284 185q26 0 64 -4l-77 -137q-33 5 -54 5q-71 0 -112.5 -26.5t-73.5 -92.5q-49 -102 -91 -236.5t-107 -402.5q-64 -260 -105 -472q62 -117 124 -183q110 -116 227 -116q68 0 116 45.5t94 153.5l49 -183q-126 -71 -271 -71
q-360 0 -547 379q-96 194 -179 543q-23 95 -74 318q-97 -392 -133 -487q-70 -183 -181 -305q-61 -67 -123.5 -93t-160.5 -26q-40 0 -113 4zM1122 1294q111 146 242 328l41 57l92 -43q-184 -189 -326 -356z" />
    <glyph glyph-name="nacute" unicode="&#x144;" horiz-adv-x="942" 
d="M182 -20q24 89 76 276q90 325 90 399q0 29 -24 29q-21 0 -158 -61l13 52q281 167 321 167q26 0 26 -26q0 -13 -17 -87t-33 -126l48 29l112 70q167 102 203.5 121t68.5 19q40 0 40 -34q0 -13 -51 -196q-68 -246 -83.5 -310t-15.5 -106q0 -55 32 -55q23 0 189 95l46 27
l-15 -59q-214 -157 -378 -238q-31 54 -31 93q0 45 53 256q76 303 76 343q0 26 -21 26q-31 0 -241 -131l-52 -32l-121 -483zM584 955q106 141 241 329l42 57l92 -44q-187 -191 -327 -355z" />
    <glyph glyph-name="Ncommaaccent" unicode="&#x145;" horiz-adv-x="1433" 
d="M181 142q73 -7 127 -7q67 0 103 12.5t65 46.5q106 122 270 828q-91 4 -156 4q-127 0 -193 -35q-92 -50 -92 -147q0 -67 67 -207l-143 -96q-51 106 -51 180q0 97 80 213q54 78 123.5 135t131.5 75q64 19 156 19q53 0 113 -7l71 65l36 -135q134 -500 184 -656t122 -297
q26 100 96 408q75 333 118 454t117 206q159 185 284 185q26 0 64 -4l-77 -137q-33 5 -54 5q-71 0 -112.5 -26.5t-73.5 -92.5q-49 -102 -91 -236.5t-107 -402.5q-64 -260 -105 -472q62 -117 124 -183q110 -116 227 -116q68 0 116 45.5t94 153.5l49 -183q-126 -71 -271 -71
q-360 0 -547 379q-96 194 -179 543q-23 95 -74 318q-97 -392 -133 -487q-70 -183 -181 -305q-61 -67 -123.5 -93t-160.5 -26q-40 0 -113 4zM607 -537q82 106 106.5 152.5t24.5 98.5q0 23 -15 91q86 47 130 72q13 -59 13 -85q0 -66 -74 -182q-22 -34 -127 -163z" />
    <glyph glyph-name="ncommaaccent" unicode="&#x146;" horiz-adv-x="942" 
d="M182 -20q24 89 76 276q90 325 90 399q0 29 -24 29q-21 0 -158 -61l13 52q281 167 321 167q26 0 26 -26q0 -13 -17 -87t-33 -126l48 29l112 70q167 102 203.5 121t68.5 19q40 0 40 -34q0 -13 -51 -196q-68 -246 -83.5 -310t-15.5 -106q0 -55 32 -55q23 0 189 95l46 27
l-15 -59q-214 -157 -378 -238q-31 54 -31 93q0 45 53 256q76 303 76 343q0 26 -21 26q-31 0 -241 -131l-52 -32l-121 -483zM241 -537q82 105 107 152t25 99q0 24 -15 91q86 47 130 72q13 -59 13 -85q0 -65 -74 -182q-24 -37 -127 -163z" />
    <glyph glyph-name="Ncaron" unicode="&#x147;" horiz-adv-x="1433" 
d="M181 142q73 -7 127 -7q67 0 103 12.5t65 46.5q106 122 270 828q-91 4 -156 4q-127 0 -193 -35q-92 -50 -92 -147q0 -67 67 -207l-143 -96q-51 106 -51 180q0 97 80 213q54 78 123.5 135t131.5 75q64 19 156 19q53 0 113 -7l71 65l36 -135q134 -500 184 -656t122 -297
q26 100 96 408q75 333 118 454t117 206q159 185 284 185q26 0 64 -4l-77 -137q-33 5 -54 5q-71 0 -112.5 -26.5t-73.5 -92.5q-49 -102 -91 -236.5t-107 -402.5q-64 -260 -105 -472q62 -117 124 -183q110 -116 227 -116q68 0 116 45.5t94 153.5l49 -183q-126 -71 -271 -71
q-360 0 -547 379q-96 194 -179 543q-23 95 -74 318q-97 -392 -133 -487q-70 -183 -181 -305q-61 -67 -123.5 -93t-160.5 -26q-40 0 -113 4zM1577 1623q-240 -242 -354 -338q-23 -6 -29 -6q-10 0 -27 6l-4 56q-9 136 -22 298q44 25 71 42q26 -191 41 -275q98 78 149 123
l166 152z" />
    <glyph glyph-name="ncaron" unicode="&#x148;" horiz-adv-x="942" 
d="M182 -20q24 89 76 276q90 325 90 399q0 29 -24 29q-21 0 -158 -61l13 52q281 167 321 167q26 0 26 -26q0 -13 -17 -87t-33 -126l48 29l112 70q167 102 203.5 121t68.5 19q40 0 40 -34q0 -13 -51 -196q-68 -246 -83.5 -310t-15.5 -106q0 -55 32 -55q23 0 189 95l46 27
l-15 -59q-214 -157 -378 -238q-31 54 -31 93q0 45 53 256q76 303 76 343q0 26 -21 26q-31 0 -241 -131l-52 -32l-121 -483zM1038 1283q-242 -244 -354 -339q-24 -6 -29 -6q-10 0 -26 6l-4 56l-8 117l-9 114l-6 67q14 9 21 13q28 16 50 30q26 -192 42 -275q91 72 106 85
t208 190q2 -13 3 -20q3 -23 6 -38z" />
    <glyph glyph-name="napostrophe" unicode="&#x149;" horiz-adv-x="1192" 
d="M307 -20q24 88 76 276q90 325 90 399q0 29 -24 29q-21 0 -158 -61l13 52q116 69 210.5 118t111.5 49q26 0 26 -26q0 -13 -17.5 -86t-32.5 -127l47 29l113 70q166 102 202.5 121t69.5 19q40 0 40 -35q0 -12 -51 -195q-68 -246 -83.5 -310t-15.5 -107q0 -54 32 -54
q17 0 49.5 17t184.5 105l-14 -59q-213 -157 -379 -238q-31 54 -31 94q0 44 53 255q77 304 77 342q0 27 -22 27q-30 0 -240 -131l-53 -32l-120 -483zM188 938q84 107 111 157t27 101q0 36 -20 103q90 49 129 71q18 -54 18 -94q0 -69 -36.5 -131t-170.5 -223z" />
    <glyph glyph-name="Eng" unicode="&#x14a;" horiz-adv-x="1433" 
d="M1078 -15q-78 136 -130 304.5t-155 616.5q-97 -392 -133 -487q-70 -183 -181 -305q-61 -67 -123.5 -93t-160.5 -26q-40 0 -113 4l99 143q73 -7 127 -7q67 0 103 12.5t65 46.5q106 122 270 828q-91 4 -157 4q-126 0 -192 -35q-92 -50 -92 -147q0 -67 67 -207l-143 -96
q-51 106 -51 180q0 97 80 213q54 78 123.5 135t131.5 75q64 19 156 19q53 0 113 -7l71 65l36 -135q134 -500 184 -656t122 -297q30 115 96 408q74 329 117.5 452t117.5 208q159 185 284 185q26 0 64 -4l-77 -137q-33 5 -54 5q-89 0 -131 -41q-52 -51 -116 -224
q-72 -198 -137 -493q-62 -275 -85.5 -359.5t-67.5 -191.5q-59 -141 -111.5 -216t-147.5 -154q-57 -48 -98 -62.5t-115 -14.5q-63 0 -146 12l110 144q73 -8 122 -8q78 0 118 26t68 94q37 93 72 223z" />
    <glyph glyph-name="eng" unicode="&#x14b;" horiz-adv-x="901" 
d="M160 -494l97 124q80 -9 113 -9q91 0 134 60q47 66 106 282q8 28 98 383q70 276 70 314q0 24 -21 24q-31 0 -241 -131l-53 -33l-120 -482l-153 -59q23 89 76 277q91 326 91 398q0 30 -25 30q-21 0 -159 -61l14 52q116 69 210.5 118t111.5 49q26 0 26 -27q0 -12 -18 -86
t-33 -126q39 24 160 99q166 102 203 121t70 19q40 0 40 -34q0 -13 -10 -51q-17 -62 -52 -204q-126 -521 -168 -638q-25 -71 -61.5 -125t-111.5 -132q-97 -100 -154 -132t-139 -32q-45 0 -101 12z" />
    <glyph glyph-name="Omacron" unicode="&#x14c;" horiz-adv-x="1229" 
d="M998 1210q168 0 254 -107q83 -102 83 -291q0 -197 -71 -372q-90 -223 -335 -363q-182 -104 -368 -104q-171 0 -259.5 102t-88.5 299q0 222 88 406q106 221 348 340q183 90 349 90zM879 1130q-130 0 -242 -82q-128 -92 -198 -275q-58 -150 -58 -319q0 -181 72 -285
q79 -114 228 -114q133 0 247 89q130 100 193 306q46 149 46 299q0 171 -71 273q-74 108 -217 108zM627 1395q14 14 43 49q30 32 44 49h593q-21 -18 -46 -50q-23 -29 -37 -48h-597z" />
    <glyph glyph-name="omacron" unicode="&#x14d;" horiz-adv-x="819" 
d="M734 841q86 0 139 -57q46 -50 46 -131q0 -162 -91 -359q-37 -79 -87.5 -129.5t-152.5 -108.5q-146 -83 -233 -83q-81 0 -129 55.5t-48 148.5q0 152 62.5 296.5t160.5 217.5q91 68 181.5 109t151.5 41zM628 745q-69 0 -142 -75q-65 -68 -107.5 -183.5t-42.5 -224.5
q0 -74 27 -125q15 -31 46 -49.5t64 -18.5q119 0 209 180q79 157 79 294q0 82 -28 135q-35 67 -105 67zM418 1064q15 15 43 49l45 49h592q-21 -18 -45 -50q-24 -29 -38 -48h-597z" />
    <glyph glyph-name="Obreve" unicode="&#x14e;" horiz-adv-x="1229" 
d="M998 1210q168 0 254 -107q83 -102 83 -291q0 -197 -71 -372q-90 -223 -335 -363q-182 -104 -368 -104q-171 0 -259.5 102t-88.5 299q0 222 88 406q106 221 348 340q183 90 349 90zM879 1130q-130 0 -242 -82q-128 -92 -198 -275q-58 -150 -58 -319q0 -181 72 -285
q79 -114 228 -114q133 0 247 89q130 100 193 306q46 149 46 299q0 171 -71 273q-74 108 -217 108zM647 1579l43 21q53 -88 115.5 -123.5t163.5 -35.5q65 0 132.5 17.5t109.5 45.5q52 35 87 102l31 -20q-23 -70 -91 -142q-50 -51 -129 -82t-162 -31q-227 0 -300 248z" />
    <glyph glyph-name="obreve" unicode="&#x14f;" horiz-adv-x="819" 
d="M734 841q86 0 139 -57q46 -50 46 -131q0 -162 -91 -359q-37 -79 -87.5 -129.5t-152.5 -108.5q-146 -83 -233 -83q-81 0 -129 55.5t-48 148.5q0 152 62.5 296.5t160.5 217.5q91 68 181.5 109t151.5 41zM628 745q-69 0 -142 -75q-65 -68 -107.5 -183.5t-42.5 -224.5
q0 -74 27 -125q15 -31 46 -49.5t64 -18.5q119 0 209 180q79 157 79 294q0 82 -28 135q-35 67 -105 67zM419 1248l43 21q52 -88 115 -123.5t164 -35.5q65 0 132 17.5t110 45.5q52 35 87 102l31 -20q-23 -70 -92 -142q-49 -52 -128.5 -82.5t-163.5 -30.5q-227 0 -298 248z" />
    <glyph glyph-name="Ohungarumlaut" unicode="&#x150;" horiz-adv-x="1229" 
d="M998 1210q168 0 254 -107q83 -102 83 -291q0 -197 -71 -372q-90 -223 -335 -363q-182 -104 -368 -104q-171 0 -259.5 102t-88.5 299q0 222 88 406q106 221 348 340q183 90 349 90zM879 1130q-130 0 -242 -82q-128 -92 -198 -275q-58 -150 -58 -319q0 -181 72 -285
q79 -114 228 -114q133 0 247 89q130 100 193 306q46 149 46 299q0 171 -71 273q-74 108 -217 108zM946 1288q44 60 159 211q18 23 134 180l26 -11q38 -18 58 -27q-42 -43 -332 -361q-38 6 -45 8zM750 1288q45 60 162 211q21 26 136 180l79 -38q-42 -43 -332 -361
q-30 5 -45 8z" />
    <glyph glyph-name="ohungarumlaut" unicode="&#x151;" horiz-adv-x="819" 
d="M734 841q86 0 139 -57q46 -50 46 -131q0 -162 -91 -359q-37 -79 -87.5 -129.5t-152.5 -108.5q-146 -83 -233 -83q-81 0 -129 55.5t-48 148.5q0 152 62.5 296.5t160.5 217.5q91 68 181.5 109t151.5 41zM628 745q-69 0 -142 -75q-65 -68 -107.5 -183.5t-42.5 -224.5
q0 -74 27 -125q15 -31 46 -49.5t64 -18.5q119 0 209 180q79 157 79 294q0 82 -28 135q-35 67 -105 67zM734 950q44 59 160 210l90 121l44 60q41 -19 84 -38q-44 -46 -332 -361q-27 4 -46 8zM538 950q46 60 163 210q24 31 136 181l79 -38q-42 -44 -332 -361q-16 2 -46 8z" />
    <glyph glyph-name="OE" unicode="&#x152;" horiz-adv-x="1679" 
d="M1748 421l34 -58q-44 -94 -151 -291l-41 -77q-51 1 -180 7q-91 5 -214 5q-187 0 -438 -23q-121 -11 -191 -11q-171 0 -264 95q-90 91 -90 255q0 190 94 392q136 290 379 416q142 73 287 73q54 0 238 -18q156 -16 264 -16l258 5q39 -40 39 -97v-16l-133 -125
q-9 99 -36 135.5t-92 36.5q-22 0 -59 -2q-27 -1 -144 -4l-119 -476h358q-48 -35 -102 -60q-37 0 -129 -7q-108 -7 -146 -9l-116 -463q124 -10 213 -10q116 0 171.5 15.5t107.5 61.5q73 66 202 266zM912 116l233 931q-56 50 -102.5 69.5t-112.5 19.5q-232 0 -384 -242
q-70 -111 -112.5 -253t-42.5 -265q0 -151 70 -237q79 -96 222 -96q57 0 105.5 15.5t123.5 57.5z" />
    <glyph glyph-name="oe" unicode="&#x153;" horiz-adv-x="1147" 
d="M1233 274l-2 -63q-147 -131 -245 -184.5t-194 -53.5q-65 0 -100 33.5t-53 112.5q-102 -81 -169 -113.5t-133 -32.5q-71 0 -114 57.5t-43 153.5q0 155 74 315q43 93 90.5 143t159.5 117q135 82 214 82q55 0 84.5 -29.5t43.5 -99.5q82 71 139.5 100t115.5 29q54 0 84.5 -31
t30.5 -86q0 -42 -18.5 -88t-47.5 -77q-32 -35 -68 -61.5t-218 -151.5l-76 -51q-2 -32 -2 -50q0 -68 33.5 -111.5t85.5 -43.5q90 0 201 84zM616 735q-112 0 -202 -172q-76 -147 -76 -288q0 -87 28.5 -141.5t73.5 -54.5q62 0 121 62t92 163q19 57 37.5 154t18.5 141
q0 136 -93 136zM792 360q106 73 191 156q75 73 75 159q0 37 -15.5 59t-42.5 22q-64 0 -130 -129q-45 -90 -78 -267z" />
    <glyph glyph-name="Racute" unicode="&#x154;" horiz-adv-x="1229" 
d="M159 91q162 3 221 34q62 32 103 113.5t82 251.5l125 498l32 123q-102 -13 -151 -31q-92 -36 -141 -111.5t-49 -182.5q0 -62 23 -152l-172 -88q-29 97 -29 164q0 180 131 295.5t384 157.5l185 88l-16 -66q76 4 118 4q120 0 194 -38q96 -49 96 -159q0 -154 -151 -256
q-81 -54 -228 -102q127 -404 201 -583q126 -304 271 -304q61 0 107.5 38t96.5 129l100 -125q-87 -62 -150 -85t-149 -23q-240 0 -371 195q-63 94 -114 240.5t-115 418.5q-10 42 -20 55t-32 13q-41 -156 -62 -208.5t-67 -109.5q-60 -75 -180 -194l65 -1q136 -2 205 -3
l-151 -78q-125 -10 -353 -10q-18 0 -120 3zM753 650q142 16 222 64q66 40 104 108.5t38 146.5q0 83 -42.5 121t-135.5 38h-67zM815 1294q112 148 242 328l41 57l92 -43q-182 -187 -326 -356z" />
    <glyph glyph-name="racute" unicode="&#x155;" horiz-adv-x="614" 
d="M185 -21l123 448q45 165 45 215q0 42 -38 42q-27 0 -149 -60l7 55q93 56 202.5 109.5t129.5 53.5q26 0 26 -23q0 -1 -25 -123q30 22 122 88q79 58 133 58q29 0 77 -16l-62 -194q-48 62 -108 62q-76 0 -173 -72l-154 -583zM502 955q106 141 241 329l42 57l92 -44
q-187 -192 -327 -355z" />
    <glyph glyph-name="Rcommaaccent" unicode="&#x156;" horiz-adv-x="1229" 
d="M159 91q162 3 221 34q62 32 103 113.5t82 251.5l125 498l32 123q-102 -13 -151 -31q-92 -36 -141 -111.5t-49 -182.5q0 -62 23 -152l-172 -88q-29 97 -29 164q0 180 131 295.5t384 157.5l185 88l-16 -66q76 4 118 4q120 0 194 -38q96 -49 96 -159q0 -154 -151 -256
q-81 -54 -228 -102q127 -404 201 -583q126 -304 271 -304q61 0 107.5 38t96.5 129l100 -125q-87 -62 -150 -85t-149 -23q-240 0 -371 195q-63 94 -114 240.5t-115 418.5q-10 42 -20 55t-32 13q-41 -156 -62 -208.5t-67 -109.5q-60 -75 -180 -194l65 -1q136 -2 205 -3
l-151 -78q-125 -10 -353 -10q-18 0 -120 3zM753 650q142 16 222 64q66 40 104 108.5t38 146.5q0 83 -42.5 121t-135.5 38h-67zM463 -537q83 106 107.5 152.5t24.5 98.5q0 23 -15 91q86 47 130 72q13 -59 13 -85q0 -65 -74 -182q-22 -34 -128 -163z" />
    <glyph glyph-name="rcommaaccent" unicode="&#x157;" horiz-adv-x="614" 
d="M184 -21l123 448q45 163 45 215q0 42 -38 42q-27 0 -149 -60l7 55q95 56 203.5 109.5t128.5 53.5q26 0 26 -23q0 -1 -25 -123q30 22 122 88q79 58 133 58q29 0 77 -16l-62 -194q-47 62 -108 62q-76 0 -172 -72l-154 -583zM77 -537q83 106 107.5 152.5t24.5 98.5
q0 24 -15 91q85 47 130 72q13 -58 13 -85q0 -65 -74 -182q-22 -33 -128 -163z" />
    <glyph glyph-name="Rcaron" unicode="&#x158;" horiz-adv-x="1229" 
d="M159 91q162 3 221 34q62 32 103 113.5t82 251.5l125 498l32 123q-102 -13 -151 -31q-92 -36 -141 -111.5t-49 -182.5q0 -62 23 -152l-172 -88q-29 97 -29 164q0 180 131 295.5t384 157.5l185 88l-16 -66q76 4 118 4q120 0 194 -38q96 -49 96 -159q0 -154 -151 -256
q-81 -54 -228 -102q127 -404 201 -583q126 -304 271 -304q61 0 107.5 38t96.5 129l100 -125q-87 -62 -150 -85t-149 -23q-240 0 -371 195q-63 94 -114 240.5t-115 418.5q-10 42 -20 55t-32 13q-41 -156 -62 -208.5t-67 -109.5q-60 -75 -180 -194l65 -1q136 -2 205 -3
l-151 -78q-125 -10 -353 -10q-18 0 -120 3zM753 650q142 16 222 64q66 40 104 108.5t38 146.5q0 83 -42.5 121t-135.5 38h-67zM1270 1623q-243 -244 -354 -338q-23 -6 -29 -6q-10 0 -27 6l-4 56q-10 152 -22 298q44 25 71 42q26 -191 41 -275q99 78 149 123l166 152z" />
    <glyph glyph-name="rcaron" unicode="&#x159;" horiz-adv-x="614" 
d="M185 -21l123 448q45 165 45 215q0 42 -38 42q-27 0 -149 -60l7 55q93 56 202.5 109.5t129.5 53.5q26 0 26 -23q0 -1 -25 -123q30 22 122 88q79 58 133 58q29 0 77 -16l-62 -194q-48 62 -108 62q-76 0 -173 -72l-154 -583zM957 1283q-243 -244 -355 -339q-23 -6 -29 -6
q-10 0 -26 6l-4 56q-10 138 -23 298q14 9 21 13q28 16 50 30q26 -192 42 -275q116 92 315 275z" />
    <glyph glyph-name="Sacute" unicode="&#x15a;" horiz-adv-x="942" 
d="M124 231q20 -120 74 -180q90 -101 234 -101q124 0 224 83q108 90 108 218q0 72 -35.5 124t-141.5 136q-87 68 -117 113q-44 67 -44 139q0 169 169 314q141 123 281 123q165 0 183 -168l-136 -96q-16 98 -45 133t-95 35q-91 0 -154 -73q-66 -77 -66 -175q0 -66 31.5 -109
t143.5 -130q114 -90 149 -136.5t35 -110.5q0 -132 -102 -263q-91 -116 -231.5 -184.5t-286.5 -68.5q-102 0 -175 34.5t-127 106.5l90 214zM678 1294q111 146 241 328l42 57l92 -43q-185 -189 -327 -356z" />
    <glyph glyph-name="sacute" unicode="&#x15b;" horiz-adv-x="655" 
d="M87 171l139 90q1 -93 19 -132q32 -70 101 -70q60 0 117 52.5t57 108.5q0 38 -20 62t-98 79q-109 77 -109 167q0 100 115 208q112 106 226 106q82 0 138 -70q-26 -38 -97 -107q-60 81 -127 81q-52 0 -90 -39t-38 -92q0 -75 99 -137q80 -50 98 -71q30 -35 30 -93
q0 -95 -74 -180q-62 -71 -156 -116t-181 -45q-68 0 -110 41.5t-42 109.5q0 17 3 47zM526 955q107 141 242 329l42 57l91 -44q-191 -196 -326 -355z" />
    <glyph glyph-name="Scircumflex" unicode="&#x15c;" horiz-adv-x="942" 
d="M124 231q20 -120 74 -180q90 -101 234 -101q124 0 224 83q108 90 108 218q0 72 -35.5 124t-141.5 136q-87 68 -117 113q-44 67 -44 139q0 169 169 314q141 123 281 123q165 0 183 -168l-136 -96q-16 98 -45 133t-95 35q-91 0 -154 -73q-66 -77 -66 -175q0 -66 31.5 -109
t143.5 -130q114 -90 149 -136.5t35 -110.5q0 -132 -102 -263q-91 -116 -231.5 -184.5t-286.5 -68.5q-102 0 -175 34.5t-127 106.5l90 214zM644 1337q251 252 354 339q22 6 29 6q10 0 27 -6q10 -142 23 -287l5 -67q-22 -12 -73 -42q-4 31 -19 143q-5 37 -22 132
q-106 -84 -315 -275q-2 13 -2 19q-3 22 -7 38z" />
    <glyph glyph-name="scircumflex" unicode="&#x15d;" horiz-adv-x="655" 
d="M87 171l139 90q1 -93 19 -132q32 -70 101 -70q60 0 117 52.5t57 108.5q0 38 -20 62t-98 79q-109 77 -109 167q0 100 115 208q112 106 226 106q82 0 138 -70q-26 -38 -97 -107q-60 81 -127 81q-52 0 -90 -39t-38 -92q0 -75 99 -137q80 -50 98 -71q30 -35 30 -93
q0 -95 -74 -180q-62 -71 -156 -116t-181 -45q-68 0 -110 41.5t-42 109.5q0 17 3 47zM354 1000q251 251 355 338q23 6 28 6q10 0 27 -6q10 -142 23 -287l6 -67q-31 -17 -73 -42q-5 31 -20 143q-6 42 -22 132q-108 -86 -315 -275q-1 13 -2 19q-3 22 -7 39z" />
    <glyph glyph-name="Scedilla" unicode="&#x15e;" horiz-adv-x="942" 
d="M1059 1032l-136 -96q-16 98 -45 133t-95 35q-91 0 -154 -73q-66 -77 -66 -175q0 -66 31.5 -109t143.5 -130q114 -90 149 -136.5t35 -110.5q0 -177 -162 -329t-382 -182l-73 -100q50 -18 50 -79q0 -71 -75 -131t-207 -93l-30 27q45 12 69 24t60 41q55 43 55 76
q0 37 -55 78l127 152q-100 2 -173.5 36.5t-125.5 104.5l90 214l34 22q20 -119 74 -179q90 -101 234 -101q124 0 224 83q108 90 108 218q0 71 -35.5 123.5t-141.5 135.5q-87 68 -117 114q-44 67 -44 138q0 169 169 314q142 123 281 123q165 0 183 -168z" />
    <glyph glyph-name="scedilla" unicode="&#x15f;" horiz-adv-x="655" 
d="M676 665q-60 81 -128 81q-52 0 -90 -39t-38 -92q0 -75 100 -137q80 -50 98 -71q30 -35 30 -94q0 -105 -89 -197t-228 -129l-87 -119q50 -17 50 -78q0 -70 -71 -127q-83 -66 -211 -98l-30 27q45 12 69 24t60 41q55 43 55 76q0 37 -55 78l135 162q-61 1 -103 27
q-59 36 -59 123q0 17 4 47l139 91q0 -93 18 -132q32 -70 102 -70q60 0 117 52.5t57 108.5q0 38 -20.5 62t-97.5 79q-110 77 -110 167q0 100 115 208q112 106 226 106q82 0 139 -70q-26 -38 -97 -107z" />
    <glyph glyph-name="Scaron" unicode="&#x160;" horiz-adv-x="942" 
d="M124 231q20 -120 74 -180q90 -101 234 -101q124 0 224 83q108 90 108 218q0 72 -35.5 124t-141.5 136q-87 68 -117 113q-44 67 -44 139q0 169 169 314q141 123 281 123q165 0 183 -168l-136 -96q-16 98 -45 133t-95 35q-91 0 -154 -73q-66 -77 -66 -175q0 -66 31.5 -109
t143.5 -130q114 -90 149 -136.5t35 -110.5q0 -132 -102 -263q-91 -116 -231.5 -184.5t-286.5 -68.5q-102 0 -175 34.5t-127 106.5l90 214zM1243 1623q-246 -246 -354 -338q-23 -6 -29 -6q-10 0 -26 6l-4 56q-10 136 -23 298q44 25 71 42q26 -191 41 -275q98 78 149 123
l166 152z" />
    <glyph glyph-name="scaron" unicode="&#x161;" horiz-adv-x="655" 
d="M87 171l139 90q1 -93 19 -132q32 -70 101 -70q60 0 117 52.5t57 108.5q0 38 -20 62t-98 79q-109 77 -109 167q0 100 115 208q112 106 226 106q82 0 138 -70q-25 -38 -96 -107q-61 81 -128 81q-52 0 -90 -39t-38 -92q0 -75 99 -137q80 -50 98 -71q30 -35 30 -93
q0 -95 -74 -180q-62 -71 -156 -116t-181 -45q-68 0 -110 41.5t-42 109.5q0 17 3 47zM977 1283q-241 -243 -354 -339q-24 -6 -29 -6q-10 0 -27 6l-3 56q-10 138 -23 298q14 9 21 13q28 16 50 30q26 -192 41 -275q109 86 315 275z" />
    <glyph glyph-name="Tcommaaccent" unicode="&#x162;" horiz-adv-x="1024" 
d="M327 -1l73 80q83 5 124.5 25.5t72.5 70.5q37 58 89 266l167 667q-138 10 -186 10q-161 0 -237 -35q-153 -72 -153 -251q0 -68 46 -187l-153 -101q-51 100 -51 196q0 179 150 303q184 153 474 153q75 0 403 -16q100 -5 129 -5q55 0 80.5 23t87.5 130l28 -30
q-37 -151 -62 -186t-98 -35q-40 0 -232 16l-79 6l-160 -641q-20 -79 -37 -119.5t-50 -84.5q-47 -65 -156 -159q64 -2 94 -2q182 0 332 19l-4 -17q-99 -52 -153 -67.5t-149 -20.5q-123 -7 -390 -8zM279 -537q83 106 107.5 152.5t24.5 98.5q0 24 -15 91q85 47 130 72
q13 -58 13 -85q0 -65 -74 -182q-22 -33 -128 -163z" />
    <glyph glyph-name="tcommaaccent" unicode="&#x163;" horiz-adv-x="655" 
d="M743 258l-3 -52q-311 -233 -383 -233q-29 0 -55 44t-26 94q0 48 11 101.5t77 326.5l21 89h-45h-94h-49q20 15 31 23q36 29 58 43l117 4l16 73l23 98l20 84q23 11 75 35q31 14 86 41l-13 -53q-54 -209 -69 -278h262l-78 -60l-202 -10q-12 -48 -42 -172q-48 -199 -48 -228
q0 -34 19.5 -65.5t41.5 -31.5q36 0 249 127zM98 -537q83 106 107.5 152.5t24.5 98.5q0 24 -15 91q85 47 130 72q13 -58 13 -85q0 -65 -74 -182q-22 -33 -128 -163z" />
    <glyph glyph-name="Tcaron" unicode="&#x164;" horiz-adv-x="1024" 
d="M327 -1l73 80q83 5 124.5 25.5t72.5 70.5q37 58 89 266l167 667q-138 10 -186 10q-161 0 -237 -35q-153 -72 -153 -251q0 -68 46 -187l-153 -101q-51 100 -51 196q0 179 150 303q184 153 474 153q75 0 403 -16q100 -5 129 -5q55 0 80.5 23t87.5 130l28 -30
q-37 -151 -62 -186t-98 -35q-40 0 -232 16l-79 6l-160 -641q-20 -79 -37 -119.5t-50 -84.5q-47 -65 -156 -159q64 -2 94 -2q182 0 332 19l-4 -17q-99 -52 -153 -67.5t-149 -20.5q-123 -7 -390 -8zM1331 1623q-242 -244 -354 -338q-22 -6 -29 -6q-9 0 -26 6l-4 56
q-10 136 -23 298q44 25 71 42q26 -191 42 -275q98 78 149 123l165 152z" />
    <glyph glyph-name="tcaron" unicode="&#x165;" horiz-adv-x="655" 
d="M742 258l-2 -52q-312 -233 -384 -233q-29 0 -55 44t-26 94q0 48 11 101.5t77 326.5l22 89h-46h-93h-50q21 15 31 23q37 29 58 43l117 4l17 73l22 98l20 84q24 11 75 35q31 14 87 41l-14 -53q-54 -209 -69 -278h262l-78 -60l-202 -10q-12 -48 -42 -172q-48 -199 -48 -228
q0 -34 20 -65.5t41 -31.5q37 0 249 127zM723 975q85 108 109 153t24 97q0 24 -16 92q75 41 130 71q13 -57 13 -84q0 -66 -74 -182q-22 -35 -128 -163z" />
    <glyph glyph-name="Tbar" unicode="&#x166;" horiz-adv-x="1024" 
d="M748 692h-52q-15 0 -104 5q-51 2 -117 2q-13 0 -56 -1q61 36 105 70q44 -2 66 -2q32 -2 44 -2l132 2l86 342q-138 10 -186 10q-161 0 -236 -35q-154 -72 -154 -250q0 -68 46 -187l-153 -102q-51 101 -51 196q0 178 150 303q183 153 483 153q67 0 394 -16q100 -5 130 -5
q55 0 80 23t88 130l27 -30q-25 -102 -38 -138q-15 -41 -30 -56q-27 -27 -95 -27q-36 0 -229 16l-79 6l-83 -333l94 2q2 0 68 -2h205l-87 -87l-35 2q-92 4 -105 4l-159 4l-58 -231q-20 -79 -37 -119t-50 -85q-47 -65 -156 -159q65 -2 94 -2q184 0 332 19l-4 -17
q-99 -52 -152.5 -67.5t-149.5 -20.5q-123 -7 -390 -8l73 80q83 5 125 25.5t73 70.5q37 59 88 266z" />
    <glyph glyph-name="tbar" unicode="&#x167;" horiz-adv-x="655" 
d="M344 458q-27 -1 -37 -1l-65 1h-41q21 15 31 23q35 28 58 43l71 4l2 10l14 58l8 31l-139 1q-13 0 -50 -1q21 16 31 24q34 27 58 43l117 4l17 73l22 98l20 84q24 11 75 35q31 14 87 41l-14 -53q-54 -209 -69 -278h262l-78 -61l-202 -10q-16 -71 -22 -99h222l-59 -60
l-179 -10q-13 -49 -33 -128q-19 -72 -19 -103q0 -33 20 -64.5t41 -31.5q40 0 249 127l-2 -52q-311 -233 -384 -233q-29 0 -55 44t-26 94q0 43 9.5 93t47.5 207z" />
    <glyph glyph-name="Utilde" unicode="&#x168;" horiz-adv-x="1515" 
d="M1593 1175q-108 -385 -177 -679t-69 -364q0 -37 17.5 -53t57.5 -16q66 0 149 8l-43 -51q-224 -48 -313 -48q-56 0 -56 46q0 20 15 101q-336 -146 -491 -146q-110 0 -170 76q-55 70 -55 174q0 141 78.5 327t255.5 465q-115 39 -191 39q-93 0 -156 -46q-81 -59 -81 -149
q0 -73 69 -204l-137 -110q-59 121 -59 199q0 109 93 228q81 105 167.5 152t198.5 47q48 0 188 -23q14 6 21 10q35 16 64 26l12 -17q-123 -166 -209 -349q-146 -312 -146 -516q0 -108 51.5 -171.5t139.5 -63.5q79 0 157 25.5t206 94.5q28 107 98 389q103 411 125 514
q-54 2 -94 2h-35l54 50q155 17 265 33zM778 1367q94 95 158 134.5t123 39.5t167 -57q106 -56 149 -56q28 0 55 15t93 67l8 -47q-166 -134 -225 -134q-24 0 -42 8t-103 56q-115 64 -161 64q-66 0 -214 -138z" />
    <glyph glyph-name="utilde" unicode="&#x169;" horiz-adv-x="942" 
d="M968 850q-68 -196 -116.5 -393.5t-48.5 -277.5q0 -48 23 -48q30 0 235 123l-15 -61q-77 -58 -192 -129q-89 -54 -125.5 -72.5t-56.5 -18.5q-37 0 -37 47q0 63 28 177q-51 -35 -210 -138q-78 -51 -112.5 -68.5t-57.5 -17.5q-25 0 -41.5 28.5t-16.5 72.5q0 74 63 306
q58 213 58 256q0 38 -29 38q-33 0 -149 -59l14 55q112 69 207 120.5t111 51.5q25 0 25 -27q0 -19 -10 -54q-8 -24 -36 -145q-12 -49 -44 -167q-52 -191 -52 -261q0 -29 11 -48t28 -19q35 0 254 150l20 81q83 350 102 413zM402 1034q80 102 125 139t88 37q29 0 53 -11t78 -49
q71 -49 117 -49q35 0 67 20.5t84 75.5l12 -53q-78 -91 -113 -118.5t-73 -27.5q-32 0 -62 15.5t-99 67.5q-57 42 -97 42q-34 0 -71 -31t-98 -109z" />
    <glyph glyph-name="Umacron" unicode="&#x16a;" horiz-adv-x="1515" 
d="M1593 1175q-108 -385 -177 -679t-69 -364q0 -37 17.5 -53t57.5 -16q66 0 149 8l-43 -51q-224 -48 -313 -48q-56 0 -56 46q0 20 15 101q-336 -146 -491 -146q-110 0 -170 76q-55 70 -55 174q0 141 78.5 327t255.5 465q-115 39 -191 39q-93 0 -156 -46q-81 -59 -81 -149
q0 -73 69 -204l-137 -110q-59 121 -59 199q0 109 93 228q81 105 167.5 152t198.5 47q48 0 188 -23q14 6 21 10q35 16 64 26l12 -17q-123 -166 -209 -349q-146 -312 -146 -516q0 -108 51.5 -171.5t139.5 -63.5q79 0 157 25.5t206 94.5q28 107 98 389q103 411 125 514
q-54 2 -94 2h-35l54 50q155 17 265 33zM933 1395q15 14 44 49q29 32 44 49h592q-20 -18 -45 -50q-24 -29 -37 -48h-598z" />
    <glyph glyph-name="umacron" unicode="&#x16b;" horiz-adv-x="942" 
d="M968 850q-68 -196 -116.5 -393.5t-48.5 -277.5q0 -48 23 -48q30 0 235 123l-15 -61q-77 -58 -192 -129q-89 -54 -125.5 -72.5t-56.5 -18.5q-37 0 -37 47q0 63 28 177q-51 -35 -210 -138q-78 -51 -112.5 -68.5t-57.5 -17.5q-25 0 -41.5 28.5t-16.5 72.5q0 74 63 306
q58 213 58 256q0 38 -29 38q-33 0 -149 -59l14 55q112 69 207 120.5t111 51.5q25 0 25 -27q0 -19 -10 -54q-8 -24 -36 -145q-12 -49 -44 -167q-52 -191 -52 -261q0 -29 11 -48t28 -19q35 0 254 150l20 81q83 350 102 413zM395 1064q15 15 44 49l44 49h592q-20 -18 -45 -50
q-24 -29 -37 -48h-598z" />
    <glyph glyph-name="Ubreve" unicode="&#x16c;" horiz-adv-x="1516" 
d="M1594 1175q-108 -385 -177 -679t-69 -364q0 -37 17.5 -53t57.5 -16q66 0 149 8l-43 -51q-224 -48 -313 -48q-56 0 -56 46q0 20 15 101q-336 -146 -491 -146q-110 0 -170 76q-55 70 -55 174q0 141 78.5 327t255.5 465q-115 39 -191 39q-93 0 -156 -46q-81 -59 -81 -149
q0 -73 69 -204l-137 -110q-59 121 -59 199q0 109 93 228q81 105 167.5 152t198.5 47q48 0 188 -23q14 6 21 10q35 16 64 26l12 -17q-123 -166 -209 -349q-146 -312 -146 -516q0 -108 51.5 -171.5t139.5 -63.5q79 0 157 25.5t206 94.5q28 107 98 389q103 411 125 514
q-54 2 -94 2h-35l54 50q155 17 265 33zM928 1579l43 21q52 -88 115 -123.5t164 -35.5q65 0 132.5 17.5t109.5 45.5q52 35 87 102l31 -20q-23 -70 -92 -142q-49 -51 -128 -82t-162 -31q-229 0 -300 248z" />
    <glyph glyph-name="ubreve" unicode="&#x16d;" horiz-adv-x="942" 
d="M968 850q-68 -196 -116.5 -393.5t-48.5 -277.5q0 -48 23 -48q30 0 235 123l-15 -61q-77 -58 -192 -129q-89 -54 -125.5 -72.5t-56.5 -18.5q-37 0 -37 47q0 63 28 177q-51 -35 -210 -138q-78 -51 -112.5 -68.5t-57.5 -17.5q-25 0 -41.5 28.5t-16.5 72.5q0 74 63 306
q58 213 58 256q0 38 -29 38q-33 0 -149 -59l14 55q112 69 207 120.5t111 51.5q25 0 25 -27q0 -19 -10 -54q-8 -24 -36 -145q-12 -49 -44 -167q-52 -191 -52 -261q0 -29 11 -48t28 -19q35 0 254 150l20 81q83 350 102 413zM461 1248l42 21q53 -88 116 -123.5t163 -35.5
q65 0 132.5 17.5t109.5 45.5q52 35 87 102l32 -20q-24 -71 -92 -142q-50 -52 -129 -82.5t-163 -30.5q-228 0 -298 248z" />
    <glyph glyph-name="Uring" unicode="&#x16e;" horiz-adv-x="1515" 
d="M1593 1175q-108 -385 -177 -679t-69 -364q0 -37 17.5 -53t57.5 -16q66 0 149 8l-43 -51q-224 -48 -313 -48q-56 0 -56 46q0 20 15 101q-336 -146 -491 -146q-110 0 -170 76q-55 70 -55 174q0 141 78.5 327t255.5 465q-115 39 -191 39q-93 0 -156 -46q-81 -59 -81 -149
q0 -73 69 -204l-137 -110q-59 121 -59 199q0 109 93 228q81 105 167.5 152t198.5 47q48 0 188 -23q14 6 21 10q35 16 64 26l12 -17q-123 -166 -209 -349q-146 -312 -146 -516q0 -108 51.5 -171.5t139.5 -63.5q79 0 157 25.5t206 94.5q28 107 98 389q103 411 125 514
q-54 2 -94 2h-35l54 50q155 17 265 33zM1237 1642q65 0 102 -33.5t37 -92.5q0 -105 -79 -178q-67 -62 -157 -62q-64 0 -99.5 34t-35.5 95q0 102 65.5 169.5t166.5 67.5zM1208 1597q-50 0 -82.5 -48t-32.5 -122q0 -47 19.5 -76.5t50.5 -29.5q49 0 83 50.5t34 122.5
q0 103 -72 103z" />
    <glyph glyph-name="uring" unicode="&#x16f;" horiz-adv-x="942" 
d="M968 850q-68 -196 -116.5 -393.5t-48.5 -277.5q0 -48 23 -48q30 0 235 123l-15 -61q-77 -58 -192 -129q-89 -54 -125.5 -72.5t-56.5 -18.5q-37 0 -37 47q0 63 28 177q-51 -35 -210 -138q-78 -51 -112.5 -68.5t-57.5 -17.5q-25 0 -41.5 28.5t-16.5 72.5q0 74 63 306
q58 213 58 256q0 38 -29 38q-33 0 -149 -59l14 55q112 69 207 120.5t111 51.5q25 0 25 -27q0 -19 -10 -54q-8 -24 -36 -145q-12 -49 -44 -167q-52 -191 -52 -261q0 -29 11 -48t28 -19q35 0 254 150l20 81q83 350 102 413zM863 1311q65 0 102 -33.5t37 -93.5q0 -104 -79 -178
q-67 -62 -157 -62q-64 0 -99.5 34t-35.5 95q0 103 66 170.5t166 67.5zM834 1266q-50 0 -82.5 -48.5t-32.5 -122.5q0 -47 19.5 -76.5t50.5 -29.5q49 0 83 51t34 122q0 104 -72 104z" />
    <glyph glyph-name="Uhungarumlaut" unicode="&#x170;" horiz-adv-x="1515" 
d="M1593 1175q-108 -385 -177 -679t-69 -364q0 -37 17.5 -53t57.5 -16q66 0 149 8l-43 -51q-224 -48 -313 -48q-56 0 -56 46q0 20 15 101q-336 -146 -491 -146q-110 0 -170 76q-55 70 -55 174q0 141 78.5 327t255.5 465q-115 39 -191 39q-93 0 -156 -46q-81 -59 -81 -149
q0 -73 69 -204l-137 -110q-59 121 -59 199q0 109 93 228q81 105 167.5 152t198.5 47q48 0 188 -23q14 6 21 10q35 16 64 26l12 -17q-123 -166 -209 -349q-146 -312 -146 -516q0 -108 51.5 -171.5t139.5 -63.5q79 0 157 25.5t206 94.5q28 107 98 389q103 411 125 514
q-54 2 -94 2h-35l54 50q155 17 265 33zM1293 1288q45 60 160 211q17 23 134 180q57 -26 84 -38q-44 -45 -333 -361q-39 7 -45 8zM1097 1288q45 60 163 211q20 26 136 180l79 -38q-42 -43 -332 -361q-27 4 -46 8z" />
    <glyph glyph-name="uhungarumlaut" unicode="&#x171;" horiz-adv-x="942" 
d="M968 850q-68 -196 -116.5 -393.5t-48.5 -277.5q0 -48 23 -48q30 0 235 123l-15 -61q-77 -58 -192 -129q-89 -54 -125.5 -72.5t-56.5 -18.5q-37 0 -37 47q0 63 28 177q-51 -35 -210 -138q-78 -51 -112.5 -68.5t-57.5 -17.5q-25 0 -41.5 28.5t-16.5 72.5q0 74 63 306
q58 213 58 256q0 38 -29 38q-33 0 -149 -59l14 55q112 69 207 120.5t111 51.5q25 0 25 -27q0 -19 -10 -54q-8 -24 -36 -145q-12 -49 -44 -167q-52 -191 -52 -261q0 -29 11 -48t28 -19q35 0 254 150l20 81q83 350 102 413zM714 950q44 59 160 210l134 181q41 -19 84 -38
q-43 -44 -333 -361q-26 4 -45 8zM518 950q45 59 163 210q14 19 136 181l79 -38q-43 -44 -332 -361q-17 2 -46 8z" />
    <glyph glyph-name="Uogonek" unicode="&#x172;" horiz-adv-x="1515" 
d="M1571 71l-43 -51q-40 -11 -57.5 -19.5t-45.5 -31.5q-50 -42 -70.5 -67.5t-20.5 -47.5q0 -29 23.5 -50t55.5 -21q44 0 101 59l27 -10q-97 -145 -216 -145q-48 0 -78 29t-30 77q0 55 35 98.5t123 98.5q-114 -18 -160 -18q-56 0 -56 46q0 20 15 101q-336 -146 -491 -146
q-110 0 -170 76q-55 70 -55 174q0 141 78.5 327t255.5 465q-115 39 -191 39q-93 0 -156 -46q-81 -59 -81 -149q0 -73 69 -204l-137 -110q-59 121 -59 199q0 109 93 228q81 105 167.5 152t198.5 47q48 0 188 -23q14 6 21 10q35 16 64 26l12 -17q-123 -166 -209 -349
q-146 -312 -146 -516q0 -108 51.5 -171.5t139.5 -63.5q79 0 157 25.5t206 94.5q28 107 98 389q103 411 125 514q-54 2 -94 2h-35l54 50q155 17 265 33q-108 -385 -177 -679t-69 -364q0 -37 17.5 -53t57.5 -16q66 0 149 8z" />
    <glyph glyph-name="uogonek" unicode="&#x173;" horiz-adv-x="942" 
d="M676 271l20 81q83 350 102 413l170 85q-68 -196 -116.5 -393.5t-48.5 -277.5q0 -48 23 -48q30 0 235 123l-15 -61q-29 -21 -44 -32q-171 -126 -239 -190q-83 -77 -83 -118q0 -29 23.5 -49.5t55.5 -20.5q43 0 101 59l26 -10q-96 -145 -215 -145q-49 0 -78.5 29t-29.5 77
q0 97 142 187q-20 -7 -33 -7q-37 0 -37 47q0 63 28 177q-51 -35 -210 -138q-78 -51 -112.5 -68.5t-57.5 -17.5q-25 0 -41.5 28.5t-16.5 72.5q0 74 63 306q58 213 58 256q0 38 -29 38q-33 0 -149 -59l14 55q112 69 207 120.5t111 51.5q25 0 25 -27q0 -19 -10 -54
q-8 -24 -36 -145q-12 -49 -44 -167q-52 -191 -52 -261q0 -29 11 -48t28 -19q35 0 254 150z" />
    <glyph glyph-name="Wcircumflex" unicode="&#x174;" horiz-adv-x="1802" 
d="M538 -35l29 169q125 752 152 945q-189 -1 -252 -24q-116 -42 -116 -174q0 -100 66 -201l-152 -96q-52 85 -52 185q0 158 132 271q70 59 147 84t206 29q46 2 301 4q-50 -46 -105 -65q-96 -477 -153 -863q136 187 320 460t285 438l119 46l-51 -989q332 388 440 597
q98 189 98 328q0 62 -17.5 106t-59.5 87q62 52 132 84q51 -15 82 -33q31 -59 31 -133q0 -154 -130 -374q-114 -194 -392 -534q-141 -174 -226 -305l-132 -42q37 422 45 943q-264 -400 -614 -902zM1180 1337q251 253 354 339q22 6 29 6q9 0 27 -6q10 -150 22 -287l6 -67
q-24 -13 -73 -42q-5 35 -20 143q-4 35 -21 132q-106 -83 -315 -275q-2 13 -3 19q-2 23 -6 38z" />
    <glyph glyph-name="wcircumflex" unicode="&#x175;" horiz-adv-x="1393" 
d="M212 425l-34 50q72 230 118 277q20 20 69 20q24 0 58 -2q123 -5 233 -5q42 0 84 29h22q2 -11 2 -16q0 -1 -1 -20q-86 -86 -129.5 -140t-80.5 -121q-93 -167 -93 -307q0 -90 55 -90q57 0 144.5 70t143.5 161q47 76 103 260l46 150q85 22 153 43q-110 -325 -139 -429
t-29 -171q0 -42 19 -68t50 -26q59 0 150 87q128 124 191 322q35 114 35 214q0 74 -27 143q84 38 144 54q51 -34 51 -114q0 -103 -59.5 -245t-154.5 -264q-111 -144 -231.5 -229t-213.5 -85q-111 0 -111 118q0 71 31 160q-245 -278 -397 -278q-50 0 -80.5 34.5t-30.5 90.5
q0 81 34 176.5t93 181.5q23 34 182 211q-42 -16 -94 -16q-27 0 -53 1q-50 3 -67 3q-75 0 -121 -79q-17 -29 -65 -151zM862 1000q254 254 354 338q24 6 29 6q10 0 27 -6q12 -164 23 -287l6 -67q-32 -17 -73 -42q-5 35 -20 143q-5 36 -22 132q-106 -84 -315 -275q-2 13 -2 19
q-3 23 -7 39z" />
    <glyph glyph-name="Ycircumflex" unicode="&#x176;" horiz-adv-x="1147" 
d="M135 -156q106 -9 150 -9q133 0 213.5 34.5t137.5 115.5q82 117 140 276q40 109 40 260q0 249 -82 403q-33 63 -91.5 100.5t-120.5 37.5q-95 0 -159.5 -74t-64.5 -183q0 -79 41 -205l-157 -99q-42 94 -42 187q0 128 100 257q87 113 218 180q106 54 205 54q71 0 132 -40.5
t94 -108.5q56 -118 56 -287q0 -85 -23 -226q185 387 291 537q72 102 134.5 146.5t133.5 44.5q44 0 82 -33l-58 -149q-59 24 -101 24q-48 0 -87.5 -27.5t-84.5 -91.5q-42 -60 -88 -146.5t-206 -408.5q-153 -308 -246.5 -454t-169.5 -196q-64 -42 -143.5 -58.5t-220.5 -16.5
q-47 0 -94 4zM827 1337q254 255 354 339q22 6 29 6q9 0 27 -6l4 -56l8 -117l10 -114l6 -67q-22 -12 -73 -42q-5 33 -19 143q-5 35 -22 132q-105 -83 -315 -275q-2 13 -3 19q-2 23 -6 38z" />
    <glyph glyph-name="ycircumflex" unicode="&#x177;" horiz-adv-x="819" 
d="M23 -493l83 138q150 -37 225 -37q86 0 137 24.5t77 77.5q28 60 96 385l23 108q-86 -63 -263 -173q-90 -57 -122 -57q-31 0 -51.5 32t-20.5 83q0 64 59 277q64 233 64 278q0 31 -30 31q-27 0 -143 -58l7 55q289 171 326 171q23 0 23 -24q0 -15 -50 -219q-88 -333 -88 -403
q0 -28 12.5 -46.5t31.5 -18.5q28 0 59 16.5t192 116.5l22 89l42 168l42 168l18 73q30 15 45 22q81 39 130 66q-95 -317 -180 -710q-54 -252 -82 -320.5t-117 -163.5q-110 -118 -201 -146q-65 -19 -142 -19q-118 0 -224 16zM476 1000q252 252 354 338q23 6 29 6q10 0 27 -6
q11 -150 23 -287l5 -67q-32 -17 -72 -42q-6 35 -20 143q-5 36 -22 132q-106 -83 -315 -275q-2 13 -2 19q-3 24 -7 39z" />
    <glyph glyph-name="Ydieresis" unicode="&#x178;" horiz-adv-x="1147" 
d="M135 -156q107 -9 150 -9q133 0 213.5 34.5t137.5 115.5q83 117 140 276q40 110 40 260q0 249 -82 403q-33 62 -91.5 100t-120.5 38q-95 0 -159.5 -74t-64.5 -183q0 -78 41 -205l-156 -99q-43 94 -43 186q0 129 100 258q87 113 219 180q105 54 204 54q131 0 206.5 -117
t75.5 -320q0 -87 -23 -225q185 388 291 537q72 102 135 146.5t133 44.5q44 0 82 -33l-57 -149q-61 24 -102 24q-47 0 -87 -27.5t-85 -90.5q-41 -59 -87.5 -147.5t-206.5 -408.5q-200 -384 -252 -464q-55 -86 -99 -131.5t-99 -74.5q-59 -31 -132 -43t-198 -12q-47 0 -94 4z
M1202 1332q-55 80 -78 143q48 32 141 108q8 -18 12 -26q23 -54 59 -114q-67 -51 -134 -111zM931 1332q-56 81 -78 143q54 36 141 108q7 -18 11 -26q23 -54 59 -114q-70 -53 -133 -111z" />
    <glyph glyph-name="Zacute" unicode="&#x179;" horiz-adv-x="1270" 
d="M1190 465l154 92q38 -97 38 -176q0 -53 -14 -86t-60 -88q-15 -19 -47 -60q-70 -90 -100 -119q-58 -55 -144 -55q-79 0 -497 44q-119 12 -202 12q-58 0 -99.5 -14.5t-91.5 -51.5v76q72 64 205 194l104 103l695 694q-120 -21 -238 -21q-95 0 -209 14q-32 4 -55 4
q-47 0 -78.5 -38t-138.5 -227l-35 51q88 200 134 294q25 50 41 64t49 14q19 0 173 -16q332 -31 362 -31q58 0 104.5 19t98.5 65l2 -59l-157 -160q-549 -554 -832 -847l66 10h39h35q73 0 274 -19q180 -16 291 -16q198 0 198 162q0 42 -8.5 64.5t-56.5 107.5zM918 1294
q112 148 241 328l42 57l91 -43q-182 -187 -326 -356z" />
    <glyph glyph-name="zacute" unicode="&#x17a;" horiz-adv-x="901" 
d="M94 88q430 377 674 614q-45 -9 -169 -13q-96 -2 -124 -7t-49 -26q-17 -17 -79 -144l-35 39q74 196 95 231t64 35h15q135 -6 282 -6q79 0 110.5 9.5t93.5 52.5q1 -7 1 -9l-3 -40q-60 -63 -223 -222l-146 -142q-189 -178 -257 -245q182 -80 248 -102.5t120 -22.5
q50 0 84.5 33.5t34.5 82.5q0 33 -22 86q35 25 121 80q28 -59 28 -94q0 -51 -54 -115q-70 -85 -150 -144q-64 -46 -131 -46q-70 0 -222 54q-138 49 -203 69q-53 -31 -99 -60q-5 23 -5 40v12zM645 955q106 141 241 329l42 57l92 -44q-187 -191 -327 -355z" />
    <glyph glyph-name="Zdotaccent" unicode="&#x17b;" horiz-adv-x="1270" 
d="M1190 465l154 92q38 -97 38 -176q0 -53 -14 -86t-60 -88q-15 -19 -47 -60q-70 -90 -100 -119q-58 -55 -144 -55q-79 0 -497 44q-119 12 -202 12q-58 0 -99.5 -14.5t-91.5 -51.5v76q72 64 205 194l104 103l695 694q-120 -21 -238 -21q-95 0 -209 14q-32 4 -55 4
q-47 0 -78.5 -38t-138.5 -227l-35 51q88 200 134 294q25 50 41 64t49 14q19 0 173 -16q332 -31 362 -31q58 0 104.5 19t98.5 65l2 -59l-157 -160q-549 -554 -832 -847l66 10h39h35q73 0 274 -19q180 -16 291 -16q198 0 198 162q0 42 -8.5 64.5t-56.5 107.5zM998 1332
q-57 83 -78 143q47 31 141 108q7 -18 11 -26q21 -51 59 -114q-75 -57 -133 -111z" />
    <glyph glyph-name="zdotaccent" unicode="&#x17c;" horiz-adv-x="901" 
d="M94 88q430 377 674 614q-45 -9 -169 -13q-96 -2 -124 -7t-49 -26q-17 -17 -79 -144l-35 39q74 196 95 231t64 35h15q135 -6 282 -6q79 0 110.5 9.5t93.5 52.5q1 -7 1 -9l-3 -40q-60 -63 -223 -222l-146 -142q-189 -178 -257 -245q182 -80 248 -102.5t120 -22.5
q50 0 84.5 33.5t34.5 82.5q0 33 -22 86q35 25 121 80q28 -59 28 -94q0 -51 -54 -115q-70 -85 -150 -144q-64 -46 -131 -46q-70 0 -222 54q-138 49 -203 69q-53 -31 -99 -60q-5 23 -5 40v12zM725 1002q-57 83 -78 143q43 29 141 108q8 -17 11 -26q23 -54 59 -114
q-75 -57 -133 -111z" />
    <glyph glyph-name="Zcaron" unicode="&#x17d;" horiz-adv-x="1270" 
d="M1190 465l154 92q38 -97 38 -176q0 -53 -14 -86t-60 -88q-15 -19 -47 -60q-70 -90 -100 -119q-58 -55 -144 -55q-79 0 -497 44q-119 12 -202 12q-58 0 -99.5 -14.5t-91.5 -51.5v76q72 64 205 194l104 103l695 694q-120 -21 -238 -21q-95 0 -209 14q-32 4 -55 4
q-47 0 -78.5 -38t-138.5 -227l-35 51q88 200 134 294q25 50 41 64t49 14q19 0 173 -16q332 -31 362 -31q58 0 104.5 19t98.5 65l2 -59l-157 -160q-549 -554 -832 -847l66 10h39h35q73 0 274 -19q180 -16 291 -16q198 0 198 162q0 42 -8.5 64.5t-56.5 107.5zM1311 1624
l-70 -70q-201 -201 -285 -270q-12 -3 -18 -4q-9 -2 -12 -2q-9 0 -25 6l-4 57q-16 229 -22 297l71 43q4 -31 6 -47q7 -54 35 -227q113 89 150 123q122 113 165 151q2 -13 3 -20q1 -20 6 -37z" />
    <glyph glyph-name="zcaron" unicode="&#x17e;" horiz-adv-x="901" 
d="M94 88l56 49l149 131q353 322 469 434q-45 -9 -169 -13q-96 -2 -123.5 -7t-49.5 -26q-17 -18 -78 -144l-36 39q74 196 95 231t64 35h16q135 -6 281 -6q80 0 110.5 9.5t94.5 52.5v-9l-3 -40q-60 -63 -223 -222l-146 -142q-189 -179 -257 -245q183 -80 248.5 -102.5
t119.5 -22.5q50 0 84.5 33.5t34.5 83.5q0 32 -22 85q31 22 122 80q27 -59 27 -94q0 -51 -54 -115q-70 -85 -150 -144q-63 -46 -131 -46q-70 0 -222 54q-138 49 -203 69q-53 -31 -99 -60q-5 23 -5 40v12zM1079 1283q-241 -243 -354 -339q-24 -6 -29 -6q-10 0 -27 6l-3 56
q-10 138 -23 298q14 9 21 13q29 16 50 30q25 -187 42 -275q93 74 107 86.5t207 188.5z" />
    <glyph glyph-name="longs" unicode="&#x17f;" horiz-adv-x="655" 
d="M-111 -367q68 -10 108 -10q69 0 112 25t75 83q37 67 68 176t89 372q134 611 197 761q49 115 183 228q87 72 147 98t142 26q49 0 98 -12l-94 -110q-92 16 -137 16q-55 0 -90.5 -30t-62.5 -101q-34 -86 -57 -167.5t-126 -483.5q-76 -294 -100 -377.5t-60 -178.5
q-50 -129 -103 -206t-153 -163q-72 -62 -129 -74q-42 -9 -99 -9q-45 0 -100 9q64 86 92 128z" />
    <glyph glyph-name="florin" unicode="&#x192;" horiz-adv-x="901" 
d="M-9 -370q74 -7 112 -7q120 0 175 87q49 79 152 517l112 495q-96 -2 -136 -2q-36 0 -122 2l109 68q45 -2 66 -2q15 0 100 2q44 187 81 267t115 158q101 100 176.5 141t160.5 41q48 0 111 -15l-96 -111q-84 20 -136 20q-51 0 -81 -20.5t-56 -72.5q-53 -104 -124 -408
q127 2 153 2q39 0 119 -2l-91 -68q-67 1 -103 1q-30 0 -95 -1q-140 -575 -189 -717q-75 -219 -166 -322q-117 -131 -192 -166q-46 -21 -139 -21q-51 0 -107 8z" />
    <glyph glyph-name="Aringacute" unicode="&#x1fa;" horiz-adv-x="1270" 
d="M47 18l78 143q45 -14 89 -14q72 0 124.5 24t114.5 85q104 101 273 319l355 458q-80 6 -219 21q-40 4 -76 4q-118 0 -179 -51q-59 -48 -59 -134q0 -64 45 -191l-152 -83q-30 79 -30 141q0 116 79 220q81 106 178 166t187 60q59 0 187 -21q88 -15 116 -15q33 0 48 9t61 57
l29 -21q-48 -243 -96.5 -587t-48.5 -442q0 -53 22 -72.5t82 -19.5q24 0 152 10l-33 -49q-50 -8 -189 -34q-152 -28 -165 -28q-20 0 -33.5 13t-13.5 32q0 33 10 87q5 25 12 84q8 57 27 184q-143 9 -363 9q-202 -232 -300.5 -307t-202.5 -75q-49 0 -109 18zM724 465h310
l84 518zM1332 1617q65 0 102 -33.5t37 -92.5q0 -104 -79 -178q-67 -62 -157 -62q-64 0 -99.5 34t-35.5 95q0 102 66 169.5t166 67.5zM1303 1572q-50 0 -82.5 -48t-32.5 -123q0 -46 19.5 -75.5t50.5 -29.5q48 0 82.5 50.5t34.5 122.5q0 103 -72 103zM1013 1510
q102 136 242 329l41 57l92 -44q-187 -192 -326 -355z" />
    <glyph glyph-name="aringacute" unicode="&#x1fb;" horiz-adv-x="860" 
d="M1007 267l-2 -60q-322 -234 -373 -234q-33 0 -33 42q0 40 31 184q-194 -140 -264 -183t-105 -43q-37 0 -60 45t-23 119q0 148 73 359q35 101 72 147.5t133 113.5q78 54 119 69q44 16 127 16q123 0 259 -30q-37 -40 -61 -74q-122 -463 -122 -551q0 -42 24 -42t205 122z
M648 282q13 55 53 227q3 13 57 213q-116 26 -175 26q-52 0 -89.5 -35.5t-74.5 -119.5q-83 -191 -83 -360q0 -102 54 -102q40 0 145 70zM849 1278q66 0 103 -33.5t37 -93.5q0 -104 -79 -177q-67 -62 -157 -62q-64 0 -99.5 34t-35.5 95q0 102 66 169.5t165 67.5zM821 1233
q-50 0 -82.5 -48t-32.5 -122q0 -47 19.5 -76.5t50.5 -29.5q48 0 82.5 50.5t34.5 121.5q0 104 -72 104zM546 1186q106 141 242 329l41 57l92 -44q-186 -190 -326 -356z" />
    <glyph glyph-name="AEacute" unicode="&#x1fc;" horiz-adv-x="1515" 
d="M1026 555l-118 -471q81 -2 126 -2q171 0 239 14t122 59q68 57 210 266l29 -55l-30 -59q-104 -209 -156 -302q-285 4 -533 4q-194 0 -360 -4l59 47l144 32l118 471h-301q-109 -134 -211 -277q-78 -109 -91.5 -135t-13.5 -66q0 -22 10 -65q-100 -17 -190 -21q-11 29 -14 63
q131 169 218.5 270.5t542.5 609.5l131 147q-97 25 -224 41q38 33 65 47q194 -13 273 -13q147 0 374 8q78 3 144 5q35 -21 39 -88l-146 -137q-8 96 -29 126.5t-79 30.5q-31 0 -76 -3l-139 -9l-118 -471h349q-39 -36 -87 -63q-62 2 -97 2h-42q-93 -1 -138 -2zM639 631
q106 -9 254 -10l104 417zM1132 1272q108 142 242 328l42 58l91 -44q-186 -190 -326 -356z" />
    <glyph glyph-name="aeacute" unicode="&#x1fd;" horiz-adv-x="1122" 
d="M1204 212q-108 -98 -180 -146q-139 -93 -252 -93q-73 0 -117.5 48.5t-44.5 126.5q0 21 1 46q-174 -128 -249.5 -174.5t-111.5 -46.5q-29 0 -50.5 48.5t-21.5 114.5q0 101 33.5 232t82.5 220q27 50 62 83.5t119 90.5q117 79 195 79q67 0 126 -66q13 19 19 29q39 59 65 94
q16 4 21 4q7 0 19 -4q-8 -19 -56 -144q126 88 206 88q118 0 118 -124q0 -91 -76.5 -166t-352.5 -257q-1 -21 -1 -35q0 -68 25 -113q32 -57 96 -57q59 0 131.5 42t193.5 146v-66zM621 269q39 205 100 368q-52 108 -135 108q-113 0 -191 -209q-59 -156 -59 -280
q0 -125 53 -125q24 0 59.5 21t172.5 117zM766 362q166 116 201 150q74 72 74 157q0 87 -58 87q-67 0 -127 -108.5t-90 -285.5zM795 937q106 141 242 329l41 57l92 -44q-186 -191 -326 -355z" />
    <glyph glyph-name="Oslashacute" unicode="&#x1fe;" horiz-adv-x="1352" 
d="M1074 1272q102 135 242 328l41 58l92 -44q-187 -192 -326 -356zM383 54q-59 60 -84 133.5t-25 185.5q0 224 88 407q106 223 348 340q184 90 358 90q86 0 167 -41q90 120 194 244l7 -23l6 -23l6 -23q-94 -117 -165 -209q56 -55 80 -116q33 -85 33 -207q0 -196 -71 -372
q-90 -223 -335 -363q-182 -104 -372 -104q-88 0 -177 41q-67 -91 -193 -284q-16 45 -23 100q58 92 158 224zM494 202q136 181 313 407q189 244 334 435q-77 86 -204 86q-106 0 -201 -56t-164 -159q-130 -196 -130 -460q0 -157 52 -253zM1175 994q-383 -498 -640 -851
q82 -88 206 -88q134 0 248 89q130 101 193 306q46 149 46 300q0 147 -53 244z" />
    <glyph glyph-name="oslashacute" unicode="&#x1ff;" horiz-adv-x="901" 
d="M564 915q95 126 241 329l42 57l92 -43q-190 -195 -327 -356zM188 -230q18 35 58 111q36 73 52 104q-56 31 -79 75t-23 122q0 204 110 387q30 51 68 86.5t110 81.5q91 58 152 81.5t126 25.5l24 45l55 97q52 93 75 134l40 -51q-17 -29 -68 -112l-72 -124q66 -29 93 -72
t27 -119q0 -205 -130 -417q-27 -45 -74 -85t-133 -90q-84 -50 -126.5 -63.5t-110.5 -14.5q-19 -38 -61 -128q-33 -71 -71 -148zM371 132l330 609q-28 9 -46 9q-135 0 -228 -177q-84 -160 -84 -319q0 -57 28 -122zM415 81q34 -15 62 -15q50 0 101 34t89 93q50 78 80.5 186
t30.5 207q0 70 -29 127q-229 -420 -334 -632z" />
    <glyph glyph-name="Scommaaccent" unicode="&#x218;" horiz-adv-x="942" 
d="M124 231q20 -120 74 -180q90 -101 234 -101q124 0 224 83q108 90 108 218q0 72 -35.5 124t-141.5 136q-87 68 -117 113q-44 67 -44 139q0 169 169 314q141 123 281 123q165 0 183 -168l-136 -96q-16 98 -45 133t-95 35q-91 0 -154 -73q-66 -77 -66 -175q0 -66 31.5 -109
t143.5 -130q114 -90 149 -136.5t35 -110.5q0 -132 -102 -263q-91 -116 -231.5 -184.5t-286.5 -68.5q-102 0 -175 34.5t-127 106.5l90 214zM197 -578q82 105 107 152t25 99q0 23 -16 91q86 47 131 72q13 -58 13 -85q0 -66 -74 -182q-22 -34 -128 -163z" />
    <glyph glyph-name="scommaaccent" unicode="&#x219;" horiz-adv-x="655" 
d="M87 171l139 90q1 -93 19 -132q32 -70 101 -70q60 0 117 52.5t57 108.5q0 38 -20 62t-98 79q-109 77 -109 167q0 100 115 208q112 106 226 106q82 0 138 -70q-26 -38 -97 -107q-60 81 -127 81q-52 0 -90 -39t-38 -92q0 -75 99 -137q80 -50 98 -71q30 -35 30 -93
q0 -95 -74 -180q-62 -71 -156 -116t-181 -45q-68 0 -110 41.5t-42 109.5q0 17 3 47zM98 -537q84 109 108 154t24 97q0 24 -15 91q85 47 130 72q13 -59 13 -85q0 -65 -74 -182q-22 -33 -128 -163z" />
    <glyph glyph-name="uni021A" unicode="&#x21a;" horiz-adv-x="1024" 
d="M327 -1l73 80q83 5 124.5 25.5t72.5 70.5q37 58 89 266l167 667q-138 10 -186 10q-161 0 -237 -35q-153 -72 -153 -251q0 -68 46 -187l-153 -101q-51 100 -51 196q0 179 150 303q184 153 474 153q75 0 403 -16q100 -5 129 -5q55 0 80.5 23t87.5 130l28 -30
q-37 -151 -62 -186t-98 -35q-40 0 -232 16l-79 6l-160 -641q-20 -79 -37 -119.5t-50 -84.5q-47 -65 -156 -159q64 -2 94 -2q182 0 332 19l-4 -17q-99 -52 -153 -67.5t-149 -20.5q-123 -7 -390 -8zM279 -537q83 106 107.5 152.5t24.5 98.5q0 24 -15 91q85 47 130 72
q13 -58 13 -85q0 -65 -74 -182q-22 -33 -128 -163z" />
    <glyph glyph-name="uni021B" unicode="&#x21b;" horiz-adv-x="655" 
d="M743 258l-3 -52q-311 -233 -383 -233q-29 0 -55 44t-26 94q0 48 11 101.5t77 326.5l21 89h-45h-94h-49q20 15 31 23q36 29 58 43l117 4l16 73l23 98l20 84q23 11 75 35q31 14 86 41l-13 -53q-54 -209 -69 -278h262l-78 -60l-202 -10q-12 -48 -42 -172q-48 -199 -48 -228
q0 -34 19.5 -65.5t41.5 -31.5q36 0 249 127zM98 -537q83 106 107.5 152.5t24.5 98.5q0 24 -15 91q85 47 130 72q13 -58 13 -85q0 -65 -74 -182q-22 -33 -128 -163z" />
    <glyph glyph-name="circumflex" unicode="&#x2c6;" horiz-adv-x="696" 
d="M375 1000q251 251 354 338q23 6 29 6q10 0 27 -6q10 -151 22 -287l6 -67q-30 -17 -73 -42q-4 31 -19 143q-6 38 -22 132q-108 -85 -315 -275q-2 13 -3 19q-2 22 -6 39z" />
    <glyph glyph-name="caron" unicode="&#x2c7;" horiz-adv-x="696" 
d="M915 1283q-242 -244 -354 -339q-24 -6 -29 -6q-10 0 -26 6l-4 56q-10 138 -23 298q14 9 21 13q28 16 50 30q26 -192 42 -275q116 92 314 275z" />
    <glyph glyph-name="uni02C9" unicode="&#x2c9;" horiz-adv-x="901" 
d="M375 1064q14 15 43 49l45 49h592q-21 -18 -45 -50q-24 -29 -38 -48h-597z" />
    <glyph glyph-name="breve" unicode="&#x2d8;" horiz-adv-x="901" 
d="M375 1248l42 21q53 -88 116 -123.5t164 -35.5q65 0 132 17.5t109 45.5q53 35 88 102l31 -20q-24 -70 -92 -142q-49 -52 -128.5 -82.5t-163.5 -30.5q-227 0 -298 248z" />
    <glyph glyph-name="dotaccent" unicode="&#x2d9;" horiz-adv-x="451" 
d="M500 1002q-57 83 -78 143q43 29 141 108q8 -17 11 -26q22 -52 59 -114q-75 -57 -133 -111z" />
    <glyph glyph-name="ring" unicode="&#x2da;" horiz-adv-x="614" 
d="M699 1311q65 0 102 -33.5t37 -93.5q0 -104 -79 -178q-67 -62 -157 -62q-64 0 -99.5 34t-35.5 95q0 103 65.5 170.5t166.5 67.5zM670 1266q-50 0 -82.5 -48.5t-32.5 -122.5q0 -47 19.5 -76.5t50.5 -29.5q49 0 83 51t34 122q0 104 -72 104z" />
    <glyph glyph-name="ogonek" unicode="&#x2db;" horiz-adv-x="573" 
d="M363 0q-37 -32 -56 -48q-71 -59 -71 -99q0 -28 23.5 -49t55.5 -21q43 0 101 59l27 -10q-97 -145 -216 -145q-49 0 -78.5 29t-29.5 77q0 57 40 104t135 103h69z" />
    <glyph glyph-name="tilde" unicode="&#x2dc;" horiz-adv-x="901" 
d="M375 1048q75 102 120.5 139.5t94.5 37.5q32 0 56 -9t84 -42q73 -42 118 -42q55 0 109 39q18 13 73 65l21 -36q-83 -103 -125.5 -136.5t-88.5 -33.5q-36 0 -66.5 11.5t-109.5 56.5q-60 34 -101 34q-39 0 -70.5 -24t-87.5 -98z" />
    <glyph glyph-name="hungarumlaut" unicode="&#x2dd;" horiz-adv-x="819" 
d="M571 950q44 59 160 210l134 181q41 -19 83 -38q-43 -46 -332 -361q-27 4 -45 8zM375 950q45 59 163 210q14 19 136 181l79 -38q-43 -44 -333 -361q-16 2 -45 8z" />
    <glyph glyph-name="tonos" unicode="&#x384;" horiz-adv-x="628" 
d="M489 937l73 347h138l-132 -324z" />
    <glyph glyph-name="dieresistonos" unicode="&#x385;" horiz-adv-x="628" 
d="M489 937l73 347h138l-133 -324zM767 1002q-56 81 -78 143q38 25 141 108q34 -78 71 -140q-68 -51 -134 -111zM352 1002q-57 83 -79 143q45 30 141 108q34 -78 71 -140q-74 -56 -133 -111z" />
    <glyph glyph-name="Alphatonos" unicode="&#x386;" horiz-adv-x="1414" 
d="M191 18l78 143q45 -14 89 -14q72 0 124.5 24t114.5 85q104 101 273 319l355 458q-88 7 -219 21q-40 4 -76 4q-118 0 -179 -51q-59 -48 -59 -134q0 -64 45 -191l-152 -83q-30 79 -30 141q0 116 79 220q81 106 178 166t187 60q59 0 187 -21q88 -15 116 -15q33 0 48.5 9.5
t60.5 56.5l29 -21q-48 -243 -96.5 -587t-48.5 -442q0 -53 22 -72.5t82 -19.5q24 0 152 10l-33 -49q-50 -8 -189 -34q-152 -28 -165 -28q-20 0 -33.5 13t-13.5 32q0 33 10 87q5 25 12 84q8 57 27 184q-143 9 -363 9q-202 -232 -300.5 -307t-202.5 -75q-49 0 -109 18zM868 465
h310l84 518zM447 937l73 347h138l-132 -324z" />
    <glyph glyph-name="uni0387" unicode="&#x387;" horiz-adv-x="451" 
d="M345 567q52 0 88 -36t36 -88t-36.5 -88t-89.5 -36q-50 0 -86 36.5t-36 87.5t36.5 87.5t87.5 36.5z" />
    <glyph glyph-name="Epsilontonos" unicode="&#x388;" horiz-adv-x="1583" 
d="M1054 629h367q-39 -30 -77 -60q-58 -2 -144 -8q-46 -3 -166 -10q-55 -207 -90 -267q-22 -38 -51 -70t-134 -130h534q146 0 184 15t38 74q0 25 -8 76l155 58q9 -31 9 -47q0 -65 -129 -181q-70 -63 -108.5 -79t-118.5 -16q-97 0 -338 8l-464 8l79 68q78 19 115.5 43
t64.5 70q29 50 89 277l22 83h-58q40 49 80 88l115 459q-173 -4 -259 -38q-135 -54 -135 -193q0 -75 26 -171l-147 -98q-37 95 -37 166q0 153 147 269q88 70 189.5 100.5t249.5 32.5l143 43l-11 -43l437 9q47 -19 58 -80l-136 -134q-37 90 -53 110q-28 37 -97 37l-225 -6z
M382 937l73 347h138l-132 -324z" />
    <glyph glyph-name="Etatonos" unicode="&#x389;" horiz-adv-x="1571" 
d="M981 659h437q16 53 73 262q26 95 55 148t91 120q66 70 135.5 124t108.5 66q28 9 65 9q46 0 92 -14l-70 -112q-57 20 -108 20q-81 0 -123 -69q-18 -30 -37.5 -92t-118.5 -405q-98 -382 -114.5 -454t-16.5 -120q0 -54 66 -54q62 0 195 13l-38 -51l-55 -11
q-206 -38 -254 -52q-34 -10 -56 -10q-19 0 -32.5 13t-13.5 31q0 25 72 312q51 193 67 258q-167 -2 -442 -23q-51 -159 -76.5 -205.5t-106.5 -132.5q-171 -179 -271 -210q-62 -20 -158 -20q-46 0 -101 8l97 133q68 -4 108 -4q107 0 163.5 28t97.5 101t101 308l-53 3l73 78
l15 60q72 280 103 382q-161 0 -226 -27q-129 -55 -129 -232q0 -56 23 -140l-154 -52q-17 62 -17 104q0 96 38 169t121 136q83 61 191 90t259 29q39 0 119 -4l-80 -68q-14 -63 -56 -223q-40 -157 -59 -220zM360 937l73 347h138l-133 -324z" />
    <glyph glyph-name="Iotatonos" unicode="&#x38a;" horiz-adv-x="885" 
d="M273 1l75 50l119 14q36 125 128 486q112 439 139 558l-184 13l72 50h73h84l244 1q16 0 69 -1l-72 -50l-119 -13q-190 -696 -263 -1044l190 -14l-73 -50h-83q-192 1 -233 1q-56 0 -166 -1zM356 937l73 347h138l-132 -324z" />
    <glyph glyph-name="Omicrontonos" unicode="&#x38c;" horiz-adv-x="1289" 
d="M1058 1210q168 0 254 -107q83 -102 83 -291q0 -196 -71 -372q-89 -223 -335 -363q-182 -104 -368 -104q-171 0 -259.5 102t-88.5 299q0 222 88 406q106 221 348 340q183 90 349 90zM939 1130q-130 0 -242 -82q-128 -92 -198 -275q-58 -150 -58 -319q0 -181 72 -285
q79 -114 228 -114q133 0 247 89q130 100 193 306q46 149 46 299q0 171 -71 273q-74 108 -217 108zM323 937l74 347h138l-133 -324z" />
    <glyph glyph-name="Upsilontonos" unicode="&#x38e;" horiz-adv-x="1356" 
d="M344 -156q106 -9 150 -9q133 0 213.5 34.5t137.5 115.5q82 117 140 276q40 109 40 260q0 249 -82 403q-33 63 -91.5 100.5t-120.5 37.5q-95 0 -159.5 -74t-64.5 -183q0 -79 41 -205l-157 -99q-42 94 -42 187q0 128 100 257q87 113 218 180q106 54 205 54q71 0 132 -40.5
t94 -108.5q56 -118 56 -287q0 -85 -23 -226q185 387 291 537q72 102 134.5 146.5t133.5 44.5q44 0 82 -33l-58 -149q-59 24 -101 24q-48 0 -87.5 -27.5t-84.5 -91.5q-42 -60 -88 -146.5t-206 -408.5q-153 -308 -246.5 -454t-169.5 -196q-64 -42 -143.5 -58.5t-220.5 -16.5
q-47 0 -94 4zM311 937l73 347h138l-133 -324z" />
    <glyph glyph-name="Omegatonos" unicode="&#x38f;" horiz-adv-x="1586" 
d="M1028 237q76 14 119 34q119 56 192 232q51 122 51 255q0 159 -71 264q-72 108 -222 108q-100 0 -191.5 -44t-155.5 -123q-127 -155 -127 -388q0 -185 76 -263q44 -45 154 -67l-120 -245h-535l-7 14q19 59 87 244h32q5 -69 21 -93q18 -27 116 -27h268l33 57q-96 5 -174 60
q-119 83 -119 283q0 175 84 322q110 190 334 284q156 66 321 66q189 0 278 -107q86 -103 86 -284q0 -166 -70 -310q-81 -165 -219 -242q-55 -31 -159 -57v-62l91 -7q151 -10 223 -10q199 0 199 162q0 43 -8.5 64.5t-57.5 107.5l154 92q39 -97 39 -177q0 -51 -14 -83t-60 -86
q-15 -18 -47 -58q-69 -87 -100 -116q-59 -54 -147 -54q-9 0 -353 19zM464 937l73 347h138l-133 -324z" />
    <glyph glyph-name="iotadieresistonos" unicode="&#x390;" horiz-adv-x="556" 
d="M662 238l-9 -59q-58 -35 -174 -110q-150 -96 -197 -96q-23 0 -36.5 22.5t-13.5 59.5q0 39 12 90.5t83 318.5q38 141 38 174q0 36 -24 36q-21 0 -150 -70l5 58q267 180 323 180q24 0 24 -21q0 -15 -76 -327q-67 -271 -67 -306q0 -57 36 -57q29 0 191 88zM472 937l73 347
h138l-133 -324zM750 1002q-56 81 -78 143q38 26 141 108q34 -78 70 -140q-70 -53 -133 -111zM334 1002q-57 83 -78 143q45 30 141 108q34 -78 70 -140q-73 -56 -133 -111z" />
    <glyph glyph-name="Alpha" unicode="&#x391;" horiz-adv-x="1270" 
d="M47 18l78 143q45 -14 89 -14q72 0 124.5 24t114.5 85q104 101 273 319l355 458q-88 7 -219 21q-40 4 -76 4q-118 0 -179 -51q-59 -48 -59 -134q0 -64 45 -191l-152 -83q-30 79 -30 141q0 116 79 220q81 106 178 166t187 60q59 0 187 -21q88 -15 116 -15q33 0 48.5 9.5
t60.5 56.5l29 -21q-48 -243 -96.5 -587t-48.5 -442q0 -53 22 -72.5t82 -19.5q24 0 152 10l-33 -49q-50 -8 -189 -34q-152 -28 -165 -28q-20 0 -33.5 13t-13.5 32q0 33 10 87q5 25 12 84q8 57 27 184q-143 9 -363 9q-202 -232 -300.5 -307t-202.5 -75q-49 0 -109 18zM724 465
h310l84 518z" />
    <glyph glyph-name="Beta" unicode="&#x392;" horiz-adv-x="1229" 
d="M183 3l96 98q132 13 184 64q39 38 66 108.5t71 246.5l152 607q-182 -13 -294 -86q-78 -52 -112.5 -121t-34.5 -173q0 -45 21 -150l-164 -77q-15 78 -15 132q0 274 248 424q128 77 368 114l166 71l-17 -64q178 0 256 -24q140 -42 140 -171q0 -196 -305 -334
q130 -13 187 -57q81 -61 81 -160q0 -222 -275 -360q-103 -52 -190.5 -73.5t-192.5 -21.5q-34 0 -175 3q-53 1 -142 2q-64 0 -119 2zM473 109q237 -27 302 -27q157 0 240 96q38 43 61 105t23 121q0 95 -65.5 146.5t-185.5 51.5q-30 0 -78 -3l-20 -79q-25 -99 -45.5 -146
t-60.5 -97q-48 -58 -171 -168zM784 655q83 2 135 17t99 50q54 41 86 108.5t32 139.5q0 50 -21.5 91t-58.5 60q-34 17 -152 20z" />
    <glyph glyph-name="Gamma" unicode="&#x393;" horiz-adv-x="1024" 
d="M961 1128l-133 -555q-36 -148 -66 -205q-79 -153 -245 -269q-157 -109 -298 -103l-96 4l78 135l127 -4h19q145 0 198 67q32 40 56.5 110t64.5 233l141 583l-106 6l-14 1q-64 4 -145 -37q-65 -32 -99 -91q-44 -74 -44 -169q0 -88 37 -205l-145 -78q-31 103 -31 168
q0 73 26 155.5t67 137.5q71 97 194 141q122 45 257 45l150 -2h168q125 0 187.5 14t134.5 58l-21 -54l-129 -94z" />
    <glyph glyph-name="uni0394" unicode="&#x394;" horiz-adv-x="1212" 
d="M68 -37l-13 76q60 64 171 194l86 103l732 880l32 -20q-2 -96 -2 -131q0 -287 13 -571t28 -347q19 -73 98 -116q-38 -33 -80.5 -46.5t-107.5 -13.5q-116 0 -573 46q-125 12 -204 12q-59 0 -97.5 -14.5t-82.5 -51.5zM934 992l-148 -181q-290 -357 -526 -655l64 10h39h34
q70 0 294 -32q180 -26 263 -31l-6 195z" />
    <glyph glyph-name="Epsilon" unicode="&#x395;" horiz-adv-x="1270" 
d="M742 629h366q-39 -30 -77 -60q-57 -2 -143 -8q-46 -3 -166 -10q-56 -207 -90 -267q-22 -38 -51.5 -70t-134.5 -130h534q147 0 184.5 15t37.5 74q0 26 -8 76l155 58q9 -31 9 -47q0 -65 -129 -181q-69 -63 -108 -79t-118 -16q-98 0 -338 8l-465 8l79 68q78 19 116 43t65 70
q28 49 88 277l22 83h-57q39 48 79 88l115 459q-173 -4 -258 -38q-135 -54 -135 -193q0 -76 26 -171l-148 -98q-36 95 -36 166q0 153 147 269q88 70 189.5 100.5t248.5 32.5l143 43l-10 -43l437 9q46 -19 57 -80l-135 -134q-37 89 -54 110q-28 37 -97 37l-224 -6z" />
    <glyph glyph-name="Zeta" unicode="&#x396;" horiz-adv-x="1270" 
d="M1190 465l154 92q38 -97 38 -176q0 -53 -14 -86t-60 -88q-15 -19 -47 -60q-70 -90 -100 -119q-58 -55 -144 -55q-79 0 -497 44q-119 12 -202 12q-58 0 -99.5 -14.5t-91.5 -51.5v76q72 64 205 194l104 103l695 694q-120 -21 -238 -21q-95 0 -209 14q-32 4 -55 4
q-47 0 -78.5 -38t-138.5 -227l-35 51q91 204 134 294q25 50 41 64t49 14q19 0 173 -16q332 -31 362 -31q58 0 104.5 19t98.5 65l2 -59l-157 -160q-549 -554 -832 -847l66 10h39h35q73 0 274 -19q180 -16 291 -16q198 0 198 162q0 42 -8.5 64.5t-56.5 107.5z" />
    <glyph glyph-name="Eta" unicode="&#x397;" horiz-adv-x="1393" 
d="M803 659h437q16 53 73 262q26 95 55 148t91 120q66 70 135.5 124t108.5 66q28 9 65 9q46 0 92 -14l-70 -112q-57 20 -108 20q-81 0 -123 -69q-18 -30 -37.5 -92t-118.5 -405q-98 -382 -114.5 -454t-16.5 -120q0 -54 66 -54q62 0 195 13l-38 -51l-55 -11
q-206 -38 -254 -52q-34 -10 -56 -10q-19 0 -32.5 13t-13.5 31q0 25 72 312q51 193 67 258q-167 -2 -442 -23q-51 -159 -76.5 -205.5t-106.5 -132.5q-171 -179 -271 -210q-62 -20 -158 -20q-46 0 -101 8l97 133q68 -4 108 -4q107 0 163.5 28t97.5 101t101 308l-53 3l73 78
l15 60q72 280 103 382q-161 0 -226 -27q-129 -55 -129 -232q0 -56 23 -140l-154 -52q-17 62 -17 104q0 96 38 169t121 136q83 61 191 90t259 29q39 0 119 -4l-80 -68q-14 -63 -56 -223q-40 -157 -59 -220z" />
    <glyph glyph-name="Theta" unicode="&#x398;" horiz-adv-x="1229" 
d="M998 1210q168 0 254 -107q83 -102 83 -291q0 -196 -71 -372q-89 -223 -335 -363q-182 -104 -368 -104q-171 0 -259.5 102t-88.5 299q0 222 88 406q106 221 348 340q183 90 349 90zM879 1130q-130 0 -242 -82q-128 -92 -198 -275q-58 -150 -58 -319q0 -181 72 -285
q79 -114 228 -114q133 0 247 89q130 100 193 306q46 149 46 299q0 171 -71 273q-74 108 -217 108zM1069 636q-40 -37 -77 -74l-519 -28q40 57 79 102h517z" />
    <glyph glyph-name="Iota" unicode="&#x399;" horiz-adv-x="778" 
d="M166 1l75 50l119 14q36 125 128 486q112 439 139 558l-184 13l72 50h73h84l244 1q16 0 69 -1l-72 -50l-119 -13q-190 -696 -263 -1044l190 -14l-73 -50h-83q-192 1 -233 1q-56 0 -166 -1z" />
    <glyph glyph-name="Kappa" unicode="&#x39a;" horiz-adv-x="1352" 
d="M1720 -98l23 -169q-95 -34 -182 -34q-228 0 -365 155q-102 115 -223 512q-62 204 -89 282q-54 -210 -116 -299q-72 -103 -232 -260h248q-104 -66 -146 -77.5t-178 -11.5h-280l90 89h77q68 0 107.5 14.5t78.5 52.5q73 74 122.5 218t172.5 644l20 79q-67 7 -99 7
q-142 0 -217 -56.5t-75 -164.5q0 -88 45 -195l-168 -71q-35 86 -35 153q0 228 238 343q137 66 380 66q70 0 189 -8q-23 -28 -43 -40t-64 -24l-107 -428q58 44 271 223q262 211 293 233q66 46 135 46q49 0 116 -27l-76 -150q-75 30 -121 30q-69 0 -163 -62t-332 -263
q66 -178 116 -314q78 -217 113 -304t79 -169q90 -168 203 -168q52 0 93 31.5t101 116.5z" />
    <glyph glyph-name="Lambda" unicode="&#x39b;" horiz-adv-x="1270" 
d="M424 592q-33 82 -33 139q0 124 89 243q79 107 205 169.5t263 62.5q105 0 318 -43l117 72l-179 -801q0 -1 -1 -5q-1 -8 -5 -27q-43 -200 -43 -259q0 -51 51 -51h13l188 14l-37 -49l-127 -24q-35 -7 -170 -39q-45 -10 -66 -10q-42 0 -42 33q0 50 69 345l160 680l-63 10
l-492 -675q-168 -231 -268 -310t-225 -79q-46 0 -109 14l76 143l86 -8h19q91 0 166 56q96 70 291 339l386 533q-122 16 -212 16q-319 0 -319 -224q0 -64 39 -179z" />
    <glyph glyph-name="Mu" unicode="&#x39c;" horiz-adv-x="1720" 
d="M213 142q117 -11 151 -11q97 0 148 55q43 48 99 236q85 285 169 627q-84 12 -147 12q-122 0 -192 -44q-87 -54 -87 -162q0 -80 67 -218l-156 -110q-48 106 -48 191q0 78 46.5 169.5t128.5 176.5q73 74 143.5 104t172.5 30q67 0 167 -12l63 50q26 -154 57.5 -423.5
t48.5 -483.5q46 65 283 411q302 421 329 453q58 73 196 143q73 36 133 36q34 0 82 -13l-84 -114q-37 7 -55 10q-43 9 -72 9q-28 0 -43 -13.5t-27 -49.5q-79 -235 -158 -558q-79 -325 -92.5 -386t-13.5 -104q0 -82 101 -82l163 11l-44 -51q-39 -6 -144 -21q-82 -11 -194 -33
q-21 -4 -37 -4q-21 0 -35.5 15.5t-14.5 37.5q0 45 27 120q165 604 216 818q-256 -363 -368.5 -536.5t-179.5 -309.5l-101 -79q-3 124 -12.5 239.5t-64.5 679.5q-80 -318 -133 -501q-37 -127 -63.5 -184t-76.5 -119q-67 -82 -150.5 -119t-203.5 -37q-32 0 -88 2z" />
    <glyph glyph-name="Nu" unicode="&#x39d;" horiz-adv-x="1433" 
d="M181 142q73 -7 127 -7q67 0 103 12.5t65 46.5q106 122 270 828q-91 4 -157 4q-126 0 -192 -35q-92 -50 -92 -147q0 -67 67 -207l-143 -96q-51 106 -51 180q0 97 80 213q54 78 123.5 135t131.5 75q64 19 156 19q53 0 113 -7l71 65l36 -135q134 -500 184 -656t122 -297
q26 100 96 408q75 332 118.5 453.5t116.5 206.5q159 185 284 185q26 0 64 -4l-77 -137q-33 5 -54 5q-71 0 -112.5 -26.5t-73.5 -92.5q-49 -102 -91 -236.5t-107 -402.5q-64 -260 -105 -472q62 -117 124 -183q110 -116 227 -116q68 0 116 45.5t94 153.5l49 -183
q-126 -71 -271 -71q-360 0 -547 379q-96 194 -179 543q-23 95 -74 318q-97 -392 -133 -487q-70 -183 -181 -305q-61 -67 -123.5 -93t-160.5 -26q-40 0 -113 4z" />
    <glyph glyph-name="Xi" unicode="&#x39e;" horiz-adv-x="1334" 
d="M1165 465l154 92q38 -97 38 -176q0 -53 -14 -86t-60 -88q-14 -18 -47 -60q-70 -90 -100 -119q-58 -55 -144 -55q-79 0 -497 44q-119 12 -202 12q-59 0 -100.5 -14.5t-90.5 -51.5l6 57q82 76 137 104q82 42 148 42h39h35q71 0 274 -19q181 -16 291 -16q198 0 198 162
q0 42 -8.5 64.5t-56.5 107.5zM387 762l-35 51q89 200 134 294q25 50 41 64t50 14q17 0 172 -16q306 -32 415 -32q62 0 101.5 11t95.5 44v-39q-67 -56 -114 -80.5t-113 -40.5q-101 -23 -262 -23q-99 0 -213 14q-32 4 -55 4q-47 0 -78.5 -38t-138.5 -227zM1081 636
q-43 -37 -84 -74l-566 -28q44 57 87 102h563z" />
    <glyph glyph-name="Omicron" unicode="&#x39f;" horiz-adv-x="1229" 
d="M998 1210q168 0 254 -107q83 -102 83 -291q0 -196 -71 -372q-89 -223 -335 -363q-182 -104 -368 -104q-171 0 -259.5 102t-88.5 299q0 222 88 406q106 221 348 340q183 90 349 90zM879 1130q-130 0 -242 -82q-128 -92 -198 -275q-58 -150 -58 -319q0 -181 72 -285
q79 -114 228 -114q133 0 247 89q130 100 193 306q46 149 46 299q0 171 -71 273q-74 108 -217 108z" />
    <glyph glyph-name="Pi" unicode="&#x3a0;" horiz-adv-x="1470" 
d="M1485 1097l-151 -663q-54 -235 -54 -288q0 -54 56 -54h8l188 14l-37 -49l-126 -24q-45 -9 -120 -27q-93 -22 -117 -22q-17 0 -29.5 8.5t-12.5 19.5v4v1q0 41 78 345l137 537q34 132 68 188q-127 -8 -200 -8q-119 0 -244 15l-124 -516q-34 -145 -63.5 -210.5t-88.5 -129.5
q-104 -113 -223 -180.5t-207 -62.5l-18 1l-96 4l78 135l127 -4h23q113 0 172 49q41 35 69.5 107.5t73.5 257.5l138 569q-47 8 -108 8q-117 0 -177 -41q-76 -52 -76 -153t66 -202l-153 -97q-51 85 -51 185q0 127 88 227q75 86 173 121.5t268 37.5l141 43l-10 -41l526 11
q139 3 206 24.5t137 86.5l9 -58l-192 -159z" />
    <glyph glyph-name="Rho" unicode="&#x3a1;" horiz-adv-x="1106" 
d="M160 86h294q130 462 254 1016q-102 -12 -163 -32.5t-113 -61.5q-57 -44 -89.5 -117t-32.5 -155q0 -61 29 -153l-153 -92q-34 87 -34 167q0 249 249 398q137 82 354 105l138 70l-13 -52q53 2 87 2q153 0 238 -35q54 -22 85 -68t31 -103q0 -114 -64.5 -215t-175.5 -160
q-180 -96 -373 -109q-22 -91 -49 -207q-19 -82 -47 -198q208 2 345 17l-4 -19q-127 -60 -221.5 -71t-511.5 -11h-144zM729 572q41 -9 73 -9q146 0 240 100q46 49 73.5 124t27.5 151q0 183 -198 183q-33 0 -80 -2z" />
    <glyph glyph-name="Sigma" unicode="&#x3a3;" horiz-adv-x="1326" 
d="M699 539l-331 624l21 59q57 -49 104 -66.5t123 -17.5q38 0 100 2l635 25q46 -19 57 -80l-136 -134q-36 88 -53 110q-28 37 -100 37q-55 0 -163 -4q-79 -3 -142 -3q-116 -1 -197 -10l266 -477l-521 -448l66 10h39h35q73 0 274 -19q180 -16 291 -16q198 0 198 162
q0 42 -8.5 64t-56.5 108l154 92q38 -97 38 -176q0 -53 -14 -86t-60 -88q-15 -19 -47 -60q-70 -90 -100 -119q-58 -55 -143 -55q-80 0 -498 44q-119 12 -202 12q-58 0 -99.5 -14.5t-91.5 -51.5v76z" />
    <glyph glyph-name="Tau" unicode="&#x3a4;" horiz-adv-x="1061" 
d="M327 -1l73 80q83 5 124.5 25.5t72.5 70.5q37 58 89 266l167 667q-138 10 -186 10q-161 0 -237 -35q-153 -72 -153 -251q0 -68 46 -187l-153 -101q-51 100 -51 196q0 179 150 303q184 153 474 153q75 0 403 -16q100 -5 129 -5q55 0 80.5 23t87.5 130l28 -30
q-37 -151 -62 -186t-98 -35q-40 0 -232 16l-79 6l-160 -641q-20 -79 -37 -119t-50 -85q-47 -65 -156 -159q64 -2 94 -2q182 0 332 19l-4 -17q-99 -52 -153 -67.5t-149 -20.5q-123 -7 -390 -8z" />
    <glyph glyph-name="Upsilon" unicode="&#x3a5;" horiz-adv-x="1193" 
d="M180 -156q106 -9 150 -9q133 0 213.5 34.5t137.5 115.5q82 117 140 276q40 109 40 260q0 249 -82 403q-33 63 -91.5 100.5t-120.5 37.5q-95 0 -159.5 -74t-64.5 -183q0 -79 41 -205l-157 -99q-42 94 -42 187q0 128 100 257q87 113 218 180q106 54 205 54q71 0 132 -40.5
t94 -108.5q56 -118 56 -287q0 -85 -23 -226q185 387 291 537q72 102 134.5 146.5t133.5 44.5q44 0 82 -33l-58 -149q-59 24 -101 24q-48 0 -87.5 -27.5t-84.5 -91.5q-42 -60 -88 -146.5t-206 -408.5q-153 -308 -246.5 -454t-169.5 -196q-64 -42 -143.5 -58.5t-220.5 -16.5
q-47 0 -94 4z" />
    <glyph glyph-name="Phi" unicode="&#x3a6;" horiz-adv-x="1417" 
d="M945 1047l27 117l-185 13l72 50h74h99l228 1q15 0 70 -1l-72 -50l-120 -13l-31 -118q502 -40 502 -367q0 -180 -136 -321q-171 -176 -493 -213q-46 -5 -103 -9l-29 -125l190 -15l-73 -50q-67 0 -250 2h-66q-70 0 -166 -2l75 50l119 15l35 123q-159 7 -267 51
q-232 95 -232 320q0 180 136 320q171 177 493 214q47 5 103 8zM727 194l46 179l46 178l56 220l56 220q-180 -8 -316 -88q-234 -137 -234 -398q0 -283 346 -311zM1092 989l-55 -212l-54 -212l-46 -185l-46 -185q171 14 309 85q137 71 198 200q43 92 43 198q0 209 -192 280
q-69 26 -157 31z" />
    <glyph glyph-name="Chi" unicode="&#x3a7;" horiz-adv-x="1147" 
d="M100 153q38 -4 62 -4q76 0 120 15.5t86 57.5q69 68 314 388q-34 184 -87 366q-15 52 -40 74.5t-70 22.5q-18 0 -157 -26l46 58q270 77 319 77q31 0 40 -45l73 -372q123 150 208 259q71 91 125.5 127t120.5 36q60 0 114 -43l-91 -144q-51 29 -92 29q-48 0 -95.5 -34
t-115.5 -117q-88 -106 -162 -193q13 -60 19 -91q70 -336 112 -433q37 -88 153 -88q32 0 140 12l-36 -48q-140 -27 -163 -31q-95 -15 -118 -22q-44 -11 -68 -11q-25 0 -38 25.5t-29 107.5l-87 422q-181 -231 -208 -267q-87 -113 -137.5 -163.5t-98.5 -73.5q-69 -32 -166 -32
q-33 0 -93 8z" />
    <glyph glyph-name="Psi" unicode="&#x3a8;" horiz-adv-x="1708" 
d="M1175 465q192 20 305 87q185 110 240 309q20 72 20 136q0 90 -59 150q68 39 148 64q70 -21 70 -164q0 -135 -87 -292t-246 -243t-407 -111q-18 -74 -28 -111q-30 -123 -52 -225l190 -14l-73 -50h-83q-192 1 -233 1q-56 0 -166 -1l75 50l119 14q22 75 87 326
q-187 0 -293 43q-173 69 -173 223q0 85 51.5 170.5t164.5 188.5q-115 38 -190 38q-93 0 -156 -46q-81 -59 -81 -149q0 -73 69 -204l-137 -110q-59 121 -59 199q0 109 93 228q81 105 167.5 152t198.5 47q48 0 188 -23q14 6 21 10q34 16 64 26l12 -17q-131 -156 -184.5 -259.5
t-53.5 -201.5q0 -106 44 -155q80 -90 271 -93l12 46l12 47q112 439 139 558l-184 13l71 50h74h84l244 1q15 0 69 -1l-72 -50l-119 -13q-70 -254 -155 -594z" />
    <glyph glyph-name="uni03A9" unicode="&#x3a9;" horiz-adv-x="1477" 
d="M919 237q76 14 119 34q119 56 192 232q51 122 51 255q0 159 -71 264q-72 108 -222 108q-100 0 -191.5 -44t-155.5 -123q-127 -155 -127 -388q0 -185 76 -263q44 -45 154 -67l-120 -245h-535l-7 14q19 59 87 244h32q5 -69 21 -93q18 -27 116 -27h268l33 57q-96 5 -174 60
q-119 83 -119 283q0 175 84 322q110 190 334 284q156 66 321 66q189 0 278 -107q86 -103 86 -284q0 -166 -70 -310q-81 -165 -219 -242q-55 -31 -159 -57v-62l91 -7q151 -10 223 -10q199 0 199 162q0 43 -8.5 64.5t-57.5 107.5l154 92q39 -97 39 -177q0 -51 -14 -83t-60 -86
q-15 -18 -47 -58q-69 -87 -100 -116q-59 -54 -147 -54q-9 0 -353 19z" />
    <glyph glyph-name="Iotadieresis" unicode="&#x3aa;" horiz-adv-x="778" 
d="M166 1l75 50l119 14q35 122 128 486q112 439 139 558l-184 13l72 50h73h84l244 1q16 0 69 -1l-72 -50l-119 -13q-60 -217 -143 -545.5t-120 -498.5l190 -14l-73 -50h-83q-191 1 -233 1q-56 0 -166 -1zM881 1332q-57 82 -79 143q42 28 141 108q8 -18 12 -26
q22 -53 59 -114q-15 -12 -23 -18q-45 -34 -110 -93zM609 1332q-57 84 -78 143q51 34 141 108q8 -18 11 -26q22 -52 59 -114q-15 -12 -23 -18q-47 -36 -110 -93z" />
    <glyph glyph-name="Upsilondieresis" unicode="&#x3ab;" horiz-adv-x="1147" 
d="M135 -156q107 -9 150 -9q133 0 213.5 34.5t137.5 115.5q83 117 140 276q40 110 40 260q0 249 -82 403q-33 62 -91.5 100t-120.5 38q-95 0 -159.5 -74t-64.5 -183q0 -78 41 -205l-156 -99q-43 94 -43 186q0 129 100 258q87 113 219 180q105 54 204 54q131 0 206.5 -117
t75.5 -320q0 -87 -23 -225q185 388 291 537q72 102 135 146.5t133 44.5q44 0 82 -33l-57 -149q-61 24 -102 24q-47 0 -87 -27.5t-85 -90.5q-41 -59 -87.5 -147.5t-206.5 -408.5q-200 -384 -252 -464q-55 -86 -99 -131.5t-99 -74.5q-59 -31 -132 -43t-198 -12q-47 0 -94 4z
M1202 1332q-55 81 -78 143q48 32 141 108q8 -18 12 -26q22 -52 59 -114q-67 -51 -134 -111zM931 1332q-56 81 -78 143q54 36 141 108q7 -18 11 -26q23 -54 59 -114q-70 -53 -133 -111z" />
    <glyph glyph-name="alphatonos" unicode="&#x3ac;" horiz-adv-x="1140" 
d="M909 583q189 259 302 259q33 0 71 -26l-43 -143q-58 22 -87 22q-56 0 -118.5 -67t-118.5 -187q27 -216 41 -277q30 -136 107 -136q91 0 161 122l80 -96q-45 -41 -90 -57q-66 -23 -140 -23q-166 0 -233 109q-31 50 -46 168q-68 -106 -179 -177q-155 -100 -261 -100
q-81 0 -129 55.5t-48 147.5q0 153 63 298t160 217q91 68 181 109t147 41q115 0 160 -113q16 -40 20 -146zM760 372q-8 101 -11 152q-5 103 -25 149q-33 73 -98 73q-67 0 -140 -75q-64 -67 -107 -182t-43 -221q0 -80 26 -131q36 -67 114 -67q81 0 145 68t139 234zM726 937
l73 347h138l-133 -324z" />
    <glyph glyph-name="epsilontonos" unicode="&#x3ad;" horiz-adv-x="696" 
d="M598 442l-81 -83q-111 -5 -154 -42q-28 -25 -28 -79q0 -58 24 -97q31 -51 94 -51q95 0 331 171l-3 -67q-143 -106 -261.5 -163.5t-192.5 -57.5q-81 0 -118 58q-32 50 -32 121q0 63 36 114t135 128q-37 12 -54 29q-46 47 -46 108q0 52 40 112.5t105 106.5q54 38 125 64.5
t119 26.5q58 0 90 -37t32 -104q0 -8 -1 -23l-118 -70q-18 150 -101 150q-66 0 -112 -68q-46 -69 -46 -139q0 -58 29.5 -88.5t83.5 -30.5q37 0 104 11zM555 937l73 347h138l-133 -324z" />
    <glyph glyph-name="etatonos" unicode="&#x3ae;" horiz-adv-x="894" 
d="M182 -21q24 89 76 277q90 325 90 399q0 29 -24 29q-21 0 -158 -61l13 52q281 167 321 167q26 0 26 -26q0 -13 -17 -87t-33 -126q40 24 160 99q167 102 203.5 121t68.5 19q40 0 40 -34q0 -13 -50 -196q-87 -311 -129 -491q-79 -344 -79 -401q0 -54 31 -54q24 0 68 24
l93 57l-14 -59q-172 -129 -305 -196q-31 53 -31 93q0 42 53 256q23 93 77 326q45 198 78 335q30 124 30 156q0 26 -21 26q-31 0 -241 -131l-52 -33l-121 -482zM648 937l73 347h138l-133 -324z" />
    <glyph glyph-name="iotatonos" unicode="&#x3af;" horiz-adv-x="491" 
d="M637 238l-9 -59q-58 -35 -174 -110q-150 -96 -197 -96q-23 0 -36.5 22.5t-13.5 59.5q0 39 12 90.5t83 318.5q38 141 38 174q0 36 -24 36q-21 0 -150 -70l5 58q267 180 323 180q24 0 24 -21q0 -15 -76 -327q-67 -271 -67 -306q0 -57 36 -57q29 0 191 88zM440 937l73 347
h138l-132 -324z" />
    <glyph glyph-name="upsilondieresistonos" unicode="&#x3b0;" horiz-adv-x="985" 
d="M172 440l-35 44q61 214 100 264q17 22 72 22q31 0 99 -3q81 -4 112 -4q52 0 73.5 6.5t39.5 26.5h20q3 -13 3 -22q0 -4 -1 -14q-124 -142 -176 -237q-90 -163 -90 -299q0 -66 40.5 -103.5t110.5 -37.5q137 0 255 132q67 75 108.5 172t41.5 179q0 110 -99 156q84 69 142 96
q80 -73 80 -175q0 -142 -124 -332q-102 -154 -238 -248q-130 -90 -254 -90q-80 0 -138 40q-72 51 -72 152q0 141 102 287q51 73 173 212q-64 -15 -196 -16q-55 -1 -78.5 -33.5t-70.5 -174.5zM765 937l73 347h138l-133 -324zM1043 1002q-55 80 -78 143q39 26 141 108
q32 -76 71 -140q-71 -53 -134 -111zM627 1002q-57 83 -78 143q45 30 141 108q34 -78 70 -140q-73 -56 -133 -111z" />
    <glyph glyph-name="alpha" unicode="&#x3b1;" horiz-adv-x="1140" 
d="M909 583q189 259 302 259q33 0 71 -26l-43 -143q-58 22 -87 22q-56 0 -118.5 -67t-118.5 -187q27 -216 41 -277q30 -136 107 -136q91 0 161 122l80 -96q-45 -41 -90 -57q-66 -23 -140 -23q-166 0 -233 109q-31 50 -46 168q-68 -106 -179 -177q-155 -100 -261 -100
q-81 0 -129 55.5t-48 147.5q0 153 63 298t160 217q91 68 181 109t147 41q115 0 160 -113q16 -40 20 -146zM760 372q-8 101 -11 152q-5 103 -25 149q-33 73 -98 73q-67 0 -140 -75q-64 -67 -107 -182t-43 -221q0 -80 26 -131q36 -67 114 -67q81 0 145 68t139 234z" />
    </font>
</defs>
</svg>
