<?xml version="1.0" encoding="UTF-8" standalone="no"?>
<svg
   version="1.0"
   width="632.000000pt"
   height="666.000000pt"
   viewBox="0 0 632.000000 666.000000"
   preserveAspectRatio="xMidYMid meet"
   id="svg16"
   sodipodi:docname="pngwing.com (1).svg"
   inkscape:version="1.1.2 (0a00cf5339, 2022-02-04)"
   xmlns:inkscape="http://www.inkscape.org/namespaces/inkscape"
   xmlns:sodipodi="http://sodipodi.sourceforge.net/DTD/sodipodi-0.dtd"
   xmlns="http://www.w3.org/2000/svg"
   xmlns:svg="http://www.w3.org/2000/svg">
  <defs
     id="defs20" />
  <sodipodi:namedview
     id="namedview18"
     pagecolor="#ffffff"
     bordercolor="#666666"
     borderopacity="1.0"
     inkscape:pageshadow="2"
     inkscape:pageopacity="0.0"
     inkscape:pagecheckerboard="0"
     inkscape:document-units="pt"
     showgrid="false"
     inkscape:zoom="0.80292793"
     inkscape:cx="421.58205"
     inkscape:cy="443.37728"
     inkscape:window-width="1920"
     inkscape:window-height="1009"
     inkscape:window-x="0"
     inkscape:window-y="27"
     inkscape:window-maximized="1"
     inkscape:current-layer="svg16" />
  <metadata
     id="metadata2">
Created by potrace 1.16, written by Peter Selinger 2001-2019
</metadata>
  <g
     transform="translate(0.000000,666.000000) scale(0.100000,-0.100000)"
     fill="#000000"
     stroke="none"
     id="g14"
     style="fill:#ff417f;fill-opacity:1">
    <path
       d="M2700 6649 c-951 -59 -1734 -337 -2093 -742 -329 -373 -504 -833 -572 -1514 -39 -376 -38 -1076 0 -1408 65 -559 211 -974 462 -1306 229 -305 548 -526 946 -655 l87 -28 0 -361 c0 -393 7 -459 55 -541 14 -24 42 -55 63 -69 33 -23 46 -25 136 -25 106 0 123 6 209 74 36 28 427 460 578 638 l74 87 80 -7 c44 -4 262 -7 485 -7 422 1 575 10 895 56 324 46 731 147 955 235 597 237 986 705 1149 1384 32 133 60 309 87 555 22 199 32 1104 14 1305 -17 196 -55 422 -100 606 -141 569 -385 962 -749 1206 -380 254 -933 427 -1576 493 -300 31 -880 43 -1185 24z m720 -479 c140 -5 320 -16 400 -25 560 -61 1037 -207 1345 -410 319 -211 543 -658 635 -1262 68 -455 63 -1040 -15 -1598 -86 -609 -366 -1049 -811 -1274 -151 -76 -220 -99 -508 -171 -460 -115 -947 -168 -1463 -158 l-263 6 -147 -177 c-429 -511 -725 -846 -773 -875 -44 -25 -76 -15 -91 31 -9 27 -11 179 -8 610 l4 574 -105 35 c-243 81 -436 199 -605 369 -290 289 -443 663 -507 1235 -17 147 -16 918 1 1115 53 630 211 1068 493 1370 274 294 793 500 1458 580 289 34 534 41 960 25z"
       id="path4"
       style="fill:#ff417f;fill-opacity:1" />
    <path
       d="M3084 5456 c-35 -15 -44 -32 -44 -82 0 -24 8 -43 25 -59 20 -21 34 -25 87 -25 227 0 480 -60 693 -164 290 -142 544 -396 679 -680 99 -207 166 -510 166 -751 0 -71 2 -79 29 -106 37 -36 79 -38 118 -5 l28 24 -2 119 c-3 146 -17 264 -50 412 -78 355 -223 615 -478 859 -258 246 -572 397 -932 446 -168 23 -283 27 -319 12z"
       id="path6"
       style="fill:#ff417f;fill-opacity:1" />
    <path
       d="M1925 5271 c-148 -39 -405 -262 -482 -418 -33 -67 -38 -88 -42 -159 -2 -70 1 -96 25 -166 45 -137 109 -282 218 -493 487 -946 987 -1434 1961 -1915 294 -145 446 -201 548 -202 133 0 248 62 389 210 199 210 258 366 186 493 -46 82 -483 411 -665 501 -56 27 -78 32 -138 32 -113 0 -162 -29 -266 -160 -139 -175 -186 -184 -436 -84 -384 156 -720 523 -872 953 -28 79 -30 93 -20 136 14 67 39 98 155 189 124 98 147 138 148 252 1 66 -4 85 -32 142 -89 182 -418 620 -499 665 -44 25 -131 36 -178 24z"
       id="path8"
       style="fill:#ff417f;fill-opacity:1" />
    <path
       d="M3216 5008 c-54 -46 -30 -142 36 -152 262 -36 388 -70 512 -141 295 -168 464 -450 483 -808 5 -102 9 -123 27 -144 38 -44 129 -29 142 23 4 15 4 85 1 158 -12 290 -121 543 -321 742 -195 195 -458 310 -777 339 -70 7 -77 5 -103 -17z"
       id="path10"
       style="fill:#ff417f;fill-opacity:1" />
    <path
       d="M3360 4567 c-51 -25 -64 -90 -27 -132 19 -23 37 -29 116 -41 234 -35 337 -149 366 -408 5 -42 13 -65 30 -82 34 -33 87 -32 122 2 25 25 26 29 20 107 -21 287 -178 485 -428 541 -102 22 -171 27 -199 13z"
       id="path12"
       style="fill:#ff417f;fill-opacity:1" />
  </g>
</svg>
